<svg xmlns="http://www.w3.org/2000/svg" width="24" height="24" viewBox="0 0 24 24"><ellipse cx="12" cy="12" rx="12" ry="12" fill="#901675"/><g transform="translate(5.965 4.999)"><path d="M5.169,2A1.167,1.167,0,0,0,4.006,3.169L4,12.517a1.167,1.167,0,0,0,1.163,1.169H12.18a1.172,1.172,0,0,0,1.169-1.169V5.506L9.843,2Zm4.09,4.09V2.876L12.472,6.09Z" transform="translate(-4 0.805)" fill="#fff"/><g transform="translate(-0.261 -2)" fill="#fff"><path d="M 12.17993545532227 14.18561744689941 L 5.162715911865234 14.18561744689941 C 4.245885848999023 14.18561744689941 3.499995946884155 13.43710708618164 3.499995946884155 12.51705741882324 L 3.505845785140991 3.168247222900391 C 3.505845785140991 2.248507261276245 4.251735687255859 1.49999725818634 5.16856575012207 1.49999725818634 L 9.842805862426758 1.49999725818634 L 10.04991626739502 1.49999725818634 L 10.19635581970215 1.64644730091095 L 13.70204544067383 5.152137279510498 L 13.84849548339844 5.298577308654785 L 13.84849548339844 5.505687236785889 L 13.84849548339844 12.51705741882324 C 13.84849548339844 13.43710708618164 13.09998607635498 14.18561744689941 12.17993545532227 14.18561744689941 Z M 9.758525848388672 5.589967250823975 L 11.26497554779053 5.589967250823975 L 9.758525848388672 4.083517074584961 L 9.758525848388672 5.589967250823975 Z" stroke="none"/><path d="M 5.16856575012207 1.999997138977051 C 4.525856018066406 1.999997138977051 4.00584602355957 2.525847434997559 4.00584602355957 3.168557167053223 L 3.999996185302734 12.51705741882324 C 3.999996185302734 13.15976715087891 4.52000617980957 13.68561744689941 5.162715911865234 13.68561744689941 L 12.1799259185791 13.68561744689941 C 12.82263565063477 13.68561744689941 13.34849548339844 13.15976715087891 13.34849548339844 12.51705741882324 L 13.34849548339844 5.505687713623047 L 9.842805862426758 1.999997138977051 L 5.16856575012207 1.999997138977051 M 12.47207641601562 6.089967727661133 L 9.258525848388672 6.089967727661133 L 9.258525848388672 2.87641716003418 L 12.47207641601562 6.089967727661133 M 5.16856575012207 0.9999971389770508 L 9.842805862426758 0.9999971389770508 L 10.25701522827148 0.9999971389770508 L 10.5499153137207 1.292887687683105 L 14.0556058883667 4.798577308654785 L 14.34849548339844 5.091477394104004 L 14.34849548339844 5.505687713623047 L 14.34849548339844 12.51705741882324 C 14.34849548339844 13.71280765533447 13.37567615509033 14.68561744689941 12.1799259185791 14.68561744689941 L 5.162715911865234 14.68561744689941 C 3.970186233520508 14.68561744689941 2.999996185302734 13.71280765533447 2.999996185302734 12.51705741882324 L 3.00584602355957 3.167927742004395 C 3.00584602355957 1.972806930541992 3.976036071777344 0.9999971389770508 5.16856575012207 0.9999971389770508 Z" stroke="none" fill="#901675"/></g></g></svg>