<?xml version="1.0" encoding="utf-8"?>
<!-- Generator: Adobe Illustrator 23.0.3, SVG Export Plug-In . SVG Version: 6.00 Build 0)  -->
<svg version="1.1" id="Layer_1" xmlns="http://www.w3.org/2000/svg" xmlns:xlink="http://www.w3.org/1999/xlink" x="0px" y="0px"
	 viewBox="0 0 24.2 26.5" style="enable-background:new 0 0 24.2 26.5;" xml:space="preserve">
<style type="text/css">
	.st0{fill:#FFFFFF;}
	.st1{fill:#2A3593;}
</style>
<g transform="translate(-15.5 -7.25)">
	<g>
		<path class="st0" d="M21.6,12.4c0,1.9,1.5,3.4,3.4,3.4c1.9,0,3.4-1.5,3.4-3.4c0-1.9-1.5-3.4-3.4-3.4C23.1,9,21.6,10.5,21.6,12.4z
			 M33.6,12.4c-0.6-0.6-1.5-0.6-2.1,0c0,0,0,0,0,0l-4.1,4.1h-4.8l-4.1-4.1c-0.6-0.6-1.5-0.6-2.1,0c0,0,0,0,0,0
			c-0.6,0.6-0.6,1.5,0,2.1c0,0,0,0,0,0l4.4,4.4v12.5c0,0.8,0.7,1.5,1.5,1.5c0,0,0,0,0,0h0.8c0.8,0,1.5-0.7,1.5-1.5v-5.3h0.8v5.3
			c0,0.8,0.7,1.5,1.5,1.5l0,0h0.8c0.8,0,1.5-0.7,1.5-1.5V19l4.4-4.4C34.2,14,34.2,13,33.6,12.4C33.6,12.4,33.6,12.4,33.6,12.4z"/>
		<path class="st1" d="M27.6,33.5h-0.8c-0.9,0-1.6-0.5-1.9-1.3c-0.3,0.8-1,1.3-1.9,1.3h-0.8c-1.1,0-2-0.9-2-2V19.2L16,14.8
			c-0.7-0.8-0.7-2,0.1-2.8l0.1-0.1c0.4-0.3,0.8-0.5,1.4-0.5c0,0,0,0,0,0c0.5,0,1,0.2,1.4,0.6l3.9,3.9h0.8c-1.5-0.6-2.5-2-2.5-3.6
			l0,0c0-2.1,1.7-3.9,3.9-3.9c2.1,0,3.9,1.7,3.9,3.9c0,1.7-1,3.1-2.5,3.6h0.8l4-4c0.4-0.3,0.8-0.5,1.4-0.5c0,0,0,0,0,0
			c0.5,0,1,0.2,1.4,0.6l0,0c0.4,0.4,0.6,0.9,0.6,1.4s-0.2,1-0.6,1.4l-4.3,4.3v12.3C29.6,32.6,28.7,33.5,27.6,33.5z M24.1,25.7h1.8
			v5.8c0,0.6,0.4,1,1,1h0.8c0.6,0,1-0.4,1-1V18.8l4.6-4.6c0.2-0.2,0.3-0.4,0.3-0.7c0-0.3-0.1-0.5-0.3-0.7l0.4-0.4l-0.4,0.4
			c-0.2-0.2-0.4-0.3-0.7-0.3c0,0,0,0,0,0c-0.3,0-0.5,0.1-0.7,0.3L27.6,17h-5.2l-4.2-4.2c-0.2-0.2-0.4-0.3-0.7-0.3c0,0,0,0,0,0
			c-0.3,0-0.5,0.1-0.7,0.3l0,0c-0.4,0.4-0.4,1,0,1.3l0.1,0l0,0.1l4.5,4.5v12.7c0,0.6,0.4,1,1,1h0.8c0.6,0,1-0.4,1-1V25.7z
			 M22.1,12.4c0,1.6,1.3,2.9,2.9,2.9c1.6,0,2.9-1.3,2.9-2.9c0-1.6-1.3-2.9-2.9-2.9C23.4,9.5,22.1,10.8,22.1,12.4L22.1,12.4z"/>
	</g>
	<g>
		<path class="st0" d="M39,8.8h-4c-0.4,0-0.8-0.3-0.8-0.8s0.3-0.8,0.8-0.8h4c0.4,0,0.8,0.3,0.8,0.8S39.4,8.8,39,8.8z"/>
	</g>
	<g>
		<path class="st0" d="M39,33.8h-4c-0.4,0-0.8-0.3-0.8-0.8s0.3-0.8,0.8-0.8h4c0.4,0,0.8,0.3,0.8,0.8S39.4,33.8,39,33.8z"/>
	</g>
	<g>
		<path class="st0" d="M37,33.8c-0.4,0-0.8-0.3-0.8-0.8V8c0-0.4,0.3-0.8,0.8-0.8s0.8,0.3,0.8,0.8v25C37.8,33.4,37.4,33.8,37,33.8z"
			/>
	</g>
</g>
</svg>
