<svg xmlns="http://www.w3.org/2000/svg" width="30.705" height="30.705" viewBox="0 0 30.705 30.705">
    <defs>
        <style>
            .cls-1{fill:none}.cls-2{fill:#fff}
        </style>
    </defs>
    <g id="ic_Imunisasi" transform="translate(.145 .164)">
        <path id="Path_640603" d="M0 0h30.705v30.705H0z" class="cls-1" data-name="Path 640603" transform="translate(-.145 -.164)"/>
        <path id="Path_640604" d="M-1.745-12.124l2.828 2.833a.408.408 0 0 1 0 .574l-.574.574a.408.408 0 0 1-.574 0l-2.828-2.833-2.3 2.3 2.833 2.833a.408.408 0 0 1 0 .574l-.574.574a.408.408 0 0 1-.574 0L-6.34-7.534l-1.341 1.34a4.057 4.057 0 0 0-1.168 3.321l.361 3.23-3.372 3.371a.408.408 0 0 0 0 .574l.574.574a.408.408 0 0 0 .574 0l3.366-3.366 3.229.361A4.042 4.042 0 0 0-.8.7l9.241-9.234-6.89-6.89zM13.9-16.862l-4.017-4.021a.408.408 0 0 0-.574 0l-.574.574a.408.408 0 0 0 0 .574l1.437 1.435-2.3 2.3L5-18.872l-.863-.863a.408.408 0 0 0-.574 0L1.84-18.014a.408.408 0 0 0 0 .574l.863.863 6.89 6.9.863.863a.408.408 0 0 0 .574 0l1.721-1.726a.408.408 0 0 0 0-.574L9.02-14.846l2.3-2.3 1.437 1.437a.408.408 0 0 0 .574 0l.574-.574a.414.414 0 0 0-.005-.579z" class="cls-2" data-name="Path 640604" transform="translate(13.835 22.838)"/>
    </g>
</svg>
