<svg xmlns="http://www.w3.org/2000/svg" width="30.705" height="30.705" viewBox="0 0 30.705 30.705">
    <defs>
        <style>
            .cls-1{fill:#fff}.cls-2{clip-path:url(#clip-path)}.cls-3{fill:none}
        </style>
        <clipPath id="clip-path">
            <path id="Path_640369" d="M15.94.064A15.353 15.353 0 1 1 .588 15.417 15.353 15.353 0 0 1 15.94.064z" class="cls-1" data-name="Path 640369" transform="translate(1239.924 273.924)"/>
        </clipPath>
    </defs>
    <g id="ic_NurseSOAP-white" class="cls-2" transform="translate(-1240.512 -273.988)">
        <g id="Group_13179" data-name="Group 13179" transform="translate(1240.905 273.927)">
            <path id="Path_640364" d="M0 0h30.705v30.705H0z" class="cls-3" data-name="Path 640364"/>
            <path id="Path_640365" d="M189.788 19.7c-1.105-1.238-4.719-2.7-4.719-2.7-.246.191 1.68 2.006 1.68 2.006l-2.37 1.375 1.143 2.4a44.388 44.388 0 0 1-3.451 2.887c-.181-.026-3.448-2.887-3.448-2.887l1.054-2.4-2.537-1.375s2.248-1.773 1.871-2.006c0 0-3.923 1.757-4.719 2.7-1.448 1.724-3.293 7.25-3.293 9.46h3.689l.553-2.674 1 2.674h12.023l.8-2.674.718 2.674h3.318c0-2.214-1.843-7.739-3.312-9.46z" class="cls-1" data-name="Path 640365" transform="translate(-166.947 2.952)"/>
            <path id="Path_640366" d="M55.321 4.985a5.522 5.522 0 0 0-.646-.786.275.275 0 0 1-.087-.3l.257-1.2a.876.876 0 0 0-.508-.968L50.4.094a1.535 1.535 0 0 0-1.054 0l-4 1.638a.873.873 0 0 0-.51.967l.283 1.317a.273.273 0 0 1-.074.27 5.956 5.956 0 0 0-.573.7 9.581 9.581 0 0 0-1.471 5.529c0 2.865.275 4.723.865 5.845a2.516 2.516 0 0 0 2.487 1.44 11.686 11.686 0 0 0 1.583-.152c.675 0 1.251-.013 1.909-.013s1.27.006 1.874 0a12.222 12.222 0 0 0 1.561.141 2.581 2.581 0 0 0 2.52-1.432c.6-1.118.883-2.972.883-5.834a9.765 9.765 0 0 0-1.362-5.525zm-9.714-2.633l4-1.638a.884.884 0 0 1 .542 0l3.931 1.635a.207.207 0 0 1 .109.207l-.476 2.215a.138.138 0 0 1-.143.1l-3.252-.455a4.039 4.039 0 0 0-.948 0l-3.252.455a.138.138 0 0 1-.143-.1L45.5 2.557a.2.2 0 0 1 .107-.205zm4.237 15.282c-.554 0-2.062-1.192-3.051-2.269a8.627 8.627 0 0 1-1.712-4.7 7.989 7.989 0 0 1 .219-1.87 1.663 1.663 0 0 1 .487-.828 7.292 7.292 0 0 1 1.069-.7c.2-.115.4-.234.606-.351.65-.365 1.09-1.024 1.234-1.024.177 0 .56.323.616.378a13.229 13.229 0 0 0 1.959 1.583 13.514 13.514 0 0 0 3.139 1.353c.059.019.1.2.132.416a8.445 8.445 0 0 1 .064 1.039 8.912 8.912 0 0 1-1.776 4.7c-.93 1.302-2.351 2.273-2.986 2.273z" class="cls-1" data-name="Path 640366" transform="translate(-34.838 1.425)"/>
            <path id="Path_640367" d="M863.387 469.054l1.914 5.589 1.421-5.589s-.763 1.922-1.6 1.922-1.735-1.922-1.735-1.922z" class="cls-1" data-name="Path 640367" transform="translate(-850.097 -449.103)"/>
            <path id="Path_640368" d="M-14729.844-16913.348h1.051v.994h.962v1.018h-.962v.961h-1.051v-.961h-.959v-1.018h.959z" class="cls-1" data-name="Path 640368" transform="translate(14744.33 16915.852)"/>
        </g>
    </g>
</svg>
