<svg xmlns="http://www.w3.org/2000/svg" width="24" height="24" viewBox="0 0 24 24">
    <defs>
        <style>
            .cls-1{fill:none}.cls-2{fill:#fff}
        </style>
    </defs>
    <g id="ic_SubmitSign" transform="translate(0 2.172)">
        <g id="Bounding_Boxes" transform="translate(0 -2.172)">
            <path id="Path_3183" d="M0 0h24v24H0z" class="cls-1" data-name="Path 3183"/>
        </g>
        <g id="Group_8130" data-name="Group 8130" transform="translate(0 1.829)">
            <path id="Path_4852" d="M3 12.414v1.979a.322.322 0 0 0 .326.326H5.3a.305.305 0 0 0 .228-.1l7.11-7.1L10.2 5.076l-7.1 7.1a.32.32 0 0 0-.1.238zm11.53-6.785a.648.648 0 0 0 0-.918l-1.523-1.523a.648.648 0 0 0-.918 0L10.9 4.379l2.442 2.442z" class="cls-2" data-name="Path 4852" transform="translate(9.279 -2.998)"/>
            <path id="Path_4854" d="M3.518 4.979a.829.829 0 0 0 1.113.039c.241-.208.449-.332.566-.28.326.13 0 .671-.2.99C4.839 6 3.14 8.261 3.14 9.836a2.336 2.336 0 0 0 .872 1.94 1.951 1.951 0 0 0 1.719.3c.7-.2 1.27-.911 1.992-1.8.788-.97 1.843-2.24 2.656-2.24 1.061 0 1.074.658 1.146 1.165a3.979 3.979 0 0 0-3.5 3.5 2.056 2.056 0 0 0 2.09 2.012c1.061 0 2.793-.866 3.054-3.972h.788a.814.814 0 0 0 .814-.814.814.814 0 0 0-.814-.814h-.797a2.7 2.7 0 0 0-2.624-2.734A4.689 4.689 0 0 0 7.32 8.222a53.11 53.11 0 0 1-1.491 1.77c-.163.2-.443.547-.723.547s-.469-.54-.234-1.25A11.881 11.881 0 0 1 6.076 7a3.449 3.449 0 0 0 .846-2.136A1.716 1.716 0 0 0 5.289 3a2.749 2.749 0 0 0-1.758.794.818.818 0 0 0-.013 1.185zm6.615 8.145a.489.489 0 0 1-.482-.469 2.3 2.3 0 0 1 1.869-1.8c-.196 1.755-.932 2.269-1.388 2.269z" class="cls-2" data-name="Path 4854" transform="translate(-3.14 .908)"/>
        </g>
    </g>
</svg>
