<svg xmlns="http://www.w3.org/2000/svg" width="24" height="24" viewBox="0 0 24 24">
    <defs>
        <style>
            .cls-1{fill:none}.cls-2{fill:#fff}.cls-3{fill:#4d9b35}
        </style>
    </defs>
    <g id="ic_SaveAsDraft" transform="translate(-13.051 -72)">
        <g id="ic_PatientHistory" transform="translate(12 72)">
            <g id="Bounding_Boxes" transform="translate(1.051)">
                <path id="Path_3183" d="M0 0h24v24H0z" class="cls-1" data-name="Path 3183"/>
            </g>
            <g id="Group_11996" data-name="Group 11996" transform="translate(-.18 -.251)">
                <path id="Path_640119" d="M8.74-11.319v-5.306H.936a.934.934 0 0 0-.936.936v18.1a.934.934 0 0 0 .936.936h13.11a.934.934 0 0 0 .936-.936v-12.8H9.676a.939.939 0 0 1-.936-.93zm6.243-.55a.933.933 0 0 0-.273-.659l-3.82-3.824a.936.936 0 0 0-.663-.273h-.239v4.994h4.994z" class="cls-2" data-name="Path 640119" transform="translate(2.051 18.023)"/>
                <g id="Group_11995" data-name="Group 11995" transform="translate(10.437 5.933)">
                    <path id="Path_640112" d="M-294.9 58.258a1.1 1.1 0 0 1-.821-.368 1.1 1.1 0 0 1-.274-.858l.294-2.645.021-.191.136-.136 6.437-6.436.387-.387.137-.137 1.31-1.31a1.649 1.649 0 0 1 1.173-.49 1.649 1.649 0 0 1 1.174.486l1.392 1.392a1.662 1.662 0 0 1 0 2.347l-1.31 1.31-.387.387-.137.137-6.439 6.439-.136.136-.191.021-2.644.292a1.117 1.117 0 0 1-.122.011z" class="cls-3" data-name="Path 640112" transform="translate(296.554 -44.757)"/>
                    <path id="Path_640113" d="M-293.26 38.695a1.109 1.109 0 0 0-.787.326l-1.31 1.31 2.965 2.965 1.31-1.31a1.112 1.112 0 0 0 0-1.573l-1.392-1.392a1.109 1.109 0 0 0-.786-.326m-2.62 2.159l-6.437 6.436-.294 2.646a.556.556 0 0 0 .551.617.563.563 0 0 0 .062 0l2.644-.292 6.439-6.439-2.965-2.965m2.62-3.254a2.193 2.193 0 0 1 1.561.646l1.392 1.392a2.21 2.21 0 0 1 0 3.121l-1.31 1.31-.774.774-6.189 6.189-.272.272-.382.042-2.644.292a1.677 1.677 0 0 1-.182.01 1.652 1.652 0 0 1-1.229-.55 1.653 1.653 0 0 1-.41-1.283l.294-2.646.042-.382.272-.272 6.437-6.436.774-.774 1.06-1.06a2.193 2.193 0 0 1 1.56-.648z" class="cls-2" data-name="Path 640113" transform="translate(303.71 -37.6)"/>
                </g>
            </g>
        </g>
    </g>
</svg>
