<svg xmlns="http://www.w3.org/2000/svg" width="24" height="24.002" viewBox="0 0 24 24.002">
    <defs>
        <style>
            .cls-1{fill:#fff}.cls-2{fill:#1172f7}.cls-3{fill:none}
        </style>
    </defs>
    <g id="ic_SubmitSign" transform="translate(-1303 -5850)">
        <g id="Group_11994" data-name="Group 11994">
            <g id="Group_11993" data-name="Group 11993" transform="translate(1 1.375)">
                <path id="Path_640120" d="M15.494-14.522L12.5-17.394a2.013 2.013 0 0 0-1.212-.481H1.714A1.68 1.68 0 0 0 0-16.232V-4.18a1.68 1.68 0 0 0 1.714 1.644h12.568A1.68 1.68 0 0 0 16-4.18v-9.18a1.848 1.848 0 0 0-.506-1.162zM8-4.728a2.24 2.24 0 0 1-2.287-2.191A2.24 2.24 0 0 1 8-9.11a2.24 2.24 0 0 1 2.285 2.191A2.24 2.24 0 0 1 8-4.728zm3.428-10.426v3.442A.42.42 0 0 1 11-11.3H2.714a.42.42 0 0 1-.428-.411v-3.561a.42.42 0 0 1 .428-.411h8.159a.438.438 0 0 1 .3.12l.124.119a.462.462 0 0 1 .125.29z" class="cls-1" data-name="Path 640120" transform="translate(1302 5870.898)"/>
                <g id="Group_11992" data-name="Group 11992" transform="translate(1312.459 5859.863)">
                    <path id="Path_640118" d="M13.06-9.947a6.381 6.381 0 0 0-6.381-6.381A6.381 6.381 0 0 0 .3-9.947a6.381 6.381 0 0 0 6.378 6.382 6.381 6.381 0 0 0 6.382-6.382zM5.94-6.568a.412.412 0 0 1-.582 0L2.682-9.244a.412.412 0 0 1 0-.582l.582-.582a.412.412 0 0 1 .582 0l1.8 1.8 3.864-3.859a.412.412 0 0 1 .582 0l.582.582a.412.412 0 0 1 0 .582z" class="cls-1" data-name="Path 640118" transform="translate(-.297 16.328)"/>
                    <circle id="Ellipse_2767" cx="4.069" cy="4.069" r="4.069" class="cls-1" data-name="Ellipse 2767" transform="translate(2.194 2.194)"/>
                    <path id="Path_640117" d="M11-10.979a5.349 5.349 0 0 0-5.349-5.349A5.349 5.349 0 0 0 .3-10.979a5.349 5.349 0 0 0 5.346 5.35A5.349 5.349 0 0 0 11-10.979zM5.028-8.146a.345.345 0 0 1-.488 0L2.3-10.39a.345.345 0 0 1 0-.488l.488-.488a.345.345 0 0 1 .488 0l1.507 1.512 3.237-3.237a.345.345 0 0 1 .488 0L9-12.6a.345.345 0 0 1 0 .488z" class="cls-2" data-name="Path 640117" transform="translate(.735 17.36)"/>
                </g>
            </g>
            <path id="Rectangle_12849" d="M0 0h24v24H0z" class="cls-3" data-name="Rectangle 12849" transform="translate(1303 5850)"/>
        </g>
    </g>
</svg>
