<svg id="atom_icon_a-icon-exclamation-triangle-red" data-name="atom/icon/a-icon-exclamation-triangle-red" xmlns="http://www.w3.org/2000/svg" width="24" height="24" viewBox="0 0 24 24">
  <rect id="Bounding_Box" data-name="Bounding Box" width="24" height="24" fill="none"/>
  <path id="Icon_awesome-exclamation-triangle" data-name="Icon awesome-exclamation-triangle" d="M21.752,16.806a1.834,1.834,0,0,1-1.588,2.75H1.835a1.834,1.834,0,0,1-1.588-2.75L9.412.916a1.834,1.834,0,0,1,3.176,0ZM11,13.521a1.757,1.757,0,1,0,1.757,1.757A1.757,1.757,0,0,0,11,13.521ZM9.332,7.206,9.615,12.4a.458.458,0,0,0,.458.433h1.854a.458.458,0,0,0,.458-.433l.283-5.194a.458.458,0,0,0-.458-.483H9.79a.458.458,0,0,0-.458.483Z" transform="translate(1 2)" fill="#e84118"/>
</svg>
