<svg xmlns="http://www.w3.org/2000/svg" width="32" height="39" viewBox="0 0 32 39">
    <defs>
        <style>
            .cls-1{fill:#cdced9}
        </style>
    </defs>
    <path id="ic_LabEmpty" d="M191.5 39a.5.5 0 0 1-.5-.5v-.594a.5.5 0 0 1 .5-.5h31a.5.5 0 0 1 .5.5v.594a.5.5 0 0 1-.5.5zm4.124-2.391l7.312-9.647 2.848 1.818h6.316c3.016-4.411 4.064-13.121 1.463-13.186-1.792-.049-2.032 3.284-2.032 3.284l-3.28-2.089 4.8-7.637a12.3 12.3 0 0 1 4.8 13.776c-1.571 6.23-4.405 9.07-6.706 10.365l1.123 3.315h-16.64zm10.937-8.4l-10.766-6.8a.408.408 0 0 1-.127-.563l.256-.4a.41.41 0 0 1 .565-.127l10.766 6.8a.407.407 0 0 1 .127.563l-.255.4a.411.411 0 0 1-.566.127zm-4.581-6.846l-.838-.529a.8.8 0 0 1-.247-1.1l2.331-3.663 2.189 1.383-2.33 3.663a.8.8 0 0 1-1.1.246zm-.915-6.661l.694-1.09 6.581 4.158-.694 1.091zm2.179-1.074l4.867-7.649 4.378 2.767-4.868 7.654zm5.761-7.828l2.776-4.362 3.284 2.074-2.777 4.363zm2.561-5.248l.352-.552 4.382 2.767-.351.552z" class="cls-1" transform="translate(-191)"/>
</svg>
