<svg xmlns="http://www.w3.org/2000/svg" width="32" height="38.145" viewBox="0 0 32 38.145">
    <defs>
        <style>
            .cls-1{fill:#cdced9}
        </style>
    </defs>
    <g id="ic_RadEmpty" transform="translate(-8.684 -1.229)">
        <g id="Layer_1" data-name="Layer 1" transform="translate(8.683 1.229)">
            <path id="Subtraction_5" d="M-642.971-3392.855h-.243a4 4 0 0 1-4-4V-3427a4 4 0 0 1 4-4h24a4 4 0 0 1 4 4v30.145a4 4 0 0 1-4 4h-11.81l-.061-.675a19.75 19.75 0 0 1 .059-4.7c.3-1.877.914-2.449 1.376-2.6a6.635 6.635 0 0 0 2.407-1.289c.424-.38.8-.77 1.219-1.2l.027-.028a14.974 14.974 0 0 1 1.667-1.553 4.161 4.161 0 0 0 1.424-1.619 13.959 13.959 0 0 1 1.534-2.162v-.005l.3-.374a18.206 18.206 0 0 1 1.549-1.66l.01-.01.01-.01c.3-.294.609-.6.942-.95a2.215 2.215 0 0 0 .515-.88 1.314 1.314 0 0 0-.325-1.334 2.2 2.2 0 0 0-1.6-.648 4.125 4.125 0 0 0-1.79.481 8.644 8.644 0 0 0-1.372.863 9.186 9.186 0 0 0-1.665 1.779l-.019.024a14 14 0 0 1-.77.933 4.609 4.609 0 0 1-.068-.468 8.833 8.833 0 0 1-.036-.936 24.08 24.08 0 0 1 .379-3.327v-.01c.142-.881.31-1.773.471-2.636l.01-.051c.148-.79.316-1.686.461-2.563.046-.281.1-.577.152-.88l.01-.057a19.815 19.815 0 0 0 .391-3.49 1.681 1.681 0 0 0-.491-1.227 2.035 2.035 0 0 0-1.441-.568h-.026a1.96 1.96 0 0 0-.985.266 1.5 1.5 0 0 0-.695.911c-.384 1.465-.689 2.994-.984 4.474l-.014.068-.022.112a115.894 115.894 0 0 1-.594 2.862l-.019.087-.065.3c.015-.821.062-1.638.108-2.429.029-.51.059-1.031.081-1.556.062-1.492.029-2.829-.011-4.378v-.041c-.013-.485-.027-1.052-.038-1.645a1.557 1.557 0 0 0-.655-1.247 2.083 2.083 0 0 0-1.216-.376h-.01a2.009 2.009 0 0 0-1.127.332 1.59 1.59 0 0 0-.685 1.13c-.094.768-.176 1.6-.252 2.541a30.508 30.508 0 0 0-.056-1.081 2.283 2.283 0 0 0-.615-1.5 1.777 1.777 0 0 0-1.246-.517h-.014a1.918 1.918 0 0 0-1.01.291 1.667 1.667 0 0 0-.688.844 4.064 4.064 0 0 0-.174 1.374v.03c-.013 2.086.041 4.2.169 6.658v-.029c-.082-.319-.166-.648-.252-.972s-.163-.658-.249-1.04a15.329 15.329 0 0 0-.623-2.23 1.568 1.568 0 0 0-1.472-1.016h-.009a1.593 1.593 0 0 0-1.192.537 1.643 1.643 0 0 0-.372 1.319c.214 1.621.473 3.163.772 4.585a29.488 29.488 0 0 1 .492 4.025l.035.459a22.8 22.8 0 0 1-.305 7.25c-.087.424-.189 1-.324 1.775a67.855 67.855 0 0 1-2.572 10.832l-.307.835zm6.375-.616h-.935a20.018 20.018 0 0 1-.591-4.486 4.267 4.267 0 0 1 .381-2.183 1.544 1.544 0 0 1 .525-.517 2.064 2.064 0 0 0 .38-.309.668.668 0 0 0 .161-.594.438.438 0 0 0-.316-.313 1.092 1.092 0 0 1-.762-.675.581.581 0 0 0-.536-.327.688.688 0 0 0-.672.522 32.421 32.421 0 0 0-.694 4.631c-.111 1.345-.134 2.672-.134 4.251h-2.28a68.4 68.4 0 0 0 2.6-10.957c.129-.738.232-1.322.318-1.742a23.31 23.31 0 0 0 .317-7.427l-.036-.465a30.672 30.672 0 0 0-.5-4.1 61.155 61.155 0 0 1-.764-4.536.991.991 0 0 1 .219-.815.959.959 0 0 1 .723-.321.931.931 0 0 1 .883.616 14.8 14.8 0 0 1 .594 2.137c.085.375.165.728.254 1.061s.169.645.25.96l.005.021c.193.752.392 1.528.632 2.278a1.059 1.059 0 0 0 .313.5.152.152 0 0 0 .092.032h.008a.343.343 0 0 0 .329-.281 1.485 1.485 0 0 0 .012-.438v-.066c-.221-3.461-.312-6.182-.3-8.821v-.046a3.42 3.42 0 0 1 .137-1.147 1.16 1.16 0 0 1 1.1-.714c.55 0 1.165.375 1.239 1.428.063.9.076 1.74.088 2.551v.006c.012.8.023 1.562.081 2.351.035.471.059.945.083 1.4v.011c.04.776.081 1.579.172 2.38a.285.285 0 0 0 .271.277c.131 0 .267-.107.277-.346.028-.584.032-1.139.036-1.675v-.005c0-.638.009-1.3.055-2l.067-1.048v-.046c.107-1.715.219-3.489.439-5.282a1.106 1.106 0 0 1 1.191-.907 1.126 1.126 0 0 1 1.237 1c.011.573.025 1.11.038 1.63v.012c.04 1.556.074 2.9.011 4.383-.021.507-.051 1.023-.079 1.522v.015c-.06 1.052-.122 2.139-.114 3.21 0 .466.284.745.553.745.215 0 .394-.171.48-.458.139-.466.22-.844.314-1.282v-.014l.08-.37c.182-.827.356-1.7.525-2.549v-.006c.3-1.506.609-3.061 1-4.536a1.047 1.047 0 0 1 1.09-.7 1.4 1.4 0 0 1 .991.381 1.066 1.066 0 0 1 .306.776 19.2 19.2 0 0 1-.393 3.443v.021c-.05.28-.1.568-.149.862-.142.865-.306 1.739-.464 2.584-.164.872-.333 1.774-.478 2.667a24.774 24.774 0 0 0-.389 3.432 4.526 4.526 0 0 0 .376 2.193.328.328 0 0 0 .243.108.288.288 0 0 0 .2-.076 10.39 10.39 0 0 0 1.216-1.385 8.679 8.679 0 0 1 1.548-1.663 5.3 5.3 0 0 1 2.777-1.214 1.561 1.561 0 0 1 1.152.461c.426.429.074 1.038-.2 1.329-.332.351-.643.657-.945.954a18.621 18.621 0 0 0-1.6 1.713l-.3.369a14.775 14.775 0 0 0-1.6 2.262 3.55 3.55 0 0 1-1.252 1.42 15.717 15.717 0 0 0-1.763 1.647l-.005.005c-.375.389-.764.792-1.183 1.167a6.034 6.034 0 0 1-2.179 1.157c-.916.3-1.525 1.34-1.808 3.1a21.013 21.013 0 0 0-.064 4.855h-1.429l-.083-.382a6.6 6.6 0 0 1-.022-4.126 2.209 2.209 0 0 1 .4-.6 1.924 1.924 0 0 0 .368-.55 1.105 1.105 0 0 0-.044-1.048 1.4 1.4 0 0 0-1.174-.468 3.386 3.386 0 0 1-1.253-.254 2.093 2.093 0 0 0-.718-.17h-.068a1.421 1.421 0 0 0-1.236 1.295 17.571 17.571 0 0 0 .379 6.3zm-.285-11.944a.714.714 0 0 0-.551.269 1.518 1.518 0 0 0-.288 1.163c.061.388.334.558.622.738.047.029.095.059.142.09-.046.936.55 1.108 1.24 1.307a6.431 6.431 0 0 1 .661.218l.136.056a3.4 3.4 0 0 0 1.265.347 1.553 1.553 0 0 0 .929-.318 1.883 1.883 0 0 0 .336-.367c.228-.294.483-.624.877-.624a.756.756 0 0 1 .127.011 1.428 1.428 0 0 0 .243.022.648.648 0 0 0 .481-.167.692.692 0 0 0 .165-.515c-.026-1.6-2.273-2.176-3.352-2.453h-.017a2.855 2.855 0 0 0-.679-.124 1.179 1.179 0 0 0-.6.177 1.844 1.844 0 0 1-.945.247 4.957 4.957 0 0 1-.681-.063.776.776 0 0 0-.111-.015zm10.88-2.6a.532.532 0 0 0-.516.357l-.061.144a3.026 3.026 0 0 1-1.212 1.642 3.232 3.232 0 0 1-1.674.765l-.092.02a.712.712 0 0 0-.607.662 1.442 1.442 0 0 0 .767 1.329.868.868 0 0 0 .331.067 1.192 1.192 0 0 0 .867-.446 4.257 4.257 0 0 0 .4-.555 3.2 3.2 0 0 1 .612-.764c.122-.1.229-.2.324-.286a3.255 3.255 0 0 1 1.559-.92.656.656 0 0 0 .532-.469 1.463 1.463 0 0 0-.5-1.227 1.162 1.162 0 0 0-.729-.318zm-6.4 2.2a.961.961 0 0 0 .626.479 1.5 1.5 0 0 1 .461.248l.111.077a.584.584 0 0 0 .329.1.69.69 0 0 0 .594-.4 1.137 1.137 0 0 0 .074-.814 2.306 2.306 0 0 1-.046-.464 21.26 21.26 0 0 1 2.194-4.964 1.873 1.873 0 0 0 .483-1.376.9.9 0 0 0-.562-.6.943.943 0 0 0-.384-.086.827.827 0 0 0-.8.711 25.416 25.416 0 0 1-1.779 5.053 2.657 2.657 0 0 1-.745.878 3.763 3.763 0 0 0-.229.2 2.713 2.713 0 0 0-.084-.269 2.26 2.26 0 0 1-.124-.454 15.339 15.339 0 0 1 1.351-4.93 1.6 1.6 0 0 0 .228-1.368.982.982 0 0 0-.734-.608.955.955 0 0 0-.236-.03.973.973 0 0 0-.98.9 22.613 22.613 0 0 1-.679 4.939 2.472 2.472 0 0 1-.458.836 1.767 1.767 0 0 1-.056-.133 15.031 15.031 0 0 1 .31-4.677 1.4 1.4 0 0 0-.045-1.21.858.858 0 0 0-.733-.392h-.039a.867.867 0 0 0-.664.316.786.786 0 0 0-.185.638 20.087 20.087 0 0 1 .284 4.344 3.14 3.14 0 0 1-.329 1.035 2.633 2.633 0 0 0-.212.556 1.5 1.5 0 0 1-.127-.177 13.362 13.362 0 0 1-.6-4.423 1.448 1.448 0 0 0-.241-1.126.81.81 0 0 0-.659-.3 1.2 1.2 0 0 0-.184.015.861.861 0 0 0-.615.428.791.791 0 0 0-.067.684 18.057 18.057 0 0 1 .9 4.183 4.8 4.8 0 0 1 0 .887 1.647 1.647 0 0 0 .082.8 1.1 1.1 0 0 0 1.057.549c.407 0 .891-.167.916-.64a1.118 1.118 0 0 0 .206.018h.186a1.5 1.5 0 0 1 .357.055.985.985 0 0 0 .679.334 1.509 1.509 0 0 1 .5.169l.03.014.091.042a.593.593 0 0 0 .246.054.585.585 0 0 0 .31-.09zm9.607-5.442a.5.5 0 0 0-.139.021c-.253.074-.316.251-.388.455l-.036.1a1.774 1.774 0 0 1-1.014 1.178 2.61 2.61 0 0 1-.377.135h-.013c-.068.021-.137.042-.2.065s-.107.035-.158.051a1.267 1.267 0 0 0-.339.139.467.467 0 0 0-.211.409.452.452 0 0 0 .206.386 1.831 1.831 0 0 1 .585.623c.052.077.1.153.159.229a.429.429 0 0 0 .355.182.814.814 0 0 0 .622-.364 1.4 1.4 0 0 0 .186-.5c.064-.3.131-.614.9-1.261.052-.043.118-.09.188-.139h.005c.3-.215.683-.481.5-.849a1.277 1.277 0 0 0-.164-.232 1.264 1.264 0 0 1-.182-.264.549.549 0 0 0-.481-.365zm2.96-1.8a.754.754 0 0 0-.459.167 2.63 2.63 0 0 1-1.734.788.336.336 0 0 0-.3.25.473.473 0 0 0 .127.519.645.645 0 0 1 .189.287.6.6 0 0 0 .235.318.56.56 0 0 0 .308.1.573.573 0 0 0 .521-.437 1.7 1.7 0 0 1 .715-.755c.087-.061.176-.124.254-.187s.12-.089.169-.123a1.009 1.009 0 0 0 .276-.246.458.458 0 0 0 .1-.477.43.43 0 0 0-.397-.208zm-18.234-4.684a.514.514 0 0 0-.377.244.75.75 0 0 0 .006.626l.03.079a5.966 5.966 0 0 1 .365 1.251 2.011 2.011 0 0 1-.049.941 1.146 1.146 0 0 0 0 .78.375.375 0 0 0 .376.259 1.079 1.079 0 0 0 .34-.071.848.848 0 0 1 .292-.042h.187a.406.406 0 0 0 .306-.143.6.6 0 0 0 .128-.474.932.932 0 0 0-.3-.555 1.851 1.851 0 0 1-.226-.281 2.338 2.338 0 0 1-.3-1.471 1.425 1.425 0 0 0-.2-1.011.513.513 0 0 0-.389-.151.993.993 0 0 0-.187.019zm11.017-1.6c-.407 0-.671.309-.707.827a11.536 11.536 0 0 1-.323 2.182 2.043 2.043 0 0 1-.59 1 1.166 1.166 0 0 0-.421.83c-.023.453.45.5.762.527l.1.01a1.494 1.494 0 0 1 .5.169l.119.056a.744.744 0 0 0 .305.071.548.548 0 0 0 .526-.427 1.136 1.136 0 0 0-.064-.814 2.3 2.3 0 0 1-.124-.451 3.771 3.771 0 0 1 .49-2.192 1.654 1.654 0 0 0 .31-1.313.858.858 0 0 0-.63-.445 1 1 0 0 0-.249-.032zm-7.495-1.013h-.113a.614.614 0 0 0-.477.242.9.9 0 0 0-.072.742 13.878 13.878 0 0 1 .363 2.223 2.794 2.794 0 0 1-.2 1.206 1.637 1.637 0 0 0-.117 1.028.464.464 0 0 0 .5.358 1.453 1.453 0 0 0 .329-.046.86.86 0 0 1 .2-.022 2.029 2.029 0 0 1 .254.021l.117.014h.049a.493.493 0 0 0 .352-.155.719.719 0 0 0 .189-.526 1.109 1.109 0 0 0-.29-.7 2.192 2.192 0 0 1-.232-.359 5.629 5.629 0 0 1-.19-2.58 1.648 1.648 0 0 0-.131-1.247.665.665 0 0 0-.526-.201zm3.051 5.523a1.511 1.511 0 0 1 .387.065h.008l.115.029a.515.515 0 0 0 .115.014.656.656 0 0 0 .6-.643 1.168 1.168 0 0 0-.207-.772 2.34 2.34 0 0 1-.194-.408 5.963 5.963 0 0 1 .155-2.73 1.681 1.681 0 0 0 .021-1.345.776.776 0 0 0-.634-.281h-.051a.627.627 0 0 0-.493.2.961.961 0 0 0-.169.758 14.649 14.649 0 0 1 .076 2.379 2.948 2.948 0 0 1-.371 1.235 1.733 1.733 0 0 0-.264 1.064c.044.3.245.451.616.451a2.016 2.016 0 0 0 .207-.012.523.523 0 0 1 .087-.006zm-7.056-5.8a.729.729 0 0 0-.4.129.482.482 0 0 0-.09.562l.051.127a1.178 1.178 0 0 1 .1.879 1.294 1.294 0 0 1-.058.165.664.664 0 0 0-.071.385.37.37 0 0 0 .3.321.815.815 0 0 0 .174.015 1.648 1.648 0 0 0 .681-.146.361.361 0 0 0 .183-.391.612.612 0 0 0-.189-.337 1.123 1.123 0 0 1-.117-.149 1.311 1.311 0 0 1-.165-.945c0-.032.006-.064.008-.1a.514.514 0 0 0-.107-.4.394.394 0 0 0-.296-.121zm12.224-1.986a1.172 1.172 0 0 0-.211.019.571.571 0 0 0-.383.607c0 .057 0 .11.006.16v.017a1.256 1.256 0 0 1-.284 1.029.945.945 0 0 1-.18.167.53.53 0 0 0-.249.336.462.462 0 0 0 .234.514 2.54 2.54 0 0 0 1.071.268.91.91 0 0 0 .1-.005.454.454 0 0 0 .421-.365.537.537 0 0 0-.079-.413.977.977 0 0 1-.088-.222 1.375 1.375 0 0 1 .208-1.1l.078-.15a.559.559 0 0 0 .025-.561.777.777 0 0 0-.665-.307zm-8.441-1.47a.963.963 0 0 0-.436.111.619.619 0 0 0-.2.7l.028.1a1.829 1.829 0 0 1 .023 1.3 1.649 1.649 0 0 1-.1.2.85.85 0 0 0-.146.481.467.467 0 0 0 .33.45 1.527 1.527 0 0 0 .456.057 1.858 1.858 0 0 0 .649-.1.457.457 0 0 0 .288-.468.785.785 0 0 0-.19-.455 1.389 1.389 0 0 1-.127-.206 2.056 2.056 0 0 1-.062-1.413l.007-.036a.644.644 0 0 0-.093-.544.546.546 0 0 0-.423-.183zm-4.421 1.138a.32.32 0 0 0-.316.34 2.719 2.719 0 0 0 .119.815.621.621 0 0 1-.014.5.386.386 0 0 0 .006.361.347.347 0 0 0 .3.129.783.783 0 0 0 .108-.008c.321-.043.513-.13.585-.264a.344.344 0 0 0-.019-.32.491.491 0 0 0-.122-.146.526.526 0 0 1-.169-.235 1.627 1.627 0 0 1-.068-.417 1.873 1.873 0 0 0-.088-.5.341.341 0 0 0-.318-.26zm8.181-2.009a1.071 1.071 0 0 0-.4.082.666.666 0 0 0-.279.74l.02.114a2 2 0 0 1-.1 1.407 1.779 1.779 0 0 1-.124.207.927.927 0 0 0-.2.508.512.512 0 0 0 .314.519 1.99 1.99 0 0 0 .728.116 1.641 1.641 0 0 0 .473-.057.5.5 0 0 0 .356-.48.854.854 0 0 0-.163-.511 1.526 1.526 0 0 1-.118-.236 2.229 2.229 0 0 1 .065-1.526l.014-.048a.685.685 0 0 0-.061-.614.629.629 0 0 0-.517-.226zm5.237-.31a.376.376 0 0 0-.344.254 3.088 3.088 0 0 0-.2.905.7.7 0 0 1-.216.523.42.42 0 0 0-.132.4.467.467 0 0 0 .379.273 1.779 1.779 0 0 0 .389.052.468.468 0 0 0 .357-.119.41.41 0 0 0 .085-.322.557.557 0 0 0-.07-.2.592.592 0 0 1-.085-.316 1.793 1.793 0 0 1 .094-.467 2.114 2.114 0 0 0 .109-.565.408.408 0 0 0-.106-.307.358.358 0 0 0-.255-.115zm-9.263-1.515a.362.362 0 0 0-.357.338 3.1 3.1 0 0 0 .019.924.7.7 0 0 1-.085.562.422.422 0 0 0-.034.42.457.457 0 0 0 .421.176h.014c.366 0 .592-.074.691-.214a.389.389 0 0 0 .023-.361.56.56 0 0 0-.116-.179.594.594 0 0 1-.157-.287 1.787 1.787 0 0 1-.02-.475 2.1 2.1 0 0 0-.029-.575.381.381 0 0 0-.365-.334zm4.089-.865a.366.366 0 0 0-.353.3 3.063 3.063 0 0 0-.073.921.7.7 0 0 1-.141.551.422.422 0 0 0-.074.416.465.465 0 0 0 .412.216c.069.007.139.01.206.01a.636.636 0 0 0 .511-.163.4.4 0 0 0 .052-.348.554.554 0 0 0-.1-.192.582.582 0 0 1-.127-.3 1.788 1.788 0 0 1 .028-.474 2.124 2.124 0 0 0 .029-.574.381.381 0 0 0-.365-.368z" class="cls-1" data-name="Subtraction 5" transform="translate(647.214 3431)"/>
        </g>
    </g>
</svg>
