<svg xmlns="http://www.w3.org/2000/svg" width="167.973" height="136.875" viewBox="0 0 167.973 136.875">
    <defs>
        <style>
            .cls-1{fill:#d6dbff}.cls-2{fill:#edebcc}.cls-3{fill:#d9a72a}.cls-4{fill:#f0c04a}.cls-5{fill:#8fb73a}.cls-6{fill:#ba8d1e}.cls-7{fill:#ffd878}.cls-8{fill:#6a872a}.cls-9{fill:#e6369f}.cls-10{fill:#aed164}.cls-11{fill:#bf2525}.cls-12{fill:#d93d2a}.cls-13{fill:#f04832}.cls-14{fill:#f77261}.cls-15{fill:#d6c48b}.cls-16{fill:#e2d4a7}.cls-17{fill:#ece1c3}.cls-18{fill:#00b2c5}.cls-19{fill:#fffcf5}.cls-20{fill:#a4cc4b}.cls-21{fill:#b4d66d}
        </style>
    </defs>
    <g id="ic_Birthday" transform="translate(0 -.002)">
        <ellipse id="XMLID_770_" cx="35.426" cy="8.825" class="cls-1" rx="35.426" ry="8.825" transform="translate(7.16 107.696)"/>
        <ellipse id="XMLID_767_" cx="40.838" cy="10.574" class="cls-1" rx="40.838" ry="10.574" transform="translate(80.261 104.199)"/>
        <ellipse id="XMLID_766_" cx="40.838" cy="12.572" class="cls-2" rx="40.838" ry="12.572" transform="translate(44.043 95.873)"/>
        <ellipse id="XMLID_763_" cx="28.682" cy="8.825" class="cls-1" rx="28.682" ry="8.825" transform="translate(52.577 118.477)"/>
        <g id="XMLID_619_" transform="translate(37.799 .003)">
            <g id="XMLID_759_" transform="translate(28.141 25.559)">
                <path id="XMLID_760_" d="M199.7 130.3l9.117-68.9L158.4 74.971l10.2 65.94z" class="cls-3" transform="translate(-158.4 -61.4)"/>
            </g>
            <path id="XMLID_756_" d="M169.354 46.34l-49.08 15.777L90.8 43.26l45.833-7.66 6.2 2.04 8.326 2.748z" class="cls-4" transform="translate(-90.8 -20.781)"/>
            <path id="XMLID_753_" d="M199.26 125.047c1.707-22.1 1.124-45.958.208-68.23.208.042.416.125.624.167a63.7 63.7 0 0 0-15.4-8.784L173.2 52.738a71.338 71.338 0 0 1 16.693 9.117c-.208-.042-.416-.125-.624-.167.874 22.23 1.5 46.083-.208 68.23z" class="cls-5" transform="translate(-138.898 -28.136)"/>
            <path id="XMLID_750_" d="M194.24 43.306c-3.414.749-6.952 1.249-10.366 1.957a60.292 60.292 0 0 0-7.243 1.457c-3.955 1.249-7.993-.042-12.031-.333a70.128 70.128 0 0 1 21.314-5.787z" class="cls-5" transform="translate(-133.878 -23.7)"/>
            <path id="XMLID_747_" d="M90.8 54l13.987 68.813 24.353 13.779-10.2-65.94z" class="cls-6" transform="translate(-90.8 -31.522)"/>
            <path id="XMLID_744_" d="M99.249 59.177c2.123.624 3.913 2.581 5.911 3.788 2.956 1.748 6.078 3 9.075 4.538 2.331 1.207 4.662 2.414 6.994 3.7a7.562 7.562 0 0 1 2.956 2.04c14.362-3.414 28.641-8.492 43.044-11.115.167-.042.208.375.042.458-7.077 4.038-14.612 5.828-22.022 7.826-6.786 1.832-13.613 3.5-20.4 5.5.5 3.372.749 6.91 1.249 10.324.624 4.371 1.207 8.7 1.832 13.071 1.166 8.284 2.331 16.61 3.039 24.977.042.416-.375.458-.458.083-1.707-8.534-2.914-17.359-4.121-26.06l-1.748-12.239a77.549 77.549 0 0 1-1.082-9.908c-.541-.167-.833-1.041-.749-1.748-3.622-2.5-7.66-4.163-11.365-6.2-2.248-1.249-4.371-2.748-6.619-4.038-2-1.166-4.08-1.957-5.995-3.538-.541-.502-.166-1.626.417-1.459z" class="cls-7" transform="translate(-95.336 -34.533)"/>
            <path id="XMLID_741_" d="M138.314 54.2c-4.288.957-7.785 3.414-12.072 4.371a45.8 45.8 0 0 0-10.865 3.913c.125-.042-3.164-1.415-3.039-1.5-2.373-.957-2.165-2-4.538-2.956 6.744-1.665 14.071-4.121 20.939-5.2a17.889 17.889 0 0 1 5.162-.333 6.334 6.334 0 0 1 4.454 2.373c-.167-.125-.375-.25-.541-.375" class="cls-8" transform="translate(-100.723 -30.597)"/>
            <path id="XMLID_738_" d="M115.176 111.337c1.54 7.7 2.664 14.9 4.246 22.6l7.993 5.37c-.624-.458-1.207-6.494-1.415-7.66-.541-2.872-1.041-5.745-1.582-8.617-1.041-5.745-2.081-11.448-3.122-17.193-1-5.578-2.04-11.157-3.039-16.735-.541-2.872-1.041-5.745-1.582-8.617-.375-1.957-.541-5.786-1.415-7.327-1.707-3.081-5.328-2.831-7.66-4.163a97.112 97.112 0 0 1 1.457 9.866c.5 3.5 1.207 6.91 1.79 10.324 1.332 7.498 2.914 14.867 4.329 22.152z" class="cls-8" transform="translate(-100.606 -40.277)"/>
            <path id="XMLID_737_" d="M208.94 12.7c-.5 3.33-1.041 6.661-1.54 9.991" class="cls-9" transform="translate(-158.861 -7.414)"/>
            <path id="XMLID_734_" d="M182.887 1.542a12.427 12.427 0 0 0-1.54 3.58 98.493 98.493 0 0 0-3.747 18.691 2.058 2.058 0 0 0 2.456-.5 6.193 6.193 0 0 0 1.249-2.373 2289.652 2289.652 0 0 0 6.452-18.025c1.249-3.496-3.205-3.704-4.87-1.373z" class="cls-8" transform="translate(-141.466 -.003)"/>
            <path id="XMLID_731_" d="M196.47 7.96c.458-2.04.083-5.453-2-6.661a13.46 13.46 0 0 0-3.5-.874c-.661-.125-3.783.166-4.116-.125 3.622 3.289 1.332 9.033.083 12.9s-3.5 7.16-5.037 10.865c2.539 1.041 7.41-3.913 8.909-5.537A22.078 22.078 0 0 0 196.47 7.96z" class="cls-5" transform="translate(-143.976 -.176)"/>
            <path id="XMLID_728_" d="M143.771 17.294c-.541-1.957 1.415-2.581 2.956-2.29a13.36 13.36 0 0 1 6.827 4.2 28.44 28.44 0 0 1 5.037 8.159c.708 1.624 1.29 3.58.375 5.079-2.623-1.124-4.288-3.622-5.786-6.036s-3.081-4.954-5.578-6.286c-.749-.375-1.54-.624-2.248-1.041a3.328 3.328 0 0 1-1.583-1.785z" class="cls-8" transform="translate(-121.666 -8.72)"/>
            <path id="XMLID_725_" d="M133.281 20.406c3.414 5.662 11.989 13.238 19.149 11.365-1.5-2.29-4.538-3.414-6.536-5.287-2.5-2.331-5.453-5.162-6.244-8.576a3.846 3.846 0 0 1 .749-3.414 13.4 13.4 0 0 0-5.412.957 3.609 3.609 0 0 0-2.456 2.248 3.957 3.957 0 0 0 .75 2.707z" class="cls-5" transform="translate(-115.131 -8.46)"/>
            <path id="XMLID_722_" d="M161.359 52.6c1.29.167 2.581.541 3.871.791 1.415.291 2.872.458 4.288.666.333.042.25.583-.083.541a24.947 24.947 0 0 1-8.2-1.582c-.209-.041-.125-.416.124-.416z" class="cls-8" transform="translate(-131.845 -30.704)"/>
            <path id="XMLID_719_" d="M190.42 108.553l-2.081-.708-1.915 1.124.042-2.206-1.665-1.5 2.123-.624.874-2.04 1.249 1.79 2.206.208-1.29 1.79z" class="cls-7" transform="translate(-145.669 -59.89)"/>
            <path id="XMLID_716_" d="M207.062 153.653l-2.081-.708-1.915 1.124v-2.206l-1.665-1.5 2.123-.666.874-2 1.29 1.79 2.206.208-1.332 1.79z" class="cls-7" transform="translate(-155.358 -86.215)"/>
            <path id="XMLID_713_" d="M201.762 219.453l-2.081-.708-1.915 1.124v-2.206l-1.665-1.457 2.123-.666.874-2.04 1.29 1.832 2.206.167-1.332 1.79z" class="cls-7" transform="translate(-152.265 -124.623)"/>
            <path id="XMLID_710_" d="M184.162 172.853l-2.123-.708-1.873 1.124v-2.206l-1.665-1.457 2.123-.666.874-2.04 1.29 1.79 2.206.208-1.332 1.79z" class="cls-7" transform="translate(-141.991 -97.422)"/>
            <path id="XMLID_707_" d="M145.738 102.944l-1.582-1-1.582.874.25-2.165-1.124-1.663 1.707-.416.916-1.873.833 1.957 1.665.458-1.207 1.624z" class="cls-3" transform="translate(-120.511 -56.446)"/>
            <path id="XMLID_704_" d="M126.838 198.144l-1.54-.957-1.624.874.291-2.206-1.165-1.665 1.748-.375.916-1.915.791 1.957 1.707.5-1.249 1.582z" class="cls-3" transform="translate(-109.479 -112.015)"/>
            <path id="XMLID_701_" d="M149.938 162.644l-1.54-.957-1.624.874.25-2.206-1.124-1.665 1.748-.375.916-1.915.791 1.957 1.707.5-1.249 1.582z" class="cls-3" transform="translate(-122.962 -91.294)"/>
            <path id="XMLID_698_" d="M116.538 138.244l-1.582-.957-1.624.874.291-2.206-1.123-1.665 1.707-.375.916-1.915.791 1.957 1.707.5-1.207 1.582z" class="cls-3" transform="translate(-103.467 -77.051)"/>
            <path id="XMLID_695_" d="M153.39 135.848l-.708-.416-.708.375.125-.957-.5-.708.791-.208.375-.833.375.874.749.208-.541.708z" class="cls-3" transform="translate(-126.29 -77.693)"/>
            <path id="XMLID_692_" d="M145.348 143.648l-.666-.416-.708.375.125-.957-.5-.708.749-.208.416-.833.333.874.749.208-.541.708z" class="cls-3" transform="translate(-121.62 -82.246)"/>
            <path id="XMLID_689_" d="M161.69 204.448l-.666-.416-.708.375.083-.957-.5-.708.791-.167.375-.874.375.874.749.208-.541.708z" class="cls-3" transform="translate(-131.134 -117.736)"/>
            <path id="XMLID_686_" d="M161.69 182.448l-.666-.416-.708.375.083-.957-.5-.749.791-.167.375-.833.375.874.749.208-.541.708z" class="cls-3" transform="translate(-131.134 -104.894)"/>
            <path id="XMLID_683_" d="M119.548 164.148l-.666-.416-.708.375.125-.957-.5-.749.749-.167.416-.833.333.874.749.208-.541.708z" class="cls-3" transform="translate(-106.56 -94.212)"/>
            <path id="XMLID_680_" d="M105.448 85.748l-.666-.416-.708.375.125-.957-.499-.75.749-.167.416-.833.333.874.749.208-.541.708z" class="cls-3" transform="translate(-98.33 -48.449)"/>
            <path id="XMLID_677_" d="M138.59 117.348l-.666-.416-.749.375.125-.957-.5-.749.791-.167.375-.833.375.833.749.25-.541.708z" class="cls-3" transform="translate(-117.651 -66.894)"/>
            <path id="XMLID_674_" d="M106.89 109.648l-.708-.416-.708.375.125-.957-.5-.749.749-.167.416-.833.333.874.749.208-.541.708z" class="cls-3" transform="translate(-99.147 -62.4)"/>
            <path id="XMLID_671_" d="M170.67 76.83l-2.123.083-1.665 1.29-.291-1.5-1.79-.583 1.957-1 .583-1.624 1.457.874 2.165-.416-1.043 1.546z" class="cls-7" transform="translate(-133.995 -42.904)"/>
            <path id="XMLID_668_" d="M229.655 52.148l-1.415.042-1.124.874-.208-1-1.208-.374 1.332-.708.375-1.082 1 .624 1.415-.333-.708 1.041z" class="cls-7" transform="translate(-169.543 -29.128)"/>
            <path id="XMLID_665_" d="M123.055 53.506l-1.415.083-1.124.833-.208-1-1.207-.375 1.332-.666.375-1.082 1 .583 1.415-.291-.666 1.041z" class="cls-7" transform="translate(-107.319 -29.946)"/>
            <path id="XMLID_662_" d="M248.231 60.032l-.833.042-.666.5-.125-.624-.708-.208.791-.416.208-.624.583.333.874-.167-.416.624z" class="cls-7" transform="translate(-181.334 -34.265)"/>
            <path id="XMLID_659_" d="M172.131 63.532l-.833.042-.666.5-.125-.624-.708-.208.791-.416.208-.624.583.333.874-.167-.416.624z" class="cls-7" transform="translate(-136.913 -36.308)"/>
            <path id="XMLID_656_" d="M243.662 108.553l-2.123-.708-1.915 1.124.042-2.206-1.665-1.5 2.123-.624.876-2.039 1.29 1.79 2.206.208-1.332 1.79z" class="cls-7" transform="translate(-176.722 -59.89)"/>
            <path id="XMLID_653_" d="M253.62 153.653l-2.081-.708-1.915 1.124v-2.206l-1.624-1.5 2.081-.666.874-2 1.29 1.79 2.206.208-1.29 1.79z" class="cls-7" transform="translate(-182.559 -86.215)"/>
            <path id="XMLID_650_" d="M243.52 190.153l-2.081-.666-1.915 1.124.042-2.248-1.665-1.457 2.123-.666.874-2.04 1.249 1.832 2.206.208-1.29 1.79z" class="cls-7" transform="translate(-176.664 -107.521)"/>
            <path id="XMLID_647_" d="M245 85.681l-.749-.25-.666.416v-.791l-.583-.5.749-.25.333-.708.458.624.749.083-.458.624z" class="cls-7" transform="translate(-179.641 -48.799)"/>
            <path id="XMLID_644_" d="M198.9 191.723l-.749-.25-.666.416v-.789l-.583-.541.749-.208.333-.749.458.666.749.083-.458.624z" class="cls-7" transform="translate(-152.732 -110.673)"/>
            <path id="XMLID_641_" d="M264.3 119.481l-.749-.25-.666.416v-.791l-.583-.5.749-.25.333-.708.458.624.749.083-.458.624z" class="cls-7" transform="translate(-190.906 -68.529)"/>
            <path id="XMLID_638_" d="M261.6 88.423l-.749-.25-.666.375v-.791l-.583-.5.749-.25.291-.708.458.624.791.083-.458.624z" class="cls-7" transform="translate(-189.33 -50.375)"/>
            <path id="XMLID_635_" d="M247.8 135.823l-.749-.25-.666.416v-.789l-.583-.541.749-.208.291-.749.458.666.791.042-.458.666z" class="cls-7" transform="translate(-181.275 -78.043)"/>
            <path id="XMLID_632_" d="M249.5 209.623l-.749-.25-.666.375V209l-.583-.541.749-.25.333-.708.458.624.749.083-.458.624z" class="cls-7" transform="translate(-182.268 -121.121)"/>
            <path id="XMLID_629_" d="M190.9 133.423l-.749-.25-.666.375v-.748l-.583-.541.749-.25.291-.708.458.666.791.042-.458.624z" class="cls-7" transform="translate(-148.062 -76.642)"/>
            <path id="XMLID_626_" d="M179.64 128.323l-.749-.25-.708.375.042-.791-.624-.5.749-.25.333-.708.458.624.791.083-.5.624z" class="cls-7" transform="translate(-141.466 -73.665)"/>
            <path id="XMLID_625_" d="M115.044 68.338c-1.207-.624-2.456-1.207-3.7-1.79a11.977 11.977 0 0 0-3.455-1.457c-.666-.083-1.29.666-.708 1.207a13.077 13.077 0 0 0 3.247 1.832c1.207.624 2.456 1.207 3.663 1.79 1.078.58 2.035-1.041.953-1.582z" class="cls-5" transform="translate(-100.224 -37.992)"/>
            <path id="XMLID_622_" d="M220.671 71.6c-2.414.708-4.871 1.374-7.285 2.165-3.372 1.082-4 .916-2.581 4.246a44.031 44.031 0 0 1 10.907-3.33c.333-.081 1.041-3.707-1.041-3.081z" class="cls-10" transform="translate(-160.434 -41.752)"/>
            <path id="XMLID_621_" d="M197.024 21.973a.508.508 0 0 0-.749-.291c-1 .749-1.207 1.873-1.748 2.956a25.388 25.388 0 0 1-2.664 4.288 28.252 28.252 0 0 1-3.205 3.5 43.3 43.3 0 0 0-3.622 3.122.452.452 0 0 0 .416.749c3.039-.791 5.745-3.871 7.618-6.244a26.752 26.752 0 0 0 2.623-3.913c.707-1.294 1.664-2.751 1.331-4.167z" class="cls-10" transform="translate(-145.737 -12.608)"/>
            <path id="XMLID_620_" d="M208.766 12.7a.685.685 0 0 0-.666.666v.125c.042.333.25.666.624.624a.64.64 0 0 0 .624-.624v-.125a.571.571 0 0 0-.582-.666z" class="cls-10" transform="translate(-159.269 -7.414)"/>
        </g>
        <g id="XMLID_557_" transform="translate(78.595 34.256)">
            <path id="XMLID_616_" d="M246.732 156.716l-2.832 12.031-.541 2.373-3.871 16.48-.541 2.248-3.747 15.99-13.03-2.914-1.748-.375-12.155-2.749-1.707-.375-6.536-1.457-1.54-7.743-.291-1.332-2.123-10.49-.25-1.332-1.707-8.492-.208-1-1.166-5.828-.291-1.415-1.332-6.744-.25-1.29-1.166-5.7 7.077 1.249 1.79.333 7.077 1.249 1.915.333 7.91 1.415 1.665.291 10.907 1.957 2.04.375 12.2 2.165 1.582.291z" class="cls-11" transform="translate(-189.325 -119.827)"/>
            <path id="XMLID_615_" d="M200.243 149.991c-1.624 1.082-3.289 2.123-4.871 3.33-.916.666-1.748 1.415-2.623 2.123l-.25-1.29a38.242 38.242 0 0 1 5.953-4.454z" class="cls-12" transform="translate(-190.96 -121.636)"/>
            <path id="XMLID_614_" d="M211.553 153.733c-2.081 1.582-4.2 3.081-6.244 4.746-2.914 2.373-5.745 4.871-8.617 7.243l-.291-1.415c2.664-2.456 5.5-4.746 8.326-6.994 1.624-1.29 3.247-2.623 4.871-3.913z" class="cls-12" transform="translate(-193.236 -123.796)"/>
            <path id="XMLID_613_" d="M223.071 157.95c-.666.5-1.332.957-2 1.457l-7.618 5.745c-4.454 3.33-8.909 6.661-13.446 9.908l-.208-1c4.08-3.205 8.243-6.328 12.364-9.45a837.475 837.475 0 0 1 7.618-5.7c.541-.416 1.082-.791 1.624-1.207z" class="cls-12" transform="translate(-195.221 -126.306)"/>
            <path id="XMLID_612_" d="M238.761 163.333c-1.79 1.124-3.58 2.206-5.287 3.372a692.549 692.549 0 0 0-11.281 7.993c-5.911 4.288-11.7 8.742-17.443 13.28l-.25-1.332q7.868-6.369 16.11-12.364c3.83-2.789 7.66-5.537 11.573-8.2a300.63 300.63 0 0 1 4.538-3.081z" class="cls-12" transform="translate(-197.964 -129.4)"/>
            <path id="XMLID_611_" d="M255.809 169.291c-3.122 2.456-6.619 4.454-9.908 6.661a421.65 421.65 0 0 0-10.449 7.285c-5.911 4.288-17.318 13.7-25.061 20.065l-.291-1.332c7.452-6.369 18.15-15.236 23.687-19.316a329.923 329.923 0 0 1 11.032-7.743 95.044 95.044 0 0 1 9.324-5.911z" class="cls-12" transform="translate(-201.233 -132.902)"/>
            <path id="XMLID_610_" d="M267.7 199.9l-.541 2.373c-1.54 1.249-3.081 2.5-4.579 3.747-3.205 2.623-6.411 5.2-9.616 7.826-5 4.038-13.987 11.739-20.856 17.109l-1.707-.375c6.786-5.87 16.818-13.9 22.188-18.233 3.33-2.706 6.619-5.37 9.949-8.076 1.623-1.332 3.33-2.997 5.162-4.371z" class="cls-12" transform="translate(-213.082 -150.939)"/>
            <path id="XMLID_609_" d="M282.508 245.2l-.541 2.248c-.624.458-1.29.916-1.873 1.415a310.504 310.504 0 0 1-5.828 4.579c-3 2.331-5.995 4.871-9.117 7.119l-1.748-.375c3.33-2.914 6.994-5.5 10.491-8.243 1.873-1.457 3.788-2.914 5.662-4.371 1.039-.79 1.996-1.623 2.954-2.372z" class="cls-12" transform="translate(-232.345 -177.381)"/>
            <path id="XMLID_606_" d="M278.177 126.8l-32.429 12.4-16.36-2.914-4.038-.708-7.119-1.249-3.788-.666-9.158-1.624-1.748-.291-5.162-.916-1.957-.333-7.618-1.369 15.694-5.245 7.285-2.414 14.612-4.871 7.576 1.5 4.038.791 7.826 1.54 4.7.916 7.243 1.415 4.829.957z" class="cls-13" transform="translate(-188.8 -102.315)"/>
            <path id="XMLID_605_" d="M323.145 163.588c-3.913.624-7.868.749-11.739 1.29-.583.083-.375.916.125.957a57.427 57.427 0 0 0 11.948-1c.831-.123.498-1.372-.334-1.247z" class="cls-14" transform="translate(-260.16 -129.738)"/>
            <path id="XMLID_604_" d="M311.052 154.76c-5.745.583-11.531 1.166-17.276 1.79-2.872.291-5.745.583-8.659.874-1.5.125-3.039.333-4.579.5l-4.038-.708a67.846 67.846 0 0 1 8.2-1c2.872-.291 5.786-.583 8.659-.874 5.911-.583 11.823-1.166 17.692-1.748.792-.083.749 1.082.001 1.166z" class="cls-14" transform="translate(-239.991 -123.907)"/>
            <path id="XMLID_603_" d="M308.639 140.952c-9.575 1.54-19.274 2.414-28.849 3.58-4.912.624-9.824 1.207-14.737 1.79-3.58.416-7.243 1.041-10.865 1.332l-3.788-.666c4.621-1.166 9.533-1.5 14.279-2.081 4.787-.583 9.575-1.207 14.32-1.79 9.824-1.207 19.649-2.748 29.473-3.622.791-.083.999 1.332.167 1.457z" class="cls-14" transform="translate(-224.757 -115.677)"/>
            <path id="XMLID_602_" d="M283.171 132.416c-9.783.791-19.566 1.873-29.265 3.33-9.408 1.415-18.691 3.372-28.058 5l-1.748-.291a.437.437 0 0 1 .375-.458 259.075 259.075 0 0 1 29.89-5.662q11.927-1.748 23.978-2.831z" class="cls-14" transform="translate(-209.405 -111.013)"/>
            <path id="XMLID_601_" d="M261.018 126.833c-4.288.833-8.7 1.207-12.988 1.873-4.579.708-9.117 1.5-13.7 2.331-4.662.874-9.367 1.79-14.029 2.789-3.788.791-7.618 1.915-11.448 2.5l-1.957-.333c.042-.208.125-.416.333-.458 4.413-1.624 9.283-2.373 13.862-3.33a522.85 522.85 0 0 1 13.613-2.664c4.662-.874 9.366-1.624 14.071-2.373 2.456-.375 4.954-.833 7.452-1.166z" class="cls-14" transform="translate(-199.365 -107.802)"/>
            <path id="XMLID_600_" d="M259.811 120.891c-5.953.957-11.906 1.915-17.9 2.789-3.122.458-6.2.916-9.325 1.332-2.04.291-4.163.749-6.286.874l7.285-2.414c2.789-.375 5.537-.791 8.326-1.207 4.621-.708 9.242-1.415 13.862-2.165z" class="cls-14" transform="translate(-210.689 -104.358)"/>
            <path id="XMLID_597_" d="M284.679 144.982c-2.414.458-4.413 1.915-6.661 2.831-3.33 1.332-6.869 2.248-10.241 3.372q-3.934 1.311-7.868 2.748a9.72 9.72 0 0 0-3.33 1.5c-16.235-2.539-32.346-6.328-48.706-8.284-.208-.042-.208.291-.042.333 7.993 3.039 16.527 4.329 24.936 5.828 7.66 1.374 15.4 2.623 23.062 4.08-.583 2.539-.874 5.162-1.415 7.7-.666 3.247-1.374 6.494-2.081 9.741-1.29 6.161-2.623 12.364-3.455 18.608-.042.291.416.333.5.083 1.915-6.369 3.289-12.9 4.662-19.441.666-3.039 1.332-6.078 1.957-9.117a39.89 39.89 0 0 0 1.207-7.41 1.173 1.173 0 0 0 .833-1.29c4.121-1.832 8.659-3.081 12.863-4.621 2.539-.916 4.954-2.081 7.452-3.039a55.14 55.14 0 0 0 6.744-2.623c.623-.291.204-1.124-.417-.999z" class="cls-14" transform="translate(-199.839 -118.875)"/>
            <path id="XMLID_594_" d="M237.462 194.581c-1.957-16.485-1.249-34.8-.25-51.37-.25.042-.458.083-.708.125a86.256 86.256 0 0 1 17.443-6.536l11.531 3.622a87.2 87.2 0 0 0-17.443 6.536c.25-.042.458-.083.708-.125-1 16.568-1.707 33.844.25 50.329z" class="cls-15" transform="translate(-216.481 -114.106)"/>
            <path id="XMLID_591_" d="M266.29 134.236c-4.538.333-9.117 1.79-13.571.375a77.314 77.314 0 0 0-8.2-1.665c-5.412-1.082-11.032-1.832-16.319-3.33 3.039-2.04 8.076-2.456 11.614-2.206a79.2 79.2 0 0 1 26.476 6.826z" class="cls-16" transform="translate(-211.798 -108.587)"/>
            <path id="XMLID_588_" d="M342.436 141.1l-.416 1.374-.458 1.5-4.579 14.778-.541 1.748-4.542 14.736-.708 2.29-4.579 14.862L306.135 200l-1.957.749-5.079 1.915 11.49-49.164z" class="cls-12" transform="translate(-253.183 -116.616)"/>
            <path id="XMLID_587_" d="M354.2 144.4l-.458 1.5c-2.165 1.832-4.7 3.33-6.994 4.954-2.914 2.04-5.786 4.08-8.7 6.119-5.748 4.037-11.367 8.616-17.528 12.027-.333.208-.749-.291-.458-.583 5.12-4.454 11.157-8.076 16.693-11.989 2.914-2.04 5.786-4.08 8.7-6.119 2.831-1.996 5.621-4.409 8.745-5.909z" class="cls-13" transform="translate(-265.362 -118.543)"/>
            <path id="XMLID_586_" d="M343.592 183.5l-.541 1.707c-4.871 3.289-9.616 6.7-14.32 10.2-6.036 4.538-11.656 9.616-17.692 14.154-.375.291-.833-.333-.5-.666 5.245-5.245 11.406-9.783 17.276-14.237 5.161-3.831 10.407-7.578 15.777-11.158z" class="cls-13" transform="translate(-259.793 -141.366)"/>
            <path id="XMLID_585_" d="M339.083 223.1l-.708 2.29c-.666.5-1.415 1-2.04 1.54-1.207.957-2.373 1.915-3.538 2.872-2.331 1.957-4.662 3.913-6.91 5.953-4.329 3.871-8.284 8.2-12.53 12.114l-1.957.749a.459.459 0 0 1 .125-.375c4-5.162 9.158-9.616 13.987-13.987 2.456-2.206 4.954-4.329 7.493-6.452 1.874-1.499 3.872-3.538 6.078-4.704z" class="cls-13" transform="translate(-260.363 -164.481)"/>
            <path id="XMLID_582_" d="M300.983 143.55c4.871 1.082 9.7 2.165 14.57 3.247 4.08.916 8.409.583 12.072 2.5-.167-.042-.291-.083-.458-.125a639.299 639.299 0 0 1 8.034-3.205c-7.618-1.915-15.652-2.664-23.437-3.913a21.049 21.049 0 0 0-5.828-.375 7.284 7.284 0 0 0-5.037 2.664c.208-.167.416-.291.624-.458" class="cls-17" transform="translate(-254.234 -116.902)"/>
            <path id="XMLID_579_" d="M344.216 184.03c-1.79 5.745-3.039 11.406-4.829 17.151-3.122 1.374-9.158 3.455-8.992 3.372.708-.333 1.332-4.5 1.582-5.328.583-2.123 1.166-4.288 1.79-6.411 1.166-4.288 2.373-8.534 3.538-12.822 1.166-4.163 2.29-8.326 3.455-12.447.583-2.123 1.166-4.288 1.79-6.411.416-1.457.624-4.288 1.582-5.453 1.915-2.29 6.036-2.123 8.659-3.081-.957 2.581-1.041 4.746-1.624 7.368-.583 2.581-1.374 5.12-2.04 7.7-1.539 5.413-3.287 10.867-4.911 16.362z" class="cls-17" transform="translate(-271.449 -123.329)"/>
            <path id="XMLID_578_" d="M267.2 96.7c.583 3.747 1.166 7.535 1.748 11.281" class="cls-18" transform="translate(-234.563 -90.7)"/>
            <path id="XMLID_575_" d="M282.632 84.04a13.975 13.975 0 0 1 1.748 4.038 114 114 0 0 1 4.246 21.147 2.375 2.375 0 0 1-2.789-.541 6.855 6.855 0 0 1-1.415-2.664c-2.414-6.786-4.871-13.613-7.285-20.4-1.457-3.994 3.621-4.244 5.495-1.58z" class="cls-15" transform="translate(-240.212 -82.286)"/>
            <path id="XMLID_572_" d="M260.329 91.2c-.5-2.331-.125-6.161 2.248-7.535a15.315 15.315 0 0 1 3.955-1c.749-.167 4.288.167 4.662-.167-4.121 3.7-1.5 10.2-.083 14.57s3.913 8.118 5.662 12.281c-2.872 1.166-8.367-4.413-10.074-6.244a24.823 24.823 0 0 1-6.37-11.905z" class="cls-17" transform="translate(-230.44 -82.411)"/>
            <path id="XMLID_569_" d="M318.287 101.771c.624-2.206-1.582-2.914-3.372-2.581-2.956.541-5.7 2.581-7.7 4.746a31.925 31.925 0 0 0-5.662 9.242c-.791 1.832-1.457 4.038-.458 5.745 2.956-1.249 4.871-4.121 6.536-6.869 1.707-2.748 3.455-5.62 6.328-7.077.833-.416 1.748-.708 2.539-1.166a3.6 3.6 0 0 0 1.789-2.04z" class="cls-15" transform="translate(-254.053 -92.108)"/>
            <path id="XMLID_566_" d="M323.447 105.5c-3.83 6.411-13.571 14.945-21.647 12.863 1.707-2.581 5.162-3.871 7.41-5.953 2.831-2.623 6.161-5.828 7.035-9.7a4.2 4.2 0 0 0-.874-3.83 15.292 15.292 0 0 1 6.119 1.041c1.207.5 2.5 1.249 2.789 2.539a4.162 4.162 0 0 1-.832 3.04z" class="cls-17" transform="translate(-254.759 -91.968)"/>
            <path id="XMLID_563_" d="M309.7 141.8c-1.457.167-2.914.624-4.371.916-1.624.333-3.247.541-4.871.749-.375.042-.291.666.083.624 3-.208 6.494-.541 9.283-1.79.293-.086.169-.544-.124-.499z" class="cls-16" transform="translate(-253.835 -117.021)"/>
            <path id="XMLID_562_" d="M249.681 155.609a21 21 0 0 0-5.037-1.374c-1.915-.458-3.83-.957-5.745-1.249a.626.626 0 0 0-.333 1.207c1.832.624 3.788 1 5.7 1.457a21.852 21.852 0 0 0 5.162 1.041c.503-.042.752-.833.253-1.082z" class="cls-17" transform="translate(-217.585 -123.548)"/>
            <path id="XMLID_561_" d="M369.918 151c-1.374 0-2.539 1.041-3.83 1.5-1.415.5-2.914.708-4.329 1.249a.471.471 0 0 0 .125.916 17.033 17.033 0 0 0 4.538-1c.708-.208 1.415-.541 2.123-.749.916-.25 1.207-.125 1.832-.833.29-.459.123-1.083-.459-1.083z" class="cls-19" transform="translate(-289.574 -122.395)"/>
            <path id="XMLID_560_" d="M334.668 114.614a26.965 26.965 0 0 1-6.577 7.785c-.416.375.125.916.541.708a15.623 15.623 0 0 0 7.243-7.826c.333-.751-.75-1.458-1.207-.667z" class="cls-19" transform="translate(-270.018 -100.953)"/>
            <path id="XMLID_559_" d="M345.674 106.7a.874.874 0 1 0 .874.874.908.908 0 0 0-.874-.874z" class="cls-19" transform="translate(-279.859 -96.537)"/>
            <path id="XMLID_558_" d="M278.265 99.008c-.375-1.873-1.582-3.538-2.04-5.453a23.082 23.082 0 0 1-.291-6.328c.042-.5-.708-.541-.833-.125a13.551 13.551 0 0 0-.208 6.452c.375 1.873 1.041 4.621 2.623 5.87a.442.442 0 0 0 .749-.416z" class="cls-19" transform="translate(-238.884 -84.931)"/>
        </g>
        <g id="XMLID_441_" transform="translate(0 47.456)">
            <path id="XMLID_554_" d="M109.1 216.317l9.117-45.417-50.417 8.95L78 223.311z" class="cls-5" transform="translate(-39.576 -147.211)"/>
            <path id="XMLID_551_" d="M79.095 155.315L45.833 144.2 0 153.275l28.682 10.99z" class="cls-20" transform="translate(0 -131.626)"/>
            <path id="XMLID_548_" d="M110.469 212.862c1.707-14.57 1.124-30.306.208-44.959a3.212 3.212 0 0 0 .624.083A78.037 78.037 0 0 0 95.9 162.2l-10.2 3.205a78.038 78.038 0 0 1 15.4 5.786 3.214 3.214 0 0 0-.624-.083c.874 14.653 1.5 30.389-.208 44.959z" class="cls-12" transform="translate(-50.024 -142.133)"/>
            <path id="XMLID_545_" d="M74.1 159.922c4 .291 8.076 1.582 12.031.333a60.292 60.292 0 0 1 7.243-1.457c4.787-.957 9.741-1.624 14.445-2.914-2.706-1.79-7.16-2.165-10.282-1.957a70.018 70.018 0 0 0-23.437 5.995z" class="cls-13" transform="translate(-43.253 -137.274)"/>
            <path id="XMLID_542_" d="M.2 166l14.029 45.334 24.311 9.117-10.2-43.461z" class="cls-8" transform="translate(-.117 -144.351)"/>
            <path id="XMLID_539_" d="M8.688 169.391c2.123.416 3.913 1.707 5.911 2.5 2.956 1.166 6.078 2 9.075 3 2.331.791 4.662 1.582 6.994 2.414a8.347 8.347 0 0 1 2.956 1.332c14.362-2.248 28.641-5.62 43.044-7.327.167-.042.208.25.042.291-7.077 2.664-14.612 3.83-22.022 5.162-6.786 1.207-13.613 2.29-20.4 3.622.5 2.248.749 4.538 1.249 6.786.624 2.872 1.207 5.745 1.832 8.617 1.166 5.453 2.331 10.948 3.039 16.443.042.25-.375.291-.458.042-1.707-5.62-2.914-11.448-4.121-17.193-.583-2.706-1.166-5.37-1.748-8.076a34.558 34.558 0 0 1-1.081-6.54 1.016 1.016 0 0 1-.749-1.166c-3.622-1.624-7.66-2.747-11.365-4.08-2.248-.791-4.371-1.832-6.619-2.664a45.752 45.752 0 0 1-5.995-2.331c-.5-.166-.126-.915.416-.832z" class="cls-21" transform="translate(-4.691 -146.326)"/>
            <path id="XMLID_536_" d="M48.064 168.157L35.2 171.03c-3.58.791-7.452.5-10.7 2.206a1.586 1.586 0 0 0 .416-.125c-2.373-.957-4.746-1.915-7.119-2.831 6.744-1.665 13.862-2.373 20.731-3.455a17.89 17.89 0 0 1 5.162-.333 6.334 6.334 0 0 1 4.454 2.373c-.167-.125-.375-.25-.541-.375" class="cls-13" transform="translate(-10.39 -144.593)"/>
            <path id="XMLID_533_" d="M24.676 203.85c1.54 5.079 2.664 9.824 4.246 14.9 2.664 1.166 5.329 2.373 7.993 3.538-.624-.288-1.207-4.288-1.415-5.034-.541-1.873-1.041-3.788-1.582-5.662-1.041-3.788-2.081-7.576-3.122-11.323-1-3.663-2.04-7.368-3.039-11.032-.541-1.873-1.041-3.788-1.582-5.662-.375-1.29-.541-3.788-1.415-4.829-1.707-2.04-5.329-1.873-7.66-2.747a44.26 44.26 0 0 1 1.457 6.494c.5 2.29 1.207 4.538 1.79 6.827 1.332 4.872 2.872 9.742 4.329 14.53z" class="cls-11" transform="translate(-9.981 -150.188)"/>
            <path id="XMLID_532_" d="M118.34 126.7c-.5 3.33-1.041 6.661-1.54 9.991" class="cls-9" transform="translate(-68.177 -121.411)"/>
            <path id="XMLID_529_" d="M92.287 115.537a12.427 12.427 0 0 0-1.54 3.58A98.493 98.493 0 0 0 87 137.809a2.058 2.058 0 0 0 2.456-.5 6.193 6.193 0 0 0 1.249-2.373c2.165-6.036 4.288-12.031 6.452-18.067 1.291-3.455-3.205-3.663-4.87-1.332z" class="cls-11" transform="translate(-50.783 -113.995)"/>
            <path id="XMLID_526_" d="M105.97 121.86c.458-2.04.083-5.453-2-6.661a13.46 13.46 0 0 0-3.5-.874c-.666-.125-3.788.167-4.121-.125 3.622 3.289 1.332 9.033.083 12.9s-3.5 7.16-5.037 10.865c2.539 1.041 7.41-3.913 8.909-5.537a22.607 22.607 0 0 0 5.666-10.568z" class="cls-13" transform="translate(-53.351 -114.115)"/>
            <path id="XMLID_523_" d="M53.271 131.194c-.541-1.957 1.415-2.581 2.956-2.29a13.36 13.36 0 0 1 6.827 4.2 28.439 28.439 0 0 1 5.037 8.159c.708 1.624 1.29 3.58.375 5.079-2.623-1.124-4.288-3.622-5.786-6.036s-3.081-4.954-5.578-6.286c-.749-.375-1.54-.624-2.248-1.041a2.935 2.935 0 0 1-1.583-1.785z" class="cls-12" transform="translate(-31.041 -122.658)"/>
            <path id="XMLID_520_" d="M42.777 134.406c3.414 5.662 11.989 13.238 19.149 11.365-1.5-2.29-4.538-3.414-6.536-5.287-2.5-2.331-5.453-5.162-6.244-8.576a3.846 3.846 0 0 1 .749-3.414 13.4 13.4 0 0 0-5.412.957 3.609 3.609 0 0 0-2.456 2.248 3.806 3.806 0 0 0 .75 2.707z" class="cls-13" transform="translate(-24.502 -122.456)"/>
            <path id="XMLID_517_" d="M102.479 169.592a13.992 13.992 0 0 0-4.7-.666c-.791 0-2.5-.042-1.166-1.5a3.031 3.031 0 0 1 1.166-.708 16.312 16.312 0 0 1 13.7 1.207 14.084 14.084 0 0 1 6.786 12.447c-.083 1.748-.458 3.5-.5 5.245a6.326 6.326 0 0 0 1.665 4.829 6.953 6.953 0 0 1-5.412-4.538c.083 1.79.125 3.58.208 5.37-2.248-.125-4.038-2.081-4.7-4.2a19.787 19.787 0 0 1-.416-6.661 12.829 12.829 0 0 0-1-6.536 9.279 9.279 0 0 0-5.631-4.289z" class="cls-11" transform="translate(-56.105 -144.196)"/>
            <path id="XMLID_514_" d="M103.349 166.607a15.232 15.232 0 0 0-4.746-.333c-.791.083-2.5.125-1.29-1.415a3.065 3.065 0 0 1 1.124-.791 16.281 16.281 0 0 1 13.779.167 14.115 14.115 0 0 1 7.7 11.906c.083 1.748-.208 3.5-.083 5.287a6.6 6.6 0 0 0 2 4.7 7.035 7.035 0 0 1-5.745-4.121c.208 1.79.416 3.58.583 5.37-2.248.083-4.163-1.748-5-3.83a19.6 19.6 0 0 1-.916-6.619c-.083-2.248-.291-4.579-1.5-6.452a9.3 9.3 0 0 0-5.906-3.869z" class="cls-13" transform="translate(-56.558 -142.377)"/>
            <path id="XMLID_511_" d="M91.544 161.37a18.356 18.356 0 0 1 8.034-3.538c.208-.125.416-.208.583-.333a10.07 10.07 0 0 0 1.748-1.5c.167-.208.541.083.375.291a6.67 6.67 0 0 1-1.29 1.374 10.139 10.139 0 0 1 5.662 1.124c.25.167.083.624-.208.5a12.766 12.766 0 0 0-7.785-.416A18.672 18.672 0 0 0 95 160.329a21.3 21.3 0 0 1-3.039 1.624c-.375.166-.708-.333-.417-.583z" class="cls-12" transform="translate(-53.371 -138.472)"/>
            <path id="XMLID_508_" d="M70.775 166.6c1.29.167 2.581.541 3.871.791 1.415.291 2.872.458 4.288.666.333.042.25.583-.083.541a24.947 24.947 0 0 1-8.2-1.582c-.209-.045-.084-.462.124-.416z" class="cls-11" transform="translate(-41.177 -144.697)"/>
            <path id="XMLID_505_" d="M96.512 213.785a.843.843 0 0 0-.624.167.934.934 0 0 0 0 1.582 1.543 1.543 0 0 0 .624.167.9.9 0 0 0 .916-.916.972.972 0 0 0-.916-1z" class="cls-21" transform="translate(-55.715 -172.237)"/>
            <path id="XMLID_502_" d="M111.071 234.3a.854.854 0 0 0-.874.874v.083a.879.879 0 0 0 .874.874.908.908 0 0 0 .874-.874v-.083a.879.879 0 0 0-.874-.874z" class="cls-21" transform="translate(-64.321 -184.214)"/>
            <path id="XMLID_499_" d="M98.281 259.8a.666.666 0 0 0 0 1.332.666.666 0 0 0 0-1.332z" class="cls-21" transform="translate(-56.985 -199.103)"/>
            <path id="XMLID_496_" d="M113.087 273.8a.979.979 0 0 0 0 1.957.979.979 0 0 0 0-1.957z" class="cls-21" transform="translate(-65.463 -207.275)"/>
            <path id="XMLID_493_" d="M157.56 265.9c-.042-.042-.042-.083-.083-.125a.817.817 0 0 0-1.374 0c-.042.042-.042.083-.083.125a.894.894 0 0 0 .791 1.332.876.876 0 0 0 .749-1.332z" class="cls-21" transform="translate(-90.995 -202.372)"/>
            <path id="XMLID_490_" d="M168.406 243.5a.812.812 0 0 0 0 1.624.812.812 0 0 0 0-1.624z" class="cls-21" transform="translate(-97.845 -189.588)"/>
            <path id="XMLID_487_" d="M157.149 232.9c-.416-.5-1.249-.042-1.249.541a.765.765 0 0 0 1.29.541.041.041 0 0 0-.042.042.662.662 0 0 0 .001-1.124z" class="cls-21" transform="translate(-91.001 -183.277)"/>
            <path id="XMLID_484_" d="M170.159 201.7a.687.687 0 0 0 0 1.374.687.687 0 0 0 0-1.374z" class="cls-21" transform="translate(-98.932 -165.189)"/>
            <path id="XMLID_481_" d="M159.569 194.806a.48.48 0 0 0-.874 0 .526.526 0 0 0 .458.791.569.569 0 0 0 .416-.791z" class="cls-21" transform="translate(-92.588 -161.001)"/>
            <path id="XMLID_478_" d="M53.566 202.887a.79.79 0 0 0-.791-.791.818.818 0 0 0-.791.791.992.992 0 0 0 .125.583.779.779 0 0 0 1.332 0 1.33 1.33 0 0 0 .125-.583z" class="cls-21" transform="translate(-30.337 -165.419)"/>
            <path id="XMLID_475_" d="M63.662 224.9a.833.833 0 0 0 0 1.665.833.833 0 0 0 0-1.665z" class="cls-21" transform="translate(-36.686 -178.731)"/>
            <path id="XMLID_472_" d="M62.406 251.9a.812.812 0 0 0 0 1.624.812.812 0 0 0 0-1.624z" class="cls-21" transform="translate(-35.971 -194.492)"/>
            <path id="XMLID_469_" d="M73.63 281.137a1.061 1.061 0 0 0-.333-.5.653.653 0 0 0-.916 0 1.318 1.318 0 0 0-.333.5.788.788 0 0 0 .791 1 .81.81 0 0 0 .791-1z" class="cls-21" transform="translate(-42.033 -211.156)"/>
            <path id="XMLID_466_" d="M33.4 259.239v-.083a.737.737 0 0 0-1.415 0v.083a.777.777 0 0 0 .708.957.82.82 0 0 0 .707-.957z" class="cls-21" transform="translate(-18.659 -198.417)"/>
            <path id="XMLID_463_" d="M16.193 202.4a.75.75 0 0 0 0 1.5.75.75 0 0 0 0-1.5z" class="cls-21" transform="translate(-9.033 -165.598)"/>
            <path id="XMLID_460_" d="M111.176 195.7h-.083a.729.729 0 0 0 0 1.457h.083a.73.73 0 0 0 0-1.457z" class="cls-21" transform="translate(-64.427 -161.686)"/>
            <path id="XMLID_457_" d="M77.029 181.6a.809.809 0 0 0-.833.833.835.835 0 0 0 .833.833.809.809 0 0 0 .833-.833.835.835 0 0 0-.833-.833z" class="cls-21" transform="translate(-44.475 -153.457)"/>
            <path id="XMLID_454_" d="M97.656 178.5a.541.541 0 0 0 0 1.082.541.541 0 0 0 0-1.082z" class="cls-21" transform="translate(-56.693 -151.647)"/>
            <path id="XMLID_451_" d="M35.763 167.183c0-.042 0-.042-.042-.083a.694.694 0 0 0-1.332 0c0 .042 0 .042-.042.083a.731.731 0 1 0 1.415 0z" class="cls-21" transform="translate(-20.027 -144.701)"/>
            <path id="XMLID_448_" d="M49.466 161.423c-.042 0-.042-.042-.083-.042a.732.732 0 0 0-1.082.624.741.741 0 0 0 1.082.624c.042 0 .042-.042.083-.042a.7.7 0 0 0 0-1.164z" class="cls-21" transform="translate(-28.193 -141.606)"/>
            <path id="XMLID_445_" d="M143.986 165.024a.65.65 0 0 0-.624-.333h-.125a.708.708 0 0 0 0 1.415h.125a.734.734 0 0 0 .624-.333.624.624 0 0 0 0-.749z" class="cls-21" transform="translate(-83.208 -143.583)"/>
            <path id="XMLID_442_" d="M159.36 167.718a.557.557 0 0 0-.042-.208.836.836 0 0 0-1.041-.666c-.125.042-.25.167-.375.208a.325.325 0 0 0-.167.167 1.188 1.188 0 0 0-.167.916.894.894 0 0 0 1.124.624.945.945 0 0 0 .668-1.041z" class="cls-21" transform="translate(-91.962 -144.82)"/>
        </g>
        <g id="XMLID_390_" transform="translate(56.782 82.372)">
            <path id="XMLID_438_" d="M143.669 268.555L137.3 237l28.224 6.2-.25 30.223z" class="cls-15" transform="translate(-136.925 -220.71)"/>
            <path id="XMLID_435_" d="M136.4 226.352l22.729-7.452 25.519 5.828-19.482 8.243z" class="cls-17" transform="translate(-136.4 -210.145)"/>
            <path id="XMLID_432_" d="M165.436 266.909c-1.207-10.116-.749-21.4-.167-31.555-.125.042-.291.042-.416.083a54.368 54.368 0 0 1 10.7-4.038l7.077 2.206a51.871 51.871 0 0 0-10.7 4.038c.125-.042.291-.042.416-.083-.624 10.2-1.041 20.814.167 30.93z" class="cls-6" transform="translate(-152.906 -217.441)"/>
            <path id="XMLID_429_" d="M183.137 229.8c-2.789.208-5.62 1.124-8.367.208a51.3 51.3 0 0 0-5.037-1c-3.33-.666-6.786-1.124-10.033-2.04 1.873-1.249 4.954-1.5 7.16-1.332a48.9 48.9 0 0 1 16.277 4.164z" class="cls-3" transform="translate(-150 -214.049)"/>
            <path id="XMLID_426_" d="M223.615 232.9l-3.372 32.013L203.3 271.2l.291-30.181z" class="cls-17" transform="translate(-175.45 -218.317)"/>
            <path id="XMLID_423_" d="M203.9 235.482l7.41 3.122-.5 30.514 4.579-1.707 1.582-31.014-9.866-2.5z" class="cls-4" transform="translate(-175.8 -218.9)"/>
            <path id="XMLID_422_" d="M183.7 206.7c.375 2.331.708 4.621 1.082 6.952" class="cls-18" transform="translate(-164.01 -203.023)"/>
            <path id="XMLID_419_" d="M193.239 198.964a8.911 8.911 0 0 1 1.082 2.5 65.851 65.851 0 0 1 2.579 12.986 1.47 1.47 0 0 1-1.707-.333 4 4 0 0 1-.874-1.665c-1.5-4.163-3-8.367-4.454-12.53-.913-2.457 2.209-2.622 3.374-.958z" class="cls-6" transform="translate(-167.513 -197.868)"/>
            <path id="XMLID_416_" d="M179.541 203.428c-.291-1.415-.083-3.788 1.374-4.621a11.42 11.42 0 0 1 2.414-.624 21 21 0 0 0 2.872-.083c-2.539 2.29-.916 6.286-.042 8.95.874 2.706 2.414 5 3.5 7.535-1.748.708-5.12-2.706-6.2-3.83a15.361 15.361 0 0 1-3.918-7.327z" class="cls-4" transform="translate(-161.516 -198.003)"/>
            <path id="XMLID_413_" d="M215.074 209.915c.375-1.332-1-1.79-2.081-1.582a9.157 9.157 0 0 0-4.746 2.914 18.94 18.94 0 0 0-3.5 5.662c-.5 1.124-.916 2.5-.291 3.538 1.832-.791 3-2.539 4.038-4.2s2.123-3.455 3.871-4.371c.5-.25 1.082-.458 1.582-.708a2.347 2.347 0 0 0 1.127-1.253z" class="cls-6" transform="translate(-175.943 -203.948)"/>
            <path id="XMLID_410_" d="M218.321 212.072c-2.373 3.913-8.326 9.2-13.321 7.91 1.041-1.582 3.164-2.373 4.538-3.663 1.707-1.624 3.788-3.58 4.329-5.953a2.568 2.568 0 0 0-.541-2.373 8.806 8.806 0 0 1 3.747.666 2.509 2.509 0 0 1 1.707 1.582 2.281 2.281 0 0 1-.459 1.831z" class="cls-4" transform="translate(-176.443 -203.775)"/>
            <path id="XMLID_407_" d="M173.581 236.522a9.823 9.823 0 0 1 3.289-.458c.541 0 1.707-.042.833-1.041a1.864 1.864 0 0 0-.833-.5 11.287 11.287 0 0 0-9.533.833 9.764 9.764 0 0 0-4.7 8.659c.042 1.207.333 2.414.333 3.663a4.479 4.479 0 0 1-1.166 3.372 4.787 4.787 0 0 0 3.747-3.164l-.125 3.747a3.962 3.962 0 0 0 3.247-2.914 14.351 14.351 0 0 0 .291-4.621 8.861 8.861 0 0 1 .708-4.538 6.248 6.248 0 0 1 3.909-3.038z" class="cls-6" transform="translate(-151.226 -218.858)"/>
            <path id="XMLID_404_" d="M171.3 234.445a10.981 10.981 0 0 1 3.289-.25c.541.042 1.707.083.874-.957a2.068 2.068 0 0 0-.791-.541 11.328 11.328 0 0 0-9.575.125 9.885 9.885 0 0 0-5.37 8.284c-.042 1.207.125 2.456.083 3.663a4.6 4.6 0 0 1-1.415 3.289 4.9 4.9 0 0 0 4-2.872c-.125 1.249-.291 2.5-.416 3.7a3.867 3.867 0 0 0 3.455-2.664 13.107 13.107 0 0 0 .624-4.579 8.837 8.837 0 0 1 1.041-4.5 7.166 7.166 0 0 1 4.201-2.698z" class="cls-3" transform="translate(-149.242 -217.613)"/>
            <path id="XMLID_401_" d="M188.941 230.785a12.6 12.6 0 0 0-5.578-2.456c-.125-.083-.291-.167-.416-.25a7.235 7.235 0 0 1-1.207-1.041c-.125-.125-.375.042-.25.208a4.933 4.933 0 0 0 .916.957 6.994 6.994 0 0 0-3.913.791c-.167.083-.042.416.167.333a8.614 8.614 0 0 1 5.412-.291 11.242 11.242 0 0 1 2.539 1.041 14.835 14.835 0 0 0 2.123 1.124c.207.084.415-.249.207-.416z" class="cls-3" transform="translate(-160.924 -214.87)"/>
            <path id="XMLID_397_" d="M209.97 234.4c-.916.083-1.79.375-2.664.541-1 .208-2 .333-3 .458-.208.042-.167.416.042.375a17.759 17.759 0 0 0 5.7-1.082c.13-.001.088-.292-.078-.292z" class="cls-4" transform="translate(-175.959 -219.192)"/>
            <path id="XMLID_391_" d="M275.367 328.8h-.167" class="cls-17" transform="translate(-217.419 -274.294)"/>
        </g>
        <path id="XMLID_389_" d="M226.457 217.3a6.571 6.571 0 0 1-3.538 4.121c-.416.208-.125.957.333.791a6.548 6.548 0 0 0 4.163-4.621c.125-.669-.791-.919-.958-.291z" class="cls-7" transform="translate(-130.003 -126.627)"/>
        <path id="XMLID_388_" d="M233.708 212.308l-.083-.083a.506.506 0 0 0-.666 0l-.083.083a.569.569 0 1 0 .833 0z" class="cls-7" transform="translate(-135.838 -123.803)"/>
        <path id="XMLID_387_" d="M188.654 207.705c-.375-1.124-.666-2.29-1-3.414-.167-.541-1-.458-.957.125.042 2.04.541 5.412 2.373 6.661a.351.351 0 0 0 .541-.291 9.835 9.835 0 0 0-.957-3.081z" class="cls-7" transform="translate(-108.977 -119.034)"/>
        <path id="XMLID_386_" d="M187 199.6h-.125a.4.4 0 0 0 0 .791H187c.5.042.5-.791 0-.791z" class="cls-7" transform="translate(-108.862 -116.507)"/>
        <path id="XMLID_385_" d="M224.66 239.288c-.833.375-1.665.708-2.5 1.082-.666.291-1.5.541-1.832 1.207a.382.382 0 0 0 .208.541 3.115 3.115 0 0 0 2.165-.5c.833-.333 1.665-.708 2.5-1.041a.7.7 0 1 0-.541-1.289z" class="cls-7" transform="translate(-128.58 -139.627)"/>
        <path id="XMLID_384_" d="M118.839 123.168a.532.532 0 0 0-1.041.125c-.083 3.871-.5 7.077-2.872 10.282-.208.291.25.624.5.375 2.747-2.581 4.574-6.994 3.413-10.782z" class="cls-14" transform="translate(-67.053 -71.671)"/>
        <path id="XMLID_383_" d="M117.34 118.512a.781.781 0 0 0-1.5 0 1.035 1.035 0 0 0-.042.333.819.819 0 0 0 .791.791.79.79 0 0 0 .791-.791.812.812 0 0 0-.04-.333z" class="cls-14" transform="translate(-67.594 -68.847)"/>
        <path id="XMLID_382_" d="M126.857 168.979a.482.482 0 0 0-.375.874 14.139 14.139 0 0 1 4.454 4c1.041 1.665 1.29 3.455 1.873 5.287a.412.412 0 0 0 .791 0c1-4.083-2.83-9.286-6.743-10.161z" class="cls-14" transform="translate(-73.696 -98.625)"/>
        <path id="XMLID_184_" d="M57.845 142.7a31.581 31.581 0 0 1-2.623-3.58c-.708-1.29-.874-2.872-1.624-4.121a.6.6 0 0 0-1.082.125c-.291 1.54.541 3.247 1.249 4.538a9.565 9.565 0 0 0 3.289 3.747c.458.291 1.124-.248.791-.709z" class="cls-14" transform="translate(-30.619 -78.635)"/>
    </g>
</svg>
