<svg xmlns="http://www.w3.org/2000/svg" width="32" height="32" viewBox="0 0 32 32">
    <defs>
        <style>
            .cls-1,.cls-2{fill:none}.cls-2{opacity:.87}.cls-3{fill:#b2069e}
        </style>
    </defs>
    <g id="ic_LatestSOAP" transform="translate(-57 -674)">
        <path id="Rectangle_12940" d="M0 0h26v26H0z" class="cls-1" data-name="Rectangle 12940" transform="translate(60 677)"/>
        <path id="Rectangle_8499" d="M0 0h32v32H0z" class="cls-1" data-name="Rectangle 8499" transform="translate(57 674)"/>
        <g id="Group_12941" data-name="Group 12941" transform="translate(60 677)">
            <g id="Bounding_Boxes">
                <path id="Path_3192" d="M0 0h26v26H0z" class="cls-1" data-name="Path 3192"/>
                <path id="Path_3193" d="M0 0h26v26H0z" class="cls-2" data-name="Path 3193"/>
            </g>
            <path id="Rectangle_910" d="M0 0h1.82v26H0z" class="cls-3" data-name="Rectangle 910" transform="translate(11.7)"/>
            <path id="Rectangle_911" d="M0 0h1.82v26H0z" class="cls-3" data-name="Rectangle 911" transform="rotate(90 7.15 18.85)"/>
            <g id="Group_1058" data-name="Group 1058" transform="translate(1.3 1.3)">
                <path id="Path_3202" d="M2.173 2.842a1.5 1.5 0 0 0-.044-.381.725.725 0 0 0-.187-.316 1.612 1.612 0 0 0-.406-.288 5.446 5.446 0 0 0-.7-.3 8.863 8.863 0 0 1-.992-.4A3.748 3.748 0 0 1-.987.633a2.4 2.4 0 0 1-.57-.706 1.962 1.962 0 0 1-.212-.932 2.023 2.023 0 0 1 .215-.932 2.088 2.088 0 0 1 .605-.72 2.944 2.944 0 0 1 .925-.462 4 4 0 0 1 1.182-.165 3.616 3.616 0 0 1 1.2.188 2.716 2.716 0 0 1 .913.521 2.262 2.262 0 0 1 .58.8 2.5 2.5 0 0 1 .2 1.016H2.2a1.756 1.756 0 0 0-.06-.473.969.969 0 0 0-.19-.37.88.88 0 0 0-.333-.241 1.237 1.237 0 0 0-.488-.087 1.3 1.3 0 0 0-.459.073.893.893 0 0 0-.32.2.807.807 0 0 0-.19.3 1.069 1.069 0 0 0-.063.37.69.69 0 0 0 .1.364 1.124 1.124 0 0 0 .279.3 2.429 2.429 0 0 0 .437.263q.257.123.567.241A7.149 7.149 0 0 1 2.6.636a3.336 3.336 0 0 1 .8.571 2.081 2.081 0 0 1 .482.72 2.441 2.441 0 0 1 .158.9 2.2 2.2 0 0 1-.2.958 1.943 1.943 0 0 1-.57.708 2.662 2.662 0 0 1-.9.442 4.216 4.216 0 0 1-1.17.158 4.342 4.342 0 0 1-1.169-.16A3.129 3.129 0 0 1-1 4.444a2.522 2.522 0 0 1-.726-.834A2.462 2.462 0 0 1-2 2.411h1.87a2.078 2.078 0 0 0 .082.627.97.97 0 0 0 .25.417.978.978 0 0 0 .415.23 2.126 2.126 0 0 0 .577.07 1.3 1.3 0 0 0 .453-.07.816.816 0 0 0 .3-.19.694.694 0 0 0 .168-.288 1.255 1.255 0 0 0 .058-.365z" class="cls-3" data-name="Path 3202" transform="translate(2.495 3.285)"/>
                <path id="Path_3203" d="M4.39 2.87a4.323 4.323 0 0 1-.241 1.506 2.935 2.935 0 0 1-.675 1.081 2.8 2.8 0 0 1-1.046.65 4 4 0 0 1-1.353.218 4.027 4.027 0 0 1-1.356-.218 2.85 2.85 0 0 1-1.055-.65 2.926 2.926 0 0 1-.684-1.081 4.272 4.272 0 0 1-.245-1.506V1.514a4.564 4.564 0 0 1 .241-1.548 3.053 3.053 0 0 1 .678-1.117 2.8 2.8 0 0 1 1.052-.675 3.892 3.892 0 0 1 1.356-.227 3.865 3.865 0 0 1 1.353.227 2.838 2.838 0 0 1 1.052.675 3.03 3.03 0 0 1 .682 1.117 4.564 4.564 0 0 1 .241 1.548zM2.52 1.5a4.481 4.481 0 0 0-.1-.994 1.93 1.93 0 0 0-.279-.675 1.109 1.109 0 0 0-.451-.383 1.509 1.509 0 0 0-.627-.123 1.525 1.525 0 0 0-.634.123 1.109 1.109 0 0 0-.456.386 1.93 1.93 0 0 0-.28.675A4.481 4.481 0 0 0-.4 1.5v1.37a4.107 4.107 0 0 0 .1.949 1.772 1.772 0 0 0 .282.647 1.113 1.113 0 0 0 .463.37 1.612 1.612 0 0 0 .637.118 1.548 1.548 0 0 0 .618-.119 1.1 1.1 0 0 0 .453-.37 1.769 1.769 0 0 0 .276-.647 4.243 4.243 0 0 0 .091-.948z" class="cls-3" data-name="Path 3203" transform="translate(17.727 2.214)"/>
                <path id="Path_3204" d="M2.488 3.52H-.053l-.494 1.669h-1.972L.365-2.965h1.7l2.9 8.154H2.983zM.352 2.148h1.724L1.214-.759z" class="cls-3" data-name="Path 3204" transform="translate(2.519 19.171)"/>
                <path id="Path_3205" d="M.026.516v2.868h-1.863V-4.77h3.143a3.666 3.666 0 0 1 1.258.2 2.72 2.72 0 0 1 .941.563 2.44 2.44 0 0 1 .593.857A2.781 2.781 0 0 1 4.3-2.071 2.688 2.688 0 0 1 4.1-1a2.235 2.235 0 0 1-.593.815 2.693 2.693 0 0 1-.944.518 4.034 4.034 0 0 1-1.257.183zm0-1.372h1.28a1.291 1.291 0 0 0 .5-.09.919.919 0 0 0 .349-.249 1 1 0 0 0 .2-.381 1.754 1.754 0 0 0 .063-.484 1.972 1.972 0 0 0-.063-.5 1.242 1.242 0 0 0-.2-.426 1.014 1.014 0 0 0-.349-.3 1.066 1.066 0 0 0-.5-.112H.026z" class="cls-3" data-name="Path 3205" transform="translate(18.12 20.976)"/>
            </g>
        </g>
    </g>
</svg>
