<svg xmlns="http://www.w3.org/2000/svg" width="32" height="32" viewBox="0 0 32 32">
    <defs>
        <style>
            .cls-1{fill:none}.cls-2{fill:#4d9b35}
        </style>
    </defs>
    <g id="ic_LatestHistory" transform="translate(-871 -66)">
        <path id="Rectangle_8499" d="M0 0h32v32H0z" class="cls-1" data-name="Rectangle 8499" transform="translate(871 66)"/>
        <path id="Union_124" d="M20.133 22.837H0s.614-2.1 1.1-3.651 4.15-2.408 5.227-2.625c.807-.163 2.912-.819 3.915-1.138v-2.192a7.648 7.648 0 0 1-2.595-4.19l-.017.01c-.792.429-1.255-1.544-.916-2.457.1-.273.224-.383.347-.4-.275-1.294-.635-3.43-.182-4.037.661-.886 1.591-1.175 1.936-.973.176.1.218-.24.525-.583a2.272 2.272 0 0 1 1.98-.593c2.333.134 5.538.431 5.866 2.389a14 14 0 0 1 .076 3.418q.022.193.035.393c.167-.061.354 0 .5.385.321.865-.077 2.681-.793 2.506a7.467 7.467 0 0 1-2.759 4.258v2.033c.955.3 3.182 1 4.017 1.17 1.077.218 4.744 1.075 5.227 2.625s1.1 3.651 1.1 3.651z" class="cls-2" data-name="Union 124" transform="translate(874.708 70.516)"/>
    </g>
</svg>
