<svg xmlns="http://www.w3.org/2000/svg" width="26.466" height="20" viewBox="0 0 26.466 20"><g transform="translate(0 0)"><path d="M108.325,104.4,97.739,93.669S95.719,93.6,93.5,93.6l10.2,10.649Z" transform="translate(-86.871 -86.964)" fill="#fff"/><path d="M34.694,123h6.452L17.268,134.28H15.8Z" transform="translate(-14.68 -114.28)" fill="#fff"/><path d="M15.477,0C.156,0,.078,0,0,.007l3.19,3.02H14.711c1.078,0,2.318.248,2.318,1.815,0,1.262-.652,1.8-1.928,1.8H6.629L8.961,9.075h6.523a4.551,4.551,0,0,0,4.537-4.537h0A4.561,4.561,0,0,0,15.477,0Z" transform="translate(0 0)" fill="#fff"/><path d="M130.649,127.9l-2.74,1.573L126.4,127.9Z" transform="translate(-117.439 -118.832)" fill="#fff"/><path d="M203.394,185.211l-1.9,2.588-1.11-1.162Z" transform="translate(-186.2 -172.118)" fill="#fff" opacity="0.29"/></g><path d="M4622.2-2592.35l-2.186,2.292.669.676,4.628.189Z" transform="translate(-4603.846 2606.646)" fill="#fff"/></svg>