<svg xmlns="http://www.w3.org/2000/svg" width="35" height="32" viewBox="0 0 35 32">
    <defs>
        <style>
            .cls-1{fill:none}.cls-2{fill:#5d67c4}
        </style>
    </defs>
    <g id="ic_Routine" transform="translate(-871 -66)">
        <path id="Rectangle_8499" d="M0 0h32v32H0z" class="cls-1" data-name="Rectangle 8499" transform="translate(871 66)"/>
        <g id="Group_5476" data-name="Group 5476" transform="translate(877.09 70.974)">
            <path id="Path_2717" d="M20.575 1.656a5.448 5.448 0 0 0-7.633-.139l-11.1 11.1a5.762 5.762 0 0 0-.416 8.188c2.221 2.221 5.69 2.082 8.188-.416l11.1-11.1a5.448 5.448 0 0 0-.139-7.633zM9.334 19.143c-1.527 1.526-2.634 1.943-3.886 1.943a4.632 4.632 0 0 1-3.192-1.249 4.4 4.4 0 0 1-1.249-3.192c0-1.249.416-2.359 1.943-3.886l2.775-2.776 7.495-7.495.278-.278a4.087 4.087 0 0 1 3.47-1.11.628.628 0 0 1-.139 1.249 3.009 3.009 0 0 0-2.5.694l-.139.139L8.362 9.15l5.413 5.413z" class="cls-2" data-name="Path 2717"/>
            <g id="Group_1690" data-name="Group 1690" transform="translate(17.376 10.669)">
                <path id="Path_2718" d="M21.772 16.972a5.923 5.923 0 0 0 .416-7.772L14 17.25a5.755 5.755 0 0 0 7.772-.278z" class="cls-2" data-name="Path 2718" transform="translate(-11.911 -7.111)"/>
                <path id="Path_2719" d="M14.168 9.368a5.923 5.923 0 0 0-.416 7.772l8.188-8.189a5.93 5.93 0 0 0-7.772.417z" class="cls-2" data-name="Path 2719" transform="translate(-12.495 -7.695)"/>
            </g>
        </g>
    </g>
</svg>
