<svg xmlns="http://www.w3.org/2000/svg" width="49.072" height="42.5" viewBox="0 0 49.072 42.5">
  <defs>
    <style>
      .cls-1 {
        fill: #fc9494;
        stroke: #171717;
        stroke-width: 2px;
      }

      .cls-2 {
        fill: none;
      }

      .cls-3 {
        fill: #171717;
      }
    </style>
  </defs>
  <g id="ic_Allergy_Meds" data-name="ic_Allergy&amp;Meds" transform="translate(-9130.936 8916)">
    <path id="Path_637956" data-name="Path 637956" class="cls-1" d="M9138-8869.309v-40.5h39.51l7.5,19.825-7.5,20.675Z" transform="translate(-6.064 -5.191)"/>
    <g id="Group_10134" data-name="Group 10134" transform="translate(8577 -9529)">
      <rect id="Rectangle_8499" data-name="Rectangle 8499" class="cls-2" width="23.25" height="24" transform="translate(561.294 622)"/>
      <path id="Path_2717" data-name="Path 2717" class="cls-3" d="M16.862,1.406A4.37,4.37,0,0,0,10.6,1.288l-9.108,9.4a4.989,4.989,0,0,0-.342,6.934c1.822,1.88,4.668,1.763,6.717-.353l9.108-9.4A4.72,4.72,0,0,0,16.862,1.406ZM7.64,16.213a4.2,4.2,0,0,1-3.188,1.645A3.735,3.735,0,0,1,1.834,16.8,3.788,3.788,0,0,1,.809,14.1,4.445,4.445,0,0,1,2.4,10.807L4.68,8.457h0l6.148-6.346.228-.235A3.286,3.286,0,0,1,13.9.936h0a.533.533,0,0,1,.455.588.526.526,0,0,1-.569.47,2.415,2.415,0,0,0-2.049.588l-.114.118h0L6.843,7.752l4.44,4.583Z" transform="translate(559.747 618.561)"/>
      <g id="Group_10137" data-name="Group 10137" transform="translate(1461 718) rotate(-180)">
        <rect id="Rectangle_8499-2" data-name="Rectangle 8499" class="cls-2" width="24" height="24" transform="translate(871 66)"/>
        <path id="Subtraction_487" data-name="Subtraction 487" class="cls-3" d="M9.73,19.472a1.376,1.376,0,0,1-1.389-1.39,1.11,1.11,0,0,1,.35-.87,1.072,1.072,0,0,0,.258-.781,1.4,1.4,0,0,0-.258-.78c-.036-.035-.065-.071-.094-.1l-.023-.026A6.073,6.073,0,0,1,6.406,14.6a.279.279,0,0,1-.061,0,1.078,1.078,0,0,0-.785.343l-.006.011a1.529,1.529,0,0,0-.338.776,1.19,1.19,0,0,1-.436.864,1.35,1.35,0,0,1-1.91-1.908,1.182,1.182,0,0,1,.867-.437,1.315,1.315,0,0,0,.785-.344l.013-.02a1.537,1.537,0,0,0,.332-.764.039.039,0,0,1,0-.011.033.033,0,0,0,0-.011,5.982,5.982,0,0,1-1.024-2.387l-.013-.012-.013-.011a1.206,1.206,0,0,0-.78-.259,1.4,1.4,0,0,0-.78.259,1.116,1.116,0,0,1-.872.348,1.39,1.39,0,0,1,0-2.78,1.124,1.124,0,0,1,.872.348,1.057,1.057,0,0,0,.78.258,1.394,1.394,0,0,0,.77-.245A6.179,6.179,0,0,1,4.835,6.072a1.339,1.339,0,0,0-.314-.5l-.007,0a1.529,1.529,0,0,0-.778-.346,1.653,1.653,0,0,1-.867-.432,1.464,1.464,0,0,1,0-2,1.355,1.355,0,0,1,1.91,0,1.228,1.228,0,0,1,.436.87,1.8,1.8,0,0,0,.431.78,1.291,1.291,0,0,0,.466.305,6.056,6.056,0,0,1,2.8-1.2,1.248,1.248,0,0,0,.122-.588,1.417,1.417,0,0,0-.258-.781,1.1,1.1,0,0,1-.35-.864A1.249,1.249,0,0,1,9.593,0,1.108,1.108,0,0,1,9.73.011,1.376,1.376,0,0,1,11.123,1.4a1.124,1.124,0,0,1-.35.868,1.235,1.235,0,0,0-.258.783,1.262,1.262,0,0,0,.1.483,6.037,6.037,0,0,1,2.894,1.2,1.372,1.372,0,0,0,.481-.289,1.552,1.552,0,0,0,.35-.78,1.631,1.631,0,0,1,.436-.87A1.35,1.35,0,0,1,16.683,4.7a1.184,1.184,0,0,1-.872.437,1.062,1.062,0,0,0-.78.35l0,.006a2.569,2.569,0,0,0-.286.5,6.131,6.131,0,0,1,1.1,2.768,1.336,1.336,0,0,0,.573.108A17.663,17.663,0,0,0,19.46,8.61a1.124,1.124,0,0,1,.872-.348,1.39,1.39,0,0,1,0,2.78,1.116,1.116,0,0,1-.872-.348,17.348,17.348,0,0,0-3.041-.259,1.266,1.266,0,0,0-.6.158,6.1,6.1,0,0,1-1.13,2.619,1.072,1.072,0,0,0,.345.7l.022.015,0,0a1.512,1.512,0,0,0,.754.328,1.226,1.226,0,0,1,.872.437A1.35,1.35,0,0,1,14.772,16.6a1.172,1.172,0,0,1-.436-.864,1.29,1.29,0,0,0-.35-.787l-.015-.01a1.554,1.554,0,0,0-.745-.333,6.018,6.018,0,0,1-2.372.951l-.012.014a.826.826,0,0,1-.069.079,1.209,1.209,0,0,0-.258.78,1.411,1.411,0,0,0,.258.781,1.124,1.124,0,0,1,.35.87A1.378,1.378,0,0,1,9.73,19.472ZM8.163,12.918c-.444,0-.732.108-.789.295-.111.37.652.933,1.7,1.255a4.526,4.526,0,0,0,1.323.23c.444,0,.732-.108.791-.3a.323.323,0,0,0-.035-.249,3.075,3.075,0,0,0-1.667-1.009A4.706,4.706,0,0,0,8.163,12.918ZM5.11,10.552a.351.351,0,0,0-.164.036.439.439,0,0,0-.218.263,1.855,1.855,0,0,0,.193,1.293c.28.579.72.984,1.069.984a.387.387,0,0,0,.162-.036c.345-.168.354-.864.02-1.552C5.9,10.958,5.459,10.552,5.11,10.552Zm1.855-.6A.29.29,0,0,0,6.8,10a.32.32,0,0,0-.134.215,1.391,1.391,0,0,0,.265.94,1.234,1.234,0,0,0,.841.637.294.294,0,0,0,.162-.043c.243-.158.187-.668-.127-1.162A1.231,1.231,0,0,0,6.965,9.955ZM8.624,6.833a2.425,2.425,0,0,0-1.332.541,2.8,2.8,0,0,0-.8.878.7.7,0,0,0-.06.734.544.544,0,0,0,.461.183,2.425,2.425,0,0,0,1.333-.544c.729-.54,1.113-1.263.856-1.611A.548.548,0,0,0,8.624,6.833Zm-3.277.323c-.184,0-.438.281-.6.671-.187.44-.2.862-.025.938l.011,0a.189.189,0,0,0,.05.008c.181,0,.44-.29.6-.675.186-.438.2-.857.025-.932A.155.155,0,0,0,5.347,7.156ZM8.5,4.3a2.445,2.445,0,0,0-1.336.54,2.246,2.246,0,0,0-.93,1.253.473.473,0,0,0,.073.36.546.546,0,0,0,.456.182A2.427,2.427,0,0,0,8.1,6.093a2.77,2.77,0,0,0,.8-.879.689.689,0,0,0,.058-.733A.551.551,0,0,0,8.5,4.3Z" transform="translate(872 68)"/>
      </g>
    </g>
  </g>
</svg>
