<svg xmlns="http://www.w3.org/2000/svg" width="48.566" height="42.5" viewBox="0 0 48.566 42.5">
  <defs>
    <style>
      .cls-1 {
        fill: #fcfc94;
        stroke: #171717;
        stroke-width: 2px;
      }

      .cls-2 {
        fill: #171717;
      }
    </style>
  </defs>
  <g id="ic_EndemicArea" transform="translate(-9130.936 8916)">
    <path id="Path_637956" data-name="Path 637956" class="cls-1" d="M9138-8869.309v-40.5h39.51l7,19.787-7,20.713Z" transform="translate(-6.064 -5.191)"/>
    <g id="FamilyDisease" transform="translate(9138.096 -8906.755)">
      <g id="Layer_1" data-name="Layer 1" transform="translate(0 -0.235)">
        <g id="g27249">
          <path id="path6723" class="cls-2" d="M14.121-.235a.873.873,0,0,0-.557.2L10.447,3.291,6.19,2.463a.876.876,0,0,0-.661.125.855.855,0,0,0-.371.554v.105l-.21,2.96L.6,7.589a.857.857,0,0,0-.56,1.076A.834.834,0,0,0,.158,8.9l2.593,3.639L.217,15.411h0l-.12.183-.1.384a.739.739,0,0,0,.407.655c.034,0-.536-.141,1.8.558A.87.87,0,0,0,3.3,16.634a.854.854,0,0,0-.566-1.075c-1.716-.509.411.141-.284-.053l2.063-2.332a.844.844,0,0,0,.055-1.059L2.256,8.862,6.038,7.657a.868.868,0,0,0,.6-.754L6.819,4.33l3.7.72a.885.885,0,0,0,.726-.183l2.736-3.021L16.928,4.9a.873.873,0,0,0,.925.292l3.556-1.019L21.663,7.4a.85.85,0,0,0,.54.723l2.9,1.209L23.039,12a.848.848,0,0,0,.072,1.127l2.469,2.438-.722.378a.853.853,0,0,0-.54,1.086.869.869,0,0,0,1.1.533l2.032-.85a.858.858,0,0,0,.48-.458.842.842,0,0,0,.005-.659.81.81,0,0,0-.2-.3l-2.882-2.842,2.287-2.943a.848.848,0,0,0-.158-1.2A.8.8,0,0,0,26.8,8.2L23.383,6.768l-.309-3.779a.867.867,0,0,0-.932-.788.942.942,0,0,0-.175.034L17.943,3.39,14.809.1a.87.87,0,0,0-.688-.34ZM1.424,16.634h0a.063.063,0,0,0,.024,0Z" transform="translate(0 0.235)"/>
        </g>
        <g id="g12400" transform="translate(2.747 7.895)">
          <path id="path4080-9-0-1" class="cls-2" d="M26.6,28.72a2.577,2.577,0,0,0-2.741,2.617l-.017,1.4c-.228,0-.281.239-.281.713a3,3,0,0,0,.783,1.875,3.369,3.369,0,0,0,.69,1.448L25,36.8h0c-1.106.713-2.424,1.223-3.286,1.715a2.246,2.246,0,0,0-.694.677,4.559,4.559,0,0,0-.367.681.062.062,0,0,1,0,.025l-.04.1a6.187,6.187,0,0,0-.429,1.512v.1a1.752,1.752,0,0,1-.043.264,2.33,2.33,0,0,0-.017.3h0c-.033.471.786.624.786.624a11.718,11.718,0,0,0,1.549.3,26.229,26.229,0,0,0,3.659.339h.964a26.145,26.145,0,0,0,3.686-.357,11.666,11.666,0,0,0,1.552-.3s.819-.153.786-.624h0a2.332,2.332,0,0,0,0-.3c-.02-.125-.036-.25-.059-.378a6.246,6.246,0,0,0-.492-1.644v-.018a4.632,4.632,0,0,0-.33-.62,2.26,2.26,0,0,0-.7-.677c-.859-.492-2.18-.988-3.283-1.715h0l-.036-.021a3.37,3.37,0,0,0,.69-1.455,3,3,0,0,0,.743-1.868c0-.485-.056-.713-.281-.713l-.03-1.4a2.577,2.577,0,0,0-2.741-2.617Z" transform="translate(-15.698 -27.048)"/>
          <path id="path4082-7-1-2" class="cls-2" d="M49.232,24.066A2.37,2.37,0,0,1,51.878,26.4v1.244c.221,0,.271.214.271.645a2.592,2.592,0,0,1-.756,1.679,2.92,2.92,0,0,1-.667,1.3h.032c1.07.653,2.343,1.095,3.177,1.537a2.107,2.107,0,0,1,.67.606,3.815,3.815,0,0,1,.357.592v.025l.043.086a5.309,5.309,0,0,1,.414,1.348v.093a1.351,1.351,0,0,0,.039.235,1.7,1.7,0,0,1,0,.271h0c.029.421-.759.556-.759.556a12.223,12.223,0,0,1-1.5.271c-.613.1-1.23.168-1.851.214a4.967,4.967,0,0,0-.92-1.583c-1-1-2.446-1.3-3.662-1.965-.164-.1.916-1.829,1.016-2.043a2.389,2.389,0,0,0-.021-2.139,13.045,13.045,0,0,0-.218-2.072,2.956,2.956,0,0,0-.956-1.451,2.355,2.355,0,0,1,2.581-1.826Z" transform="translate(-33.759 -24.03)"/>
          <path id="path4082-7-1-2-2" data-name="path4082-7-1-2" class="cls-2" d="M13.954,24.1a2.373,2.373,0,0,0-2.646,2.339v1.244c-.217,0-.271.214-.271.645a2.592,2.592,0,0,0,.756,1.679,2.92,2.92,0,0,0,.652,1.3h-.032c-1.07.652-2.343,1.095-3.173,1.537a2.079,2.079,0,0,0-.674.606,3.815,3.815,0,0,0-.357.592v.025l-.043.1a5.309,5.309,0,0,0-.414,1.348v.093l-.043.235a1.7,1.7,0,0,0,0,.271h0c-.029.421.759.556.759.556a12.357,12.357,0,0,0,1.5.271c.613.1,1.23.168,1.851.214a5.035,5.035,0,0,1,.92-1.583c1-1,2.446-1.3,3.662-1.965.164-.1-.916-1.829-1.016-2.043a2.378,2.378,0,0,1,.025-2.139,13.04,13.04,0,0,1,.214-2.072,2.956,2.956,0,0,1,.956-1.451A2.355,2.355,0,0,0,14,24.08Z" transform="translate(-7.705 -24.062)"/>
        </g>
      </g>
    </g>
  </g>
</svg>
