<svg xmlns="http://www.w3.org/2000/svg" width="48.566" height="42.5" viewBox="0 0 48.566 42.5">
  <defs>
    <style>
      .cls-1 {
        fill: #c6ccff;
        stroke: #171717;
        stroke-width: 2px;
      }

      .cls-2 {
        fill: #171717;
      }
    </style>
  </defs>
  <g id="ic_GeneralCheck" transform="translate(-9130.936 8916)">
    <path id="Path_637956" data-name="Path 637956" class="cls-1" d="M9138-8869.309v-40.5h39.51l7,20.729-7,19.771Z" transform="translate(-6.064 -5.191)"/>
    <g id="Physycal" transform="translate(9144.09 -8911)">
      <g id="Layer_1" data-name="Layer 1" transform="translate(-0.09 0)">
        <g id="g8962">
          <path id="path34160" class="cls-2" d="M7.758,48.84a.125.125,0,0,0-.113.125v4.347a.615.615,0,1,0,0,1.23v4.382a2.6,2.6,0,0,0,2.592,2.592,2.424,2.424,0,0,0,.35-.035.128.128,0,0,0,.109-.125v-.537a.128.128,0,0,0-.125-.125h-.023a2.1,2.1,0,0,1-.311.027,1.8,1.8,0,0,1-1.806-1.8V48.965a.125.125,0,0,0-.125-.125Zm7.807,0a.125.125,0,0,0-.109.125v9.959a1.8,1.8,0,0,1-1.821,1.8,1.748,1.748,0,0,1-.284-.023.125.125,0,0,0-.144.105v.549a.125.125,0,0,0,.109.125,2.533,2.533,0,0,0,.319.031,2.6,2.6,0,0,0,2.592-2.592V54.542a.615.615,0,1,0,0-1.23V48.965a.125.125,0,0,0-.125-.125H15.58Z" transform="translate(-4.259 -29.832)"/>
          <g id="g8956">
            <path id="path7-89" class="cls-2" d="M7.52,14.11A3.265,3.265,0,0,0,4.858,17.5V25.5a1.035,1.035,0,1,0,2.067-.027V17.85a.307.307,0,0,1,.311-.307.311.311,0,0,1,.311.307C7.575,24.4,7.528,30.989,7.528,37.7a1.393,1.393,0,0,0,2.787,0V26.311a.311.311,0,1,1,.623,0c0,3.857,0,7.682,0,11.388a1.393,1.393,0,1,0,2.787,0V17.85a.311.311,0,0,1,.623,0v7.62a1.035,1.035,0,1,0,2.067.027V17.5a3.186,3.186,0,0,0-3.024-3.394Z" transform="translate(-2.932 -8.619)"/>
            <path id="path5-90" class="cls-2" d="M15.721,4.974a2.487,2.487,0,1,0-1.761-.727A2.487,2.487,0,0,0,15.721,4.974Z" transform="translate(-8.046 0)"/>
            <path id="path34152" class="cls-2" d="M25.823,11a.128.128,0,0,0-.113.128v.537a.125.125,0,0,0,.125.125h.28a3.184,3.184,0,0,1,2.518,1.195,4.16,4.16,0,0,1,.918,2.608V23.6a.487.487,0,0,1,0,.054.125.125,0,0,0,.121.132h.545a.125.125,0,0,0,.125-.117V19.29a.728.728,0,0,0,0-1.452V15.6a4.954,4.954,0,0,0-1.117-3.137,3.977,3.977,0,0,0-3.113-1.456h-.288Z" transform="translate(-15.669 -6.719)"/>
            <path id="path34148" class="cls-2" d="M4.436,11H4.358a3.981,3.981,0,0,0-2.771,1.65,5.059,5.059,0,0,0-.95,2.934v2.23a.728.728,0,1,0,0,1.456v4.394a.121.121,0,0,0,.125.121h.545a.125.125,0,0,0,.125-.125h0a.148.148,0,0,0,0-.058v-8h0a4.3,4.3,0,0,1,.778-2.436,3.176,3.176,0,0,1,2.242-1.354H5.1a.125.125,0,0,0,.125-.125v-.553a.125.125,0,0,0-.125-.125H4.44Z" transform="translate(0.09 -6.719)"/>
          </g>
        </g>
      </g>
    </g>
  </g>
</svg>
