<svg xmlns="http://www.w3.org/2000/svg" width="48.568" height="42.5" viewBox="0 0 48.568 42.5">
  <defs>
    <style>
      .cls-1 {
        fill: #cbffba;
        stroke: #171717;
        stroke-width: 2px;
      }

      .cls-2 {
        fill: #171717;
      }
    </style>
  </defs>
  <g id="ic_Nutrition" transform="translate(-9130.936 8916)">
    <path id="Path_637956" data-name="Path 637956" class="cls-1" d="M9138-8869.309v-40.5h39.51l7,19.787-7,20.713Z" transform="translate(-6.064 -5.191)"/>
    <path id="Union_169" data-name="Union 169" class="cls-2" d="M22,24.888a26.783,26.783,0,0,0,0-4.115c-.144-.168-.872-1.185-1.32-1.813a2.371,2.371,0,0,1-.351.41,2.354,2.354,0,1,1-2.6-3.856,3,3,0,0,1,2.263-3.572,3.853,3.853,0,0,1,7.292-.066,3,3,0,0,1,2.784,2.988,3.061,3.061,0,0,1-.042.505,2.354,2.354,0,1,1-2.191,4.01,2.393,2.393,0,0,1-.222-.233,7.641,7.641,0,0,0-1.15,2.348v3.394Zm3.555-4.774,1.183-2.273a3,3,0,0,1-1.035-.312C25.59,18.537,25.554,20.114,25.554,20.114ZM21.2,17.81l1.866,2.3c0-.111,0-.287,0-.559a4.189,4.189,0,0,0-.9-2.1A2.993,2.993,0,0,1,21.2,17.81Zm3.158,1.218.29-2.155a3.856,3.856,0,0,1-1,.132c-.061,0-.121,0-.182,0ZM19.8,14.009a.856.856,0,1,0,.856-.855A.857.857,0,0,0,19.8,14.009Zm1.711-1.925a.642.642,0,1,0,.642-.642A.643.643,0,0,0,21.507,12.083ZM8.429,22.184C5.61,21.414,2.273,18.4.665,15.166c-.807-1.623-.876-2.822-.229-4.009.707-1.3,2.265-2.57,4.389-4.082a9.621,9.621,0,0,1,5.7-1.753,12.31,12.31,0,0,1,4.308.782l1.956-1.911c-.035-.086-.841-2.091-.184-3.284A1.764,1.764,0,0,1,17.949.041,2.8,2.8,0,0,1,18.407,0c.952,0,1.2.626,1.335,1.3.021.109.039.218.056.322.086.526.16.98.57.98a.856.856,0,0,0,.265-.049,2.044,2.044,0,0,1,.643-.108,1.61,1.61,0,0,1,1.339.68,2.179,2.179,0,0,1,.155,2.006c-.259.72-.9,1.056-2.01,1.056a9.939,9.939,0,0,1-1.014-.065l-.115-.012c-.271-.028-.5-.052-.686-.052a.718.718,0,0,0-.292.043c-.545.261-1.977,1.63-1.861,2.05.073.26.187,1.306.288,2.229l.019.179a11.763,11.763,0,0,1-1.057,5.988A12.429,12.429,0,0,1,13.9,19.6c-.092.1-.17.188-.239.267s-.144.167-.221.259a5.006,5.006,0,0,1-3.781,2.233A4.68,4.68,0,0,1,8.429,22.184ZM1.572,11.29c-.61.61-.685,1.683-.21,3.022a11.464,11.464,0,0,0,2.724,4.064,12.692,12.692,0,0,0,2.959,2.233,5.967,5.967,0,0,0,2.681.8,1.964,1.964,0,0,0,1.447-.517c1.26-1.261.133-4.44-2.514-7.086A12.713,12.713,0,0,0,5.7,11.571a5.97,5.97,0,0,0-2.681-.8A1.963,1.963,0,0,0,1.572,11.29ZM5.915,8.979a.97.97,0,1,0,.97-.97A.971.971,0,0,0,5.915,8.979ZM9.148,7.363a.646.646,0,1,0,.646-.646A.647.647,0,0,0,9.148,7.363ZM5.458,17c-1.136-1.136-1.75-2.364-1.371-2.743s1.607.235,2.743,1.371S8.58,18,8.2,18.376a.439.439,0,0,1-.322.112A4.52,4.52,0,0,1,5.458,17Z" transform="translate(9135.954 -8907.306)"/>
  </g>
</svg>
