<svg xmlns="http://www.w3.org/2000/svg" width="48.059" height="42" viewBox="0 0 48.059 42"><defs><style>.a{fill:#f0bcee;stroke:#171717;stroke-width:2px;}</style></defs><g transform="translate(-9131 8916)"><path class="a" d="M9177.077-8869.809l6.923-20.64-6.923-19.36H9138v40Z" transform="translate(-6 -5.191)"/><g transform="translate(8984.285 -8810.604)"><path d="M167.591-99.21a14.637,14.637,0,0,1,8.823,2.138,1.284,1.284,0,0,1,.476,2.008,5.929,5.929,0,0,0-.716,2.029c-.232,1.867-.955,2.642-2.825,2.792a5.158,5.158,0,0,0-4.886,4.836,1.367,1.367,0,0,0,1.193,1.559c.694.055,1.242-.466,1.368-1.3.263-1.733.961-2.4,2.655-2.546a5.152,5.152,0,0,0,5-4.823,1.591,1.591,0,0,1,.805-1.157,1.464,1.464,0,0,1,1.258.6,20.561,20.561,0,0,1,2.959,7.527A15.293,15.293,0,0,1,178.45-72.33a14.773,14.773,0,0,1-11.576,3.467A15.311,15.311,0,0,1,153.739-82.83a15.88,15.88,0,0,1,5.693-13.181A14.966,14.966,0,0,1,167.591-99.21Zm9.742,23.476a1.07,1.07,0,0,0-.4-.416l-.061-.04a4.831,4.831,0,0,1-1.427-1.339c-.931-1.41-1.758-2.889-2.634-4.335a1.615,1.615,0,0,0-1.614-.842,1.666,1.666,0,0,0-1.49,1.179c-.193.549-.357,1.109-.533,1.665a2.9,2.9,0,0,1-3.884,2.21.592.592,0,0,1-.468-.646c.077-.476.611-.58,1.009-.583a1.886,1.886,0,0,0,1.711-1.072,9.565,9.565,0,0,0,.622-1.925.81.81,0,0,0-.279-.725,1.107,1.107,0,0,0-.857.082c-.344.177-.495.584-.863.738-.6.248-1.022-.2-1.531-.421a4.064,4.064,0,0,0-2.036-.408c-.254.027-.429-.337-.428-.517.005-.768,1.473-.528,1.916-.471.976.127,1.646.044,1.793-1.114a5.107,5.107,0,0,0-5.51-5.639,4.856,4.856,0,0,0-4.439,3.421,5.007,5.007,0,0,0,1.425,5.512,2.771,2.771,0,0,1,.89,1.517,10.659,10.659,0,0,0,3.638,7.06,6.539,6.539,0,0,0,2.817,1.459c2.565.638,4.589-.461,6.3-2.329a2.582,2.582,0,0,0,.843-1.976c-.081-.748-.683-1.307-.6-2.092a.148.148,0,0,1,.035-.1.149.149,0,0,1,.114-.024c1.064.076,1.741,1.061,2.4,1.78a3.285,3.285,0,0,0,1.1.8,3.167,3.167,0,0,0,1.256.273C177.358-75.045,177.413-75.557,177.333-75.735Z" transform="translate(0 0)"/></g></g></svg>