<svg id="ic_diabisa_active" xmlns="http://www.w3.org/2000/svg" width="48" height="48" viewBox="0 0 48 48">
  <rect id="Rectangle_906" data-name="Rectangle 906" width="48" height="48" fill="none"/>
  <path id="Path_640803" data-name="Path 640803" d="M24.647,19.663a1.91,1.91,0,0,0-.1-.239l.005.011c-.146-.341-1.32-2.609-1.516-2.918L17.581,6l-5.59,10.776c-.19.31-1.232,2.32-1.376,2.66l-.057.126A7.458,7.458,0,0,0,10,22.417a7.582,7.582,0,1,0,15.164,0V22.31a7.009,7.009,0,0,0-.535-2.7l.017.047Zm-7.062,8.355a5.585,5.585,0,0,1-4.9-8.269l-.015.029a6.393,6.393,0,0,0-.11,1.181h0a6.7,6.7,0,0,0,6.7,6.7c.113,0,.234,0,.346-.006a5.53,5.53,0,0,1-2,.368h-.015Z" transform="translate(6.418 6.001)" fill="#171717"/>
</svg>
