<svg xmlns="http://www.w3.org/2000/svg" width="36" height="38" viewBox="0 0 36 38"><defs><style>.a{fill:none;}.b{fill:#171717;}</style></defs><g transform="translate(-16 -154)"><path class="a" d="M0,0H36V38H0Z" transform="translate(16 154)"/><g transform="translate(0.555 2)"><rect class="b" width="17" height="3" rx="1.5" transform="translate(28.445 172)"/><rect class="b" width="4" height="3" rx="1.5" transform="translate(21.445 172)"/><rect class="b" width="17" height="3" rx="1.5" transform="translate(28.445 179)"/><rect class="b" width="4" height="3" rx="1.5" transform="translate(21.445 179)"/><path class="b" d="M9.554-2.12v2.9H7.491V-7.775h3.415a4.156,4.156,0,0,1,1.387.217,3.05,3.05,0,0,1,1.046.605,2.628,2.628,0,0,1,.658.92,2.9,2.9,0,0,1,.229,1.161A2.7,2.7,0,0,1,14-3.742a2.437,2.437,0,0,1-.658.867,3.034,3.034,0,0,1-1.046.558,4.554,4.554,0,0,1-1.387.2Zm0-1.593h1.352a1.615,1.615,0,0,0,.555-.085,1.016,1.016,0,0,0,.382-.238.935.935,0,0,0,.22-.364,1.442,1.442,0,0,0,.071-.459,1.76,1.76,0,0,0-.071-.5,1.182,1.182,0,0,0-.22-.42,1.078,1.078,0,0,0-.382-.291,1.3,1.3,0,0,0-.555-.109H9.554ZM16.849.843V-7.716h2.757a4.164,4.164,0,0,1,1.6.3,3.662,3.662,0,0,1,1.255.844,3.853,3.853,0,0,1,.82,1.3,4.542,4.542,0,0,1,.294,1.661v.359a4.536,4.536,0,0,1-.294,1.664A3.827,3.827,0,0,1,22.459-.3,3.7,3.7,0,0,1,21.21.543a4.088,4.088,0,0,1-1.581.3Zm2.063-6.966V-.745h.717a1.605,1.605,0,0,0,1.364-.632,3.1,3.1,0,0,0,.476-1.878v-.37a3.071,3.071,0,0,0-.476-1.869,1.633,1.633,0,0,0-1.387-.629Z" transform="translate(20.872 166.928)"/><rect class="b" width="2" height="9" transform="translate(22.445 159)"/></g></g></svg>