<svg xmlns="http://www.w3.org/2000/svg" width="153.5" height="28" viewBox="0 0 153.5 28">
    <defs>
        <style>
            .cls-1{fill:#1a2269}.cls-2{fill:#1a2268}.cls-3{fill:#4d9b35}.cls-4,.cls-7{fill:none}.cls-5{fill:#e5b001}.cls-6{clip-path:url(#clip-path)}.cls-7{stroke:#fff;stroke-linecap:round;stroke-linejoin:round;stroke-width:1.3px}
        </style>
        <clipPath id="clip-path">
            <path id="Union_166" d="M5.526 25.484A4.7 4.7 0 0 1 .84 20.8V8.845A4.672 4.672 0 0 1 3.027 4.88a4.327 4.327 0 0 1 .614-.241 4.734 4.734 0 0 0-1.628 3.546 4.728 4.728 0 0 1 1.628-3.544c.07-.063.151-.126.222-.179a4.656 4.656 0 0 1 1.467-.755L16.77.2a4.7 4.7 0 0 1 5.848 3.11l3.5 11.441a4.622 4.622 0 0 1 .174 1.9 4.7 4.7 0 0 1-3.273 3.949l-.844.257v-4.201h-.01v4.205l-3.085.939-7.509 2.3a4.65 4.65 0 0 1-1.356.2 4.65 4.65 0 0 0 1.364-.2l7.511-2.3 3.083-.942a4.69 4.69 0 0 1-4.035 4.579 5.2 5.2 0 0 1-.649.044zm16.649-8.828V8.834a4.7 4.7 0 0 0-4.686-4.684 4.691 4.691 0 0 1 4.676 4.694v7.812z" class="cls-1" data-name="Union 166"/>
        </clipPath>
    </defs>
    <g id="ic_Logo_Big" transform="translate(-316 -4.143)">
        <g id="Group_5594" data-name="Group 5594" transform="translate(354.011 9.898)">
            <g id="Asset_3" data-name="Asset 3">
                <g id="Layer_1" data-name="Layer 1">
                    <g id="Group_2992" data-name="Group 2992">
                        <g id="Group_267" data-name="Group 267">
                            <path id="Path_531" d="M150.771 67.222c0 2.109 1.351 2.757 3.189 2.811 1.352.054 2.7-.486 2.7-1.622 0-1.514-2.487-1.784-4.706-2.432-2.265-.647-4.268-1.618-4.268-4.48 0-3.352 3.191-4.759 5.949-4.759 3.082 0 6.38 1.352 6.218 5.294h-3.68c.054-1.73-1.19-2.271-2.811-2.271-.858 0-2.055.429-2.055 1.459-.109 1.461 2.757 1.574 5.136 2.272 2.488.757 3.895 2.163 3.895 4.38 0 3.136-2.326 5.084-6.438 5.084-4.38 0-6.922-2.163-6.759-5.786h3.623z" class="cls-2" data-name="Path 531" transform="translate(-147.138 -56.74)"/>
                            <path id="Rectangle_122" d="M0 0h3.461v11.41H0z" class="cls-2" data-name="Rectangle 122" transform="translate(14.015 4.59)"/>
                            <path id="Rectangle_123" d="M0 0h3.461v15.358H0z" class="cls-2" data-name="Rectangle 123" transform="translate(18.45 .588)"/>
                            <path id="Path_532" d="M313.343 86.55c3.893 0 6.009 2.542 6.009 6.056 0 3.407-2.109 5.895-6.056 5.895a5.564 5.564 0 0 1-5.786-5.895c0-3.515 2.109-6.056 5.84-6.056m.053 9.3c1.784 0 2.488-1.4 2.488-3.245 0-1.514-.541-3.352-2.432-3.352-1.73 0-2.488 1.352-2.488 3.244.054 1.515.541 3.354 2.432 3.354" class="cls-2" data-name="Path 532" transform="translate(-284.565 -82.285)"/>
                            <path id="Path_533" d="M396.107 90.637A3.741 3.741 0 0 1 398 87.285a7.915 7.915 0 0 1 3.628-.757c1.136 0 4.976.054 4.976 3.291v5.463a4.582 4.582 0 0 0 .594 2.862h-3.63a6.1 6.1 0 0 1-.216-.811 5.478 5.478 0 0 1-3.731 1.082c-2.271-.053-3.731-1.189-3.731-3.514 0-3.624 3.461-3.354 6.22-3.84.757-.162 1.082-.27 1.082-.973 0-.974-.974-1.19-1.731-1.136-1.459.054-1.675.65-1.783 1.677h-3.57zm4.759 5.408c1.784 0 2.325-.973 2.218-2.975a10.314 10.314 0 0 1-2.272.429c-.918.163-1.574.541-1.574 1.352 0 .974.811 1.19 1.622 1.19" class="cls-2" data-name="Path 533" transform="translate(-360.299 -82.263)"/>
                            <path id="Path_534" d="M480.19 86.883h3.243v1.082h.054a3.934 3.934 0 0 1 3.3-1.405c.594 0 2.487.216 3.082 1.622a3.866 3.866 0 0 1 3.457-1.622c3.352 0 4.11 2.432 4.056 3.947v7.726h-3.457v-7.024c0-1.4-.65-1.837-1.574-1.837-1.515 0-1.731 1.189-1.784 2.271v6.6h-3.455v-6.926c0-1.461-.486-1.947-1.514-1.947a1.869 1.869 0 0 0-1.893 2v6.813h-3.461v-11.3z" class="cls-2" data-name="Path 534" transform="translate(-432.538 -82.293)"/>
                            <path id="Path_535" d="M247.518 61.494a1.784 1.784 0 1 1-1.783-1.784 1.8 1.8 0 0 1 1.783 1.784" class="cls-2" data-name="Path 535" transform="translate(-230.099 -59.285)"/>
                        </g>
                        <g id="Group_268" data-name="Group 268" transform="translate(69.57 .093)">
                            <g id="EMR">
                                <g id="Group_2998" data-name="Group 2998">
                                    <path id="Path_34599" d="M633.38 57.39h11.12v2.336h-8.416v4.046h7.789v2.206h-7.789V70.5h8.567v2.336H633.38z" class="cls-3" data-name="Path 34599" transform="translate(-633.38 -57.39)"/>
                                    <path id="Path_34600" d="M728.331 57.39h3.814l4.262 12.093h.043l4.15-12.093h3.764v15.452h-2.575V60.911h-.044l-4.284 11.92h-2.229l-4.284-11.92h-.043v11.92h-2.575z" class="cls-3" data-name="Path 34600" transform="translate(-714.745 -57.39)"/>
                                    <path id="Path_34601" d="M863.06 57.39h7.377a5.726 5.726 0 0 1 3.829 1.1 3.838 3.838 0 0 1 1.276 3.072 4.465 4.465 0 0 1-.329 1.829 3.978 3.978 0 0 1-.757 1.169 3.006 3.006 0 0 1-.859.638 7.434 7.434 0 0 1-.617.259v.043a2.851 2.851 0 0 1 .747.216 2.218 2.218 0 0 1 .745.552 3.016 3.016 0 0 1 .572.984 4.349 4.349 0 0 1 .228 1.514 13.707 13.707 0 0 0 .2 2.478 3.27 3.27 0 0 0 .638 1.59h-2.889a2.52 2.52 0 0 1-.356-1.1c-.037-.4-.054-.793-.054-1.169a11.017 11.017 0 0 0-.13-1.827 3.177 3.177 0 0 0-.475-1.276 2.024 2.024 0 0 0-.941-.747 4.151 4.151 0 0 0-1.525-.237h-3.97v6.36h-2.7zm2.71 7.031h4.436a2.814 2.814 0 0 0 1.969-.617 2.391 2.391 0 0 0 .671-1.85 2.863 2.863 0 0 0-.216-1.2 1.76 1.76 0 0 0-.6-.724 2.173 2.173 0 0 0-.865-.346 5.783 5.783 0 0 0-1-.087h-4.4z" class="cls-3" data-name="Path 34601" transform="translate(-830.198 -57.39)"/>
                                </g>
                            </g>
                        </g>
                    </g>
                </g>
            </g>
        </g>
        <g id="Group_9217" data-name="Group 9217" transform="translate(18487 24732.143)">
            <path id="Rectangle_11659" d="M0 0h28v28H0z" class="cls-4" data-name="Rectangle 11659" transform="translate(-18171 -24728)"/>
            <g id="Group_9216" data-name="Group 9216" transform="translate(-18170.467 -24726.756)">
                <path id="Path_35379" d="M55.449 69.364l-7.511 2.3a4.7 4.7 0 0 1-5.849-3.111l-3.511-11.44A4.7 4.7 0 0 1 40 52.2a4.372 4.372 0 0 0-.613.24A4.672 4.672 0 0 0 37.2 56.4v11.96a4.7 4.7 0 0 0 4.684 4.684h11.965A5.186 5.186 0 0 0 54.5 73a4.691 4.691 0 0 0 4.036-4.578z" class="cls-5" data-name="Path 35379" transform="translate(-36.359 -47.56)"/>
                <path id="Path_35380" d="M93.458 14.754l-3.5-11.44A4.7 4.7 0 0 0 84.107.2l-11.44 3.5a4.685 4.685 0 0 0-1.467.756 4.681 4.681 0 0 1 1.662-.311h11.965a4.7 4.7 0 0 1 4.684 4.684v12.032l.844-.258a4.694 4.694 0 0 0 3.103-5.849z" class="cls-3" data-name="Path 35380" transform="translate(-67.336 .001)"/>
                <path id="Path_35381" d="M65.867 46.7H53.9a4.493 4.493 0 0 0-1.662.311 3.844 3.844 0 0 0-.222.178A4.7 4.7 0 0 0 50.6 52.1l3.5 11.44a4.7 4.7 0 0 0 5.849 3.111l7.511-2.3 3.084-.942V51.393a4.691 4.691 0 0 0-4.677-4.693z" class="cls-2" data-name="Path 35381" transform="translate(-48.377 -42.549)"/>
                <g id="Mask_Group_160" class="cls-6" data-name="Mask Group 160" transform="translate(0 .001)">
                    <path id="Path_35382" d="M-18185.148-24653.531h6.361l2.635-7.449 2.324 12.277 2.531-9.3 1.7 7.059 2.027-12.531 2.332 9.945h9.578" class="cls-7" data-name="Path 35382" transform="translate(18183.9 24670.184)"/>
                </g>
            </g>
        </g>
    </g>
</svg>
