<svg xmlns="http://www.w3.org/2000/svg" width="28" height="28" viewBox="0 0 28 28">
    <defs>
        <style>
            .cls-1{fill:#1a2269}.cls-2,.cls-7{fill:none}.cls-3{fill:#e5b001}.cls-4{fill:#4d9b35}.cls-5{fill:#1a2268}.cls-6{clip-path:url(#clip-path)}.cls-7{stroke:#fff;stroke-linecap:round;stroke-linejoin:round;stroke-width:1.3px}
        </style>
        <clipPath id="clip-path">
            <path id="Union_166" d="M5.526 25.484A4.7 4.7 0 0 1 .84 20.8V8.845A4.672 4.672 0 0 1 3.027 4.88a4.327 4.327 0 0 1 .614-.241 4.734 4.734 0 0 0-1.628 3.546 4.728 4.728 0 0 1 1.628-3.544c.07-.063.151-.126.222-.179a4.656 4.656 0 0 1 1.467-.755L16.77.2a4.7 4.7 0 0 1 5.848 3.11l3.5 11.441a4.622 4.622 0 0 1 .174 1.9 4.7 4.7 0 0 1-3.273 3.949l-.844.257v-4.201h-.01v4.205l-3.085.939-7.509 2.3a4.65 4.65 0 0 1-1.356.2 4.65 4.65 0 0 0 1.364-.2l7.511-2.3 3.083-.942a4.69 4.69 0 0 1-4.035 4.579 5.2 5.2 0 0 1-.649.044zm16.649-8.828V8.834a4.7 4.7 0 0 0-4.686-4.684 4.691 4.691 0 0 1 4.676 4.694v7.812z" class="cls-1" data-name="Union 166"/>
        </clipPath>
    </defs>
    <g id="ic_Logo_Small" transform="translate(18171 24728)">
        <path id="Rectangle_11659" d="M0 0h28v28H0z" class="cls-2" data-name="Rectangle 11659" transform="translate(-18171 -24728)"/>
        <g id="Group_9216" data-name="Group 9216" transform="translate(-18170.467 -24726.756)">
            <path id="Path_35379" d="M55.449 69.364l-7.511 2.3a4.7 4.7 0 0 1-5.849-3.111l-3.511-11.44A4.7 4.7 0 0 1 40 52.2a4.372 4.372 0 0 0-.613.24A4.672 4.672 0 0 0 37.2 56.4v11.96a4.7 4.7 0 0 0 4.684 4.684h11.965A5.186 5.186 0 0 0 54.5 73a4.691 4.691 0 0 0 4.036-4.578z" class="cls-3" data-name="Path 35379" transform="translate(-36.359 -47.56)"/>
            <path id="Path_35380" d="M93.458 14.754l-3.5-11.44A4.7 4.7 0 0 0 84.107.2l-11.44 3.5a4.685 4.685 0 0 0-1.467.756 4.681 4.681 0 0 1 1.662-.311h11.965a4.7 4.7 0 0 1 4.684 4.684v12.032l.844-.258a4.694 4.694 0 0 0 3.103-5.849z" class="cls-4" data-name="Path 35380" transform="translate(-67.336 .001)"/>
            <path id="Path_35381" d="M65.867 46.7H53.9a4.493 4.493 0 0 0-1.662.311 3.844 3.844 0 0 0-.222.178A4.7 4.7 0 0 0 50.6 52.1l3.5 11.44a4.7 4.7 0 0 0 5.849 3.111l7.511-2.3 3.084-.942V51.393a4.691 4.691 0 0 0-4.677-4.693z" class="cls-5" data-name="Path 35381" transform="translate(-48.377 -42.549)"/>
            <g id="Mask_Group_160" class="cls-6" data-name="Mask Group 160" transform="translate(0 .001)">
                <path id="Path_35382" d="M-18185.148-24653.531h6.361l2.635-7.449 2.324 12.277 2.531-9.3 1.7 7.059 2.027-12.531 2.332 9.945h9.578" class="cls-7" data-name="Path 35382" transform="translate(18183.9 24670.184)"/>
            </g>
        </g>
    </g>
</svg>
