<svg xmlns="http://www.w3.org/2000/svg" width="36" height="36" viewBox="0 0 36 36">
    <defs>
        <style>
            .cls-1{fill:#f88805}.cls-2{fill:#fff}
        </style>
    </defs>
    <g id="ic_OrderSet" transform="translate(-737 -8)">
        <rect id="Rectangle_906" width="36" height="36" class="cls-1" data-name="Rectangle 906" rx="4" transform="translate(737 8)"/>
        <path id="Union_120" d="M17.784 24.295H1.017a1.013 1.013 0 0 1-.881-1.52l7.233-12.664h4.053l7.244 12.664a1.014 1.014 0 0 1-.877 1.52zm-15-2.887c-.274.384.071.861.628.861h11.971c.558 0 .912-.507.639-.861l-3.587-7.244H6.357zm2.563-1.672a1.52 1.52 0 1 1 1.519 1.52 1.519 1.519 0 0 1-1.523-1.521zM8.383 17.2A1.013 1.013 0 1 1 9.4 18.216 1.013 1.013 0 0 1 8.383 17.2zm-1.014-7.089V.993h4.053v9.118zM6.606.507a.25.25 0 0 1-.249-.25V.25A.249.249 0 0 1 6.606 0h5.579a.25.25 0 0 1 .25.25v.007a.251.251 0 0 1-.25.25z" class="cls-2" data-name="Union 120" transform="translate(750.654 14)"/>
        <path id="Path_34747" d="M16.081 1.269a4.24 4.24 0 0 0-5.94-.108L1.5 9.8a4.483 4.483 0 0 0-.324 6.372c1.728 1.728 4.428 1.62 6.372-.324l8.64-8.64a4.24 4.24 0 0 0-.107-5.939zM7.333 14.877a4.033 4.033 0 0 1-3.024 1.512 3.6 3.6 0 0 1-2.484-.972 3.421 3.421 0 0 1-.972-2.484 4.033 4.033 0 0 1 1.512-3.024l2.16-2.16 5.832-5.832.216-.216a3.18 3.18 0 0 1 2.7-.864.489.489 0 0 1-.108.972 2.341 2.341 0 0 0-1.944.54l-.108.108L6.577 7.1l4.212 4.212z" class="cls-2" data-name="Path 34747" transform="rotate(-14 456.17 -2993.957)"/>
    </g>
</svg>
