<svg xmlns="http://www.w3.org/2000/svg" width="36" height="38" viewBox="0 0 36 38"><defs><style>.a{fill:none;}.b{fill:#171717;}</style></defs><g transform="translate(-16 -154)"><path class="a" d="M0,0H36V38H0Z" transform="translate(16 154)"/><g transform="translate(0.555 2)"><rect class="b" width="17" height="3" rx="1.5" transform="translate(28.445 172)"/><rect class="b" width="4" height="3" rx="1.5" transform="translate(21.445 172)"/><rect class="b" width="17" height="3" rx="1.5" transform="translate(28.445 179)"/><rect class="b" width="4" height="3" rx="1.5" transform="translate(21.445 179)"/><path class="b" d="M4.062-3.354a5.271,5.271,0,0,1-.276,1.763A3.861,3.861,0,0,1,3.013-.263,3.344,3.344,0,0,1,1.831.575a3.8,3.8,0,0,1-1.5.291A3.875,3.875,0,0,1-1.19.575,3.332,3.332,0,0,1-2.377-.263,3.861,3.861,0,0,1-3.15-1.591a5.271,5.271,0,0,1-.276-1.763V-3.7a5.322,5.322,0,0,1,.273-1.763,3.824,3.824,0,0,1,.77-1.328A3.37,3.37,0,0,1-1.2-7.634,3.82,3.82,0,0,1,.318-7.928a3.79,3.79,0,0,1,1.5.294,3.37,3.37,0,0,1,1.184.841,3.9,3.9,0,0,1,.776,1.328A5.22,5.22,0,0,1,4.062-3.7Zm-2.1-.359A3.6,3.6,0,0,0,1.537-5.65a1.367,1.367,0,0,0-1.22-.661A1.357,1.357,0,0,0-.92-5.65a3.726,3.726,0,0,0-.409,1.937v.359A3.7,3.7,0,0,0-.911-1.421a1.365,1.365,0,0,0,1.24.676A1.35,1.35,0,0,0,1.54-1.418a3.657,3.657,0,0,0,.423-1.937ZM7.554-2.12v2.9H5.491V-7.775H8.906a4.156,4.156,0,0,1,1.387.217,3.05,3.05,0,0,1,1.046.605,2.628,2.628,0,0,1,.658.92,2.9,2.9,0,0,1,.229,1.161A2.7,2.7,0,0,1,12-3.742a2.437,2.437,0,0,1-.658.867,3.034,3.034,0,0,1-1.046.558,4.554,4.554,0,0,1-1.387.2Zm0-1.593H8.906A1.615,1.615,0,0,0,9.461-3.8a1.016,1.016,0,0,0,.382-.238.935.935,0,0,0,.22-.364,1.442,1.442,0,0,0,.071-.459,1.76,1.76,0,0,0-.071-.5,1.182,1.182,0,0,0-.22-.42,1.078,1.078,0,0,0-.382-.291,1.3,1.3,0,0,0-.555-.109H7.554ZM13.849.843V-7.716h2.757a4.164,4.164,0,0,1,1.6.3,3.662,3.662,0,0,1,1.255.844,3.853,3.853,0,0,1,.82,1.3,4.542,4.542,0,0,1,.294,1.661v.359a4.536,4.536,0,0,1-.294,1.664A3.827,3.827,0,0,1,19.459-.3,3.7,3.7,0,0,1,18.21.543a4.088,4.088,0,0,1-1.581.3Zm2.063-6.966V-.745h.717a1.605,1.605,0,0,0,1.364-.632,3.1,3.1,0,0,0,.476-1.878v-.37a3.071,3.071,0,0,0-.476-1.869,1.633,1.633,0,0,0-1.387-.629Z" transform="translate(24.872 166.928)"/></g></g></svg>