<svg xmlns="http://www.w3.org/2000/svg" width="36" height="36" viewBox="0 0 36 36"><g fill="#d6dbff" stroke="#bdbfd8" stroke-width="1" opacity="0"><rect width="36" height="36" rx="4" stroke="none"/><rect x="0.5" y="0.5" width="35" height="35" rx="3.5" fill="none"/></g><g transform="translate(-35.333 -306.832)"><g transform="translate(41.333 331.217) rotate(-45)" fill="#fff"><path d="M 17 6 L 9.151229858398438 6 C 7.431089878082275 6 5.342460155487061 5.283949851989746 3.700409889221191 4.131269931793213 C 2.383340358734131 3.20672345161438 1.497308135032654 2.104709625244141 1.156465411186218 1 L 14.18181991577148 1 C 15.7357702255249 1 17 2.264230012893677 17 3.818180084228516 L 17 6 Z" stroke="none"/><path d="M 2.831438064575195 2 C 4.197652816772461 3.67454719543457 6.982213020324707 5 9.151229858398438 5 L 16 5 L 16 3.818180084228516 C 16 2.815629959106445 15.18437004089355 2 14.18181991577148 2 L 2.831438064575195 2 M 0 0 L 14.18181991577148 0 C 16.29054069519043 0 18 1.709459781646729 18 3.818180084228516 L 18 7 L 9.151229858398438 7 C 5.285240173339844 7 0 3.865989923477173 0 0 Z" stroke="none" fill="#190606"/></g><g transform="translate(49.818 322.731) rotate(-45)" fill="#fff" stroke="#190606" stroke-width="2"><path d="M0,0H10.5A3.5,3.5,0,0,1,14,3.5v0A3.5,3.5,0,0,1,10.5,7H4.813A4.813,4.813,0,0,1,0,2.188V0A0,0,0,0,1,0,0Z" stroke="none"/><path d="M1.357,1H10.5A2.5,2.5,0,0,1,13,3.5v0A2.5,2.5,0,0,1,10.5,6H4.571A3.571,3.571,0,0,1,1,2.429V1.357A.357.357,0,0,1,1.357,1Z" fill="none"/></g><line x1="10" transform="translate(54.5 331.5)" stroke-dasharray="3 4" stroke="#190606" stroke-linecap="round" stroke-width="2" fill="none"/></g></svg>