<svg xmlns="http://www.w3.org/2000/svg" width="23.996" height="24.002" viewBox="0 0 23.996 24.002">
    <defs>
        <style>
            .cls-1{fill:#171717}
        </style>
    </defs>
    <path id="ic_PreviousCalendar" d="M-4604 21840.006a4.01 4.01 0 0 1-4-4v-16a4.006 4.006 0 0 1 4-4h16a4 4 0 0 1 4 4v16a4.005 4.005 0 0 1-4 4zm-3-20v16a3.008 3.008 0 0 0 3 3h16a3 3 0 0 0 3-3v-16a3 3 0 0 0-3-3h-16a3 3 0 0 0-3 3zm7.279 8.281l5.086-4.994 1.173 1.107-3.76 3.887 3.76 3.891-1.173 1.119z" class="cls-1" transform="translate(4608 -21816.004)"/>
</svg>
