<svg xmlns="http://www.w3.org/2000/svg" width="36" height="36" viewBox="0 0 36 36">
    <defs>
        <style>
            .cls-1{fill:none}.cls-2{fill:#171717}
        </style>
    </defs>
    <g id="ic_Result" transform="translate(-737 -8)">
        <rect id="Rectangle_906" width="36" height="36" class="cls-1" data-name="Rectangle 906" rx="4" transform="translate(737 8)"/>
        <g id="Group_7432" data-name="Group 7432" transform="translate(741.5 12.5)">
            <g id="ic_Result-2" data-name="ic_Result">
                <g id="Bounding_Boxes">
                    <path id="Path_3187" d="M0 0h27v27H0z" class="cls-1" data-name="Path 3187"/>
                </g>
                <g id="Group_7429" data-name="Group 7429" transform="translate(19641.5 -19918.5)">
                    <path id="Subtraction_602" d="M6.693 13.386a6.693 6.693 0 1 1 6.692-6.692 6.7 6.7 0 0 1-6.692 6.692zm-.73-11.713a.458.458 0 0 0-.063.913v3.035l-2.824 4.943a.4.4 0 0 0 .344.594h6.546a.4.4 0 0 0 .345-.594L7.483 5.621V2.586a.459.459 0 0 0-.064-.913zm2.883 8.694H4.588a.29.29 0 0 1-.261-.139.185.185 0 0 1 .016-.2L5.5 7.773h2.373L9.1 10.031a.173.173 0 0 1 .016.188.292.292 0 0 1-.27.148z" class="cls-2" data-name="Subtraction 602" transform="translate(-19642.139 19918.775)"/>
                    <path id="Subtraction_603" d="M6.693 13.386A6.693 6.693 0 0 1 1.96 1.96a6.693 6.693 0 1 1 9.465 9.465 6.65 6.65 0 0 1-4.732 1.961zM3.261 8.467a1.339 1.339 0 0 1 .788.409 2.857 2.857 0 0 0 .56.852 2.9 2.9 0 0 0 2.045.916h.092a4 4 0 0 0 2.679-1.4 4.785 4.785 0 0 0 1.489-3.133 2.821 2.821 0 0 0-.7-1.788 2.014 2.014 0 0 0-1.469-.71 1.7 1.7 0 0 0-1 .327 2.193 2.193 0 0 1-.459-1.565H6.26a4.02 4.02 0 0 0 .407 2.156 3.163 3.163 0 0 1-.3 2.847 2.661 2.661 0 0 1-2.06 1.01 1.985 1.985 0 0 0-1.152-.536.907.907 0 0 0-.368.076c-.668.294-.657 1.163-.652 1.533v.076h.516c-.013-.081-.1-.778.352-1.006a.53.53 0 0 1 .258-.064z" class="cls-2" data-name="Subtraction 603" transform="translate(-19634.561 19931.814)"/>
                    <path id="Subtraction_605" d="M6.693 13.386A6.693 6.693 0 0 1 1.96 1.96a6.693 6.693 0 1 1 9.465 9.465 6.65 6.65 0 0 1-4.732 1.961zm1.233-6.469A1.164 1.164 0 0 1 7.26 7.97L9 11.791a5.364 5.364 0 0 0 3.112-4.874zm-6.536 0a5.377 5.377 0 0 0 3.11 4.874L6.243 7.96A1.166 1.166 0 0 1 5.6 6.917zm5.372-1.165a1.161 1.161 0 0 1 .644.194L9.8 2.477a5.728 5.728 0 0 0-.363-.229A5.4 5.4 0 0 0 8.121 1.7a5.387 5.387 0 0 0-4.462.8l2.459 3.44a1.163 1.163 0 0 1 .644-.188z" class="cls-2" data-name="Subtraction 605" transform="translate(-19626.984 19918.775)"/>
                </g>
            </g>
        </g>
    </g>
</svg>
