<svg xmlns="http://www.w3.org/2000/svg" width="36" height="36" viewBox="0 0 36 36">
    <defs>
        <style>
            .cls-1,.cls-2{fill:none}.cls-2{opacity:.87}.cls-3{fill:#171717}
        </style>
    </defs>
    <g id="ic_SOAP" transform="translate(-641 -8)">
        <rect id="Rectangle_908" width="36" height="36" class="cls-1" data-name="Rectangle 908" rx="4" transform="translate(641 8)"/>
        <g id="ic_FirstAnalysis" transform="translate(642 9)">
            <g id="Bounding_Boxes">
                <path id="Path_3185" d="M0 0h34v34H0z" class="cls-1" data-name="Path 3185"/>
            </g>
            <g id="Group_1883" data-name="Group 1883" transform="translate(2.833 2.833)">
                <g id="Bounding_Boxes-2" data-name="Bounding_Boxes">
                    <path id="Path_3192" d="M0 0h28.333v28.333H0z" class="cls-1" data-name="Path 3192"/>
                    <path id="Path_3193" d="M0 0h28.333v28.333H0z" class="cls-2" data-name="Path 3193"/>
                </g>
                <path id="Rectangle_910" d="M0 0h1.983v28.333H0z" class="cls-3" data-name="Rectangle 910" transform="translate(12.75)"/>
                <path id="Rectangle_911" d="M0 0h1.983v28.333H0z" class="cls-3" data-name="Rectangle 911" transform="rotate(90 7.791 20.542)"/>
                <g id="Group_1058" data-name="Group 1058" transform="translate(1.417 1.417)">
                    <path id="Path_3202" d="M2.547 3.392a1.629 1.629 0 0 0-.047-.415.79.79 0 0 0-.2-.345 1.757 1.757 0 0 0-.442-.314 5.935 5.935 0 0 0-.763-.323 9.658 9.658 0 0 1-1.086-.434A4.084 4.084 0 0 1-.9.984a2.613 2.613 0 0 1-.618-.769A2.138 2.138 0 0 1-1.749-.8a2.205 2.205 0 0 1 .235-1.016A2.275 2.275 0 0 1-.855-2.6a3.208 3.208 0 0 1 1.009-.5 4.355 4.355 0 0 1 1.288-.18 3.941 3.941 0 0 1 1.309.2 2.96 2.96 0 0 1 .995.568 2.465 2.465 0 0 1 .632.867A2.726 2.726 0 0 1 4.6-.538H2.574a1.913 1.913 0 0 0-.066-.516 1.055 1.055 0 0 0-.207-.4.959.959 0 0 0-.363-.262 1.348 1.348 0 0 0-.532-.095 1.421 1.421 0 0 0-.5.079.973.973 0 0 0-.349.217.879.879 0 0 0-.207.327 1.165 1.165 0 0 0-.069.4.751.751 0 0 0 .107.4 1.225 1.225 0 0 0 .3.33 2.647 2.647 0 0 0 .477.287q.28.134.618.262a7.791 7.791 0 0 1 1.229.5 3.635 3.635 0 0 1 .877.622 2.268 2.268 0 0 1 .525.784 2.66 2.66 0 0 1 .173.986 2.4 2.4 0 0 1-.218 1.044 2.118 2.118 0 0 1-.622.772 2.9 2.9 0 0 1-.977.482 4.594 4.594 0 0 1-1.292.168 4.731 4.731 0 0 1-1.269-.178 3.41 3.41 0 0 1-1.115-.534 2.748 2.748 0 0 1-.794-.909A2.682 2.682 0 0 1-2 2.922H.04a2.264 2.264 0 0 0 .09.684 1.057 1.057 0 0 0 .27.454 1.065 1.065 0 0 0 .452.25 2.317 2.317 0 0 0 .628.076 1.413 1.413 0 0 0 .494-.076.89.89 0 0 0 .335-.21.756.756 0 0 0 .183-.314 1.367 1.367 0 0 0 .055-.394z" class="cls-3" data-name="Path 3202" transform="translate(2.539 3.285)"/>
                    <path id="Path_3203" d="M4.987 3.312a4.711 4.711 0 0 1-.262 1.642 3.2 3.2 0 0 1-.736 1.178 3.046 3.046 0 0 1-1.14.708 4.359 4.359 0 0 1-1.475.238A4.389 4.389 0 0 1-.1 6.839a3.106 3.106 0 0 1-1.15-.708A3.189 3.189 0 0 1-2 4.953a4.656 4.656 0 0 1-.266-1.642V1.835A4.974 4.974 0 0 1-2 .147a3.327 3.327 0 0 1 .736-1.217 3.056 3.056 0 0 1 1.147-.736 4.241 4.241 0 0 1 1.478-.247 4.212 4.212 0 0 1 1.475.247 3.093 3.093 0 0 1 1.146.735A3.3 3.3 0 0 1 4.724.147a4.974 4.974 0 0 1 .262 1.687zm-2.038-1.49a4.883 4.883 0 0 0-.1-1.083A2.1 2.1 0 0 0 2.542 0a1.209 1.209 0 0 0-.5-.421 1.644 1.644 0 0 0-.684-.134 1.662 1.662 0 0 0-.688.138A1.209 1.209 0 0 0 .173 0a2.1 2.1 0 0 0-.3.735 4.883 4.883 0 0 0-.1 1.083v1.494a4.476 4.476 0 0 0 .1 1.034 1.931 1.931 0 0 0 .307.7 1.213 1.213 0 0 0 .5.4 1.756 1.756 0 0 0 .694.128 1.687 1.687 0 0 0 .68-.128 1.2 1.2 0 0 0 .494-.4 1.927 1.927 0 0 0 .3-.7 4.624 4.624 0 0 0 .1-1.034z" class="cls-3" data-name="Path 3203" transform="translate(19.115 2.228)"/>
                    <path id="Path_3204" d="M2.938 4.1H.168l-.539 1.821h-2.148L.624-2.965h1.858l3.163 8.886H3.476zM.61 2.607h1.879l-.94-3.168z" class="cls-3" data-name="Path 3204" transform="translate(2.519 20.625)"/>
                    <path id="Path_3205" d="M.193.991v3.124h-2.03V-4.77h3.426a4 4 0 0 1 1.371.22 2.964 2.964 0 0 1 1.026.613A2.659 2.659 0 0 1 4.631-3a3.031 3.031 0 0 1 .224 1.175A2.929 2.929 0 0 1 4.631-.66a2.435 2.435 0 0 1-.646.888 2.935 2.935 0 0 1-1.029.564 4.4 4.4 0 0 1-1.367.2zm0-1.5h1.4a1.407 1.407 0 0 0 .549-.1 1 1 0 0 0 .38-.272 1.093 1.093 0 0 0 .218-.415 1.912 1.912 0 0 0 .06-.521 2.149 2.149 0 0 0-.069-.549 1.353 1.353 0 0 0-.218-.464 1.1 1.1 0 0 0-.38-.323 1.162 1.162 0 0 0-.549-.122H.193z" data-name="Path 3205" transform="translate(19.582 22.43)"/>
                </g>
            </g>
        </g>
    </g>
</svg>
