<svg id="icVaccine" xmlns="http://www.w3.org/2000/svg" width="36" height="36" viewBox="0 0 36 36">
  <g id="Rectangle_13369" data-name="Rectangle 13369" fill="#d6dbff" stroke="#bdbfd8" stroke-width="1" opacity="0">
    <rect width="36" height="36" rx="4" stroke="none"/>
    <rect x="0.5" y="0.5" width="35" height="35" rx="3.5" fill="none"/>
  </g>
  <g id="ic_imunisasi" transform="translate(2 2)">
    <path id="Path_640635" data-name="Path 640635" d="M-3.341-13.488l2.394,2.4a.345.345,0,0,1,0,.486l-.486.486a.345.345,0,0,1-.486,0l-2.394-2.4-1.947,1.947,2.4,2.4a.345.345,0,0,1,0,.486l-.486.486a.345.345,0,0,1-.486,0l-2.4-2.4L-8.365-8.469a3.434,3.434,0,0,0-.988,2.81l.305,2.733L-11.9-.072a.345.345,0,0,0,0,.486l.486.486a.345.345,0,0,0,.486,0L-8.081-1.95l2.733.305a3.421,3.421,0,0,0,2.81-.988L5.279-10.45-.552-16.282ZM9.9-17.5,6.5-20.9a.345.345,0,0,0-.486,0l-.486.486a.345.345,0,0,0,0,.486l1.216,1.216L4.8-16.767,2.366-19.2l-.731-.731a.345.345,0,0,0-.486,0L-.307-18.473a.345.345,0,0,0,0,.486l.731.731,5.831,5.84.731.731a.345.345,0,0,0,.486,0l1.457-1.461a.345.345,0,0,0,0-.486L5.769-15.792l1.947-1.947,1.216,1.216a.345.345,0,0,0,.486,0l.486-.486A.35.35,0,0,0,9.9-17.5Z" transform="translate(17.001 26.001)" fill="#171717"/>
    <rect id="Rectangle_13239" data-name="Rectangle 13239" width="32" height="32" fill="none"/>
  </g>
</svg>
