<svg xmlns="http://www.w3.org/2000/svg" width="36" height="36" viewBox="0 0 36 36">
    <defs>
        <style>
            .cls-1{fill:none}.cls-2{fill:#171717}
        </style>
    </defs>
    <g id="ic_Worklist" transform="translate(-8 -68)">
        <rect id="Rectangle_2179" width="36" height="36" class="cls-1" data-name="Rectangle 2179" rx="4" transform="translate(8 68)"/>
        <g id="round-table_chart-24px" transform="translate(12.5 72.5)">
            <g id="Bounding_Boxes">
                <path id="Path_3217" d="M0 0h27v27H0z" class="cls-1" data-name="Path 3217"/>
            </g>
            <g id="Rounded" transform="translate(3.375 3.375)">
                <path id="Path_3218" d="M10.875 10.9H16.5v12.35h-5.625zm7.875 12.35h3.375a2.257 2.257 0 0 0 2.25-2.25V10.875H18.75zM22.125 3H5.25A2.257 2.257 0 0 0 3 5.25v3.375h21.375V5.25A2.257 2.257 0 0 0 22.125 3zM3 21a2.257 2.257 0 0 0 2.25 2.25h3.375V10.875H3z" class="cls-2" data-name="Path 3218" transform="translate(-3 -3)"/>
            </g>
        </g>
    </g>
</svg>
