<svg xmlns="http://www.w3.org/2000/svg" width="36" height="36" viewBox="0 0 36 36">
    <defs>
        <style>
            .cls-1{fill:none}.cls-2{fill:#171717}
        </style>
    </defs>
    <g id="ic_Worklist" transform="translate(-8 -68)">
        <rect id="Rectangle_2179" width="36" height="36" class="cls-1" data-name="Rectangle 2179" rx="4" transform="translate(8 68)"/>
        <g id="round-table_chart-24px" transform="translate(12.5 72.5)">
            <path id="Path_640110" d="M9.773 1.5a2.25 2.25 0 0 0 2.25-2.25v-16.5a2.25 2.25 0 0 0-2.25-2.25h-19.5a2.25 2.25 0 0 0-2.25 2.25v16.5a2.25 2.25 0 0 0 2.25 2.25zm-15.75-16.875A1.875 1.875 0 0 1-4.1-13.5a1.875 1.875 0 0 1-1.875 1.875A1.875 1.875 0 0 1-7.852-13.5a1.875 1.875 0 0 1 1.875-1.875zm0 4.5A1.875 1.875 0 0 1-4.1-9a1.875 1.875 0 0 1-1.877 1.875A1.875 1.875 0 0 1-7.852-9a1.875 1.875 0 0 1 1.875-1.875zm0 4.5A1.875 1.875 0 0 1-4.1-4.5a1.875 1.875 0 0 1-1.877 1.875A1.875 1.875 0 0 1-7.852-4.5a1.875 1.875 0 0 1 1.875-1.875zm13.5-6.375a.563.563 0 0 1-.562.562h-9.375a.563.563 0 0 1-.562-.562v-1.5a.563.563 0 0 1 .562-.562h9.375a.563.563 0 0 1 .563.562zm0 4.5a.563.563 0 0 1-.562.562h-9.375a.563.563 0 0 1-.562-.562v-1.5a.563.563 0 0 1 .562-.562h9.375a.563.563 0 0 1 .563.562zm0 4.5a.563.563 0 0 1-.562.562h-9.375a.563.563 0 0 1-.562-.562v-1.5a.563.563 0 0 1 .562-.562h9.375a.563.563 0 0 1 .563.562z" class="cls-2" data-name="Path 640110" transform="translate(13.5 22.5)"/>
            <g id="Bounding_Boxes">
                <path id="Path_3217" d="M0 0h27v27H0z" class="cls-1" data-name="Path 3217"/>
            </g>
        </g>
    </g>
</svg>
