<svg xmlns="http://www.w3.org/2000/svg" xmlns:xlink="http://www.w3.org/1999/xlink" width="1282" height="800" viewBox="0 0 1282 800"><defs><clipPath id="a"><rect width="1282" height="800" transform="translate(-2)" fill="#fff" stroke="#707070" stroke-width="1"/></clipPath><linearGradient id="b" x1="0.058" y1="0.432" x2="0.582" y2="0.695" gradientUnits="objectBoundingBox"><stop offset="0" stop-color="#fffdff"/><stop offset="0.332" stop-color="#9b6fd7"/><stop offset="1" stop-color="#3744e5"/></linearGradient><linearGradient id="c" x1="0.096" y1="0.058" x2="0.615" y2="0.732" gradientUnits="objectBoundingBox"><stop offset="0" stop-color="#fffdff"/><stop offset="0.583" stop-color="#d964f0"/><stop offset="1" stop-color="#1a35c4"/></linearGradient><linearGradient id="d" x1="1" y1="0.5" x2="0" y2="0.5" gradientUnits="objectBoundingBox"><stop offset="0" stop-color="#b8cde0"/><stop offset="1" stop-color="#7696bc"/></linearGradient><linearGradient id="e" x1="0.447" y1="0.415" x2="0.973" y2="-0.079" gradientUnits="objectBoundingBox"><stop offset="0" stop-color="#fca5b6"/><stop offset="1" stop-color="#ff809e"/></linearGradient></defs><g transform="translate(2)" clip-path="url(#a)"><path d="M86.988,503.825c15.21-1.266,37.559-15.011,48.186-34.378s35.354-66.555,46.322-84.838c22.43-37.384,64.956-38.884,78.607-24.482C314.1,417.1,310.509,217.91,373.516,217.91c59.823,0,88.795,118.416,154.34,75.141,62.908-41.534,92.537-107.419,144.414-125.433,100.039-34.736,121.917,232.706,193.81,232.706,20.338,0,35.981-69.707,50.631-78.894,47.38-29.713,26.32,135.541,97.062,182.395Z" transform="translate(806.175 925.795) rotate(-90)" opacity="0.15" fill="url(#b)"/><g transform="translate(671.841 77.937)"><ellipse cx="46.706" cy="6.712" rx="46.706" ry="6.712" transform="translate(214.183 450.205)" fill="#d2dee8"/><g transform="translate(222.376 325.465)"><circle cx="8.5" cy="8.5" r="8.5" transform="translate(18.783 -12.402)" fill="#d625c2"/><circle cx="6" cy="6" r="6" transform="translate(38.783 -21.402)" fill="#4842ea"/><circle cx="4.5" cy="4.5" r="4.5" transform="translate(26.783 -35.402)" fill="#9f89fc"/><path d="M279.886,325.465H229.335a6.851,6.851,0,0,0-6.869,5.5,6.609,6.609,0,0,0,6.515,7.713h4.526l-.164,99.13a21.192,21.192,0,0,0,21.191,21.217h0a21.2,21.2,0,0,0,21.194-21.247l-.365-99.1h4.169a6.849,6.849,0,0,0,6.869-5.5A6.609,6.609,0,0,0,279.886,325.465Z" transform="translate(-222.376 -325.465)" fill="#f3f4f9"/></g><path d="M229.594,337.566l-.111,76.639a12.182,12.182,0,0,0,3.334,8.423,11.322,11.322,0,0,0,8.061,3.339,11.509,11.509,0,0,0,8.07-3.526,11.746,11.746,0,0,0,3.328-8.254l-.251-76.621Z" transform="translate(13.657 23.254)" fill="#d625c2"/><g transform="translate(19.171 4.307)"><g transform="translate(236.898 385.898)"><path d="M266.717,385.9H240.505a3.551,3.551,0,0,0-3.56,2.849,3.427,3.427,0,0,0,3.378,4h2.345l-.083,51.4a10.988,10.988,0,1,0,21.975-.015l-.189-51.384h2.163A3.554,3.554,0,0,0,270.1,389.9,3.427,3.427,0,0,0,266.717,385.9Z" transform="translate(-236.898 -385.898)" fill="#eaedef"/><path d="M244.061,398,244,437.736a6.312,6.312,0,0,0,1.727,4.367,5.87,5.87,0,0,0,4.18,1.733,5.968,5.968,0,0,0,4.184-1.828,6.093,6.093,0,0,0,1.725-4.28L255.692,398Z" transform="translate(-233.239 -379.667)" fill="#4842ea"/></g></g></g><path d="M86.988,436.8c12.14-1.016,29.979-12.046,38.461-27.587s28.219-53.408,36.973-68.08c17.9-30,51.846-31.2,62.742-19.646,43.1,45.715,40.234-114.125,90.525-114.125,47.75,0,57.4,155.553,109.713,120.826,50.212-33.33,87.34-146.728,128.747-161.184C634,139.129,651.46,353.743,708.843,353.743c16.234,0,28.719-55.938,40.413-63.31C787.074,266.59,770.264,399.2,826.729,436.8Z" transform="translate(434.48 -227.914) rotate(90)" opacity="0.1" fill="url(#c)"/><g transform="translate(0 -90)"><ellipse cx="81.206" cy="7.212" rx="81.206" ry="7.212" transform="translate(921.023 708.143)" fill="#d2dee8"/><g transform="translate(931.458 269.001)"><path d="M621.492,189.922l5.213,2.038,6.021,7.717,1.475,6.194-10.422-2.655Z" transform="translate(-535.95 -131.794)" fill="url(#d)"/><path d="M686.362,423.021c-.524,1.162,1.77,6.406,10.553,6.668s6.1-12.781,6.1-12.781Z" transform="translate(-656.114 -180.246)" fill="#8ca4c5"/><path d="M590.69,355.074c1.865,2.137,12.388,31.659,10.9,54.748-19.556-2.442-24.532,0-24.532,0l-2.491-51.78Z" transform="translate(-466.582 -167.047)" fill="#f3f4f9"/><path d="M690.073,639.418l-1.887,19.946,12.257-1.6,2.927-15.484Z" transform="translate(-657.575 -227.743)" fill="#fca5b6"/><path d="M615.049,651.027v8.253h13.914v-9.347Z" transform="translate(-525.644 -229.988)" fill="#fca5b6"/><path d="M592.971,587.685h14.673l38.852-185.951h1.216V587.685h19.947s17.7-187.915,13.491-212.193l-76.978-4.867Z" transform="translate(-561.111 -170.367)" fill="#2a3593"/><rect width="17.565" height="5.255" transform="translate(30.096 417.318)" fill="#2a3593"/><rect width="22.98" height="5.255" transform="translate(85.401 417.318)" fill="#2a3593"/><path d="M620.956,410.75h28.517a.787.787,0,1,0,0-1.573H620.956a.787.787,0,0,0,0,1.573Z" transform="translate(-550.968 -178.596)" fill="#8da5c6"/><path d="M626.415,455.986a.786.786,0,0,0,.787-.787V409.964a.787.787,0,0,0-1.573,0V455.2A.786.786,0,0,0,626.415,455.986Z" transform="translate(-532.203 -178.596)" fill="#8da5c6"/><path d="M633.352,399.254h1.834a4.318,4.318,0,0,0,4.314-4.313V376.6a.787.787,0,0,0-1.573,0v18.341a2.744,2.744,0,0,1-2.741,2.74h-1.834a.787.787,0,1,0,0,1.573Z" transform="translate(-549.958 -171.474)" fill="#8da5c6"/><g transform="translate(83.415 426.559)"><path d="M573.353,678.234h52.695v-.078c0-4.674-2.187-7.823-6.877-8.6s-14.92.423-24.02-11.216c0,0-11.534,4.973-16.507,0C572.718,664.585,573.353,678.234,573.353,678.234Z" transform="translate(-573.333 -658.342)" fill="#fff"/><path d="M629.234,674.743a12.814,12.814,0,0,1,1.6-6.916,26.59,26.59,0,0,1-13.031-9.485s-11.534,4.973-16.507,0c-4.033,4.25-5.026,11.929-5.249,16.4Z" transform="translate(-595.988 -658.342)" fill="#8b43a0"/></g><path d="M603.47,334.384c20.794,16.691,56.207,14.179,76.978,4.867,0,0-6.484-33.437-4.935-44.018a234.906,234.906,0,0,1,4.935-23.068l10.05-23.914s-6.349-26.806-16.033-32.9c-8.7-5.472-21.284-11.964-21.284-11.964l-21.374-2.54s-22.644,7.618-28.781,12.7-22.01,29.2-22.01,29.2L615,248.439C618.812,266,603.47,334.384,603.47,334.384Z" transform="translate(-560.411 -134.126)" fill="#8da5c6"/><path d="M638.024,425.141a.786.786,0,0,0,.426-.126c3.733-2.416,9.754-14.195,10.009-14.7a.787.787,0,1,0-1.4-.713c-1.681,3.3-6.656,12.272-9.46,14.087a.787.787,0,0,0,.428,1.447Z" transform="translate(-562.677 -178.596)" fill="#8da5c6"/><path d="M679.755,673.405l8.584-11.2a9.414,9.414,0,0,1,15.063.16l8.1,11.039Z" transform="translate(-659.074 -231.821)" fill="#8b43a0"/><path d="M695.98,671.256c-8.707,0-16.225,2.179-16.225,4.868v4.867H712.2v-4.867C712.2,673.435,704.687,671.256,695.98,671.256Z" transform="translate(-659.779 -234.539)" fill="#fff"/><path d="M637.31,163.68s-1.379,15.731-8.849,26.349c0,11.8,23.045,14.387,24.893,5.424-2.014-5.686-2.014-13.7-2.014-13.7Z" transform="translate(-560.584 -126.192)" fill="#fca5b6"/><path d="M573.88,205.873c2.724,3.152,16.362,11.859,17.84,13.613,2.818,3.343,15.927,45.865,15.927,45.865l-21.8,9.44-13.988-46.85Z" transform="translate(-470.359 -135.199)" fill="#f3f4f9"/><path d="M644.544,181.754l-14.03-18.074a64.954,64.954,0,0,1-1.11,6.922h0c.258,4.483,1.762,18.641,16.413,22.312A55.08,55.08,0,0,1,644.544,181.754Z" transform="translate(-553.789 -126.192)" fill="#ff809e"/><path d="M682.841,185.53c0,7.269,5.93,36.05,9.456,52.513,1.7,7.917,1.159,15.994,1.191,24.089.118,30.22-6.552,100.685-17.365,111.5-6.822,3-29.37-3-35.662,0,0,0,29.777-97.311,17.179-125.846s-16.059-34.255-15.567-37.184,33.919-14.989,33.919-14.989S680.908,187.116,682.841,185.53Z" transform="translate(-610.212 -130.856)" fill="#f3f4f9"/><path d="M713.477,217.4c-2.72-.275-39.438,74.471-30.445,85.819,11.011,13.895,44.808,17.471,44.808,17.471l4.738-23.422s-21.493-3.506-21.493-13.189c3.664-6.832,17.959-29.5,17.959-29.5S724.03,220.275,713.477,217.4Z" transform="translate(-681.617 -137.66)" fill="#d2dee8"/><path d="M655.772,223.753a.783.783,0,0,0,.573-.249c3.119-3.32,2.853-8.39,2.571-13.758-.378-7.221-.77-14.689,7.258-18.312a.786.786,0,0,0-.647-1.434c-9.008,4.066-8.569,12.44-8.182,19.829.263,5.024.512,9.768-2.146,12.6a.787.787,0,0,0,.573,1.325Z" transform="translate(-594.729 -131.795)" fill="#002951"/><path d="M578.5,291.43c1.835,5.309,37.689,42.092-12.191,49.853S578.5,291.43,578.5,291.43Z" transform="translate(-435.772 -153.462)" fill="#d2dee8"/><path d="M661.612,238.043c-3.525-16.464-9.456-45.244-9.456-52.513-1.933,1.586-6.85,10.081-6.85,10.081-.787,3.671-5.374,18.877-5.374,18.877l11.536,5.311-4.589,5.439s13.274,32.081,14.568,48.682c.516-4.4.972-8.383,1.355-11.787A74.925,74.925,0,0,0,661.612,238.043Z" transform="translate(-579.528 -130.856)" fill="#cdddf0"/><path d="M608.261,244.3c-3.73-16.418-6.621-45.227-12.451-51.781,2.421.624,9.389,6.427,9.389,6.427,2.257,3,12.818,14.863,12.818,14.863l-8.23,9.671,6.45,3s1.457,34.689,7.268,50.292c-2.318-3.772-4.409-7.2-6.188-10.122A74.925,74.925,0,0,1,608.261,244.3Z" transform="translate(-505.055 -132.347)" fill="#cdddf0"/><path d="M623.615,236.084a.785.785,0,0,0,.768-.625c3.7-17.586-1.655-36.832-12.182-43.815a.787.787,0,0,0-.87,1.311c10.028,6.652,15.085,25.18,11.513,42.181a.787.787,0,0,0,.608.931A.816.816,0,0,0,623.615,236.084Z" transform="translate(-519.033 -132.133)" fill="#002951"/><path d="M619.86,251.555a5.375,5.375,0,1,0-5.374,5.374A5.375,5.375,0,0,0,619.86,251.555Z" transform="translate(-511.87 -143.803)" fill="#002951"/><path d="M664.12,272.883c2.043,0,4-1.168,5.962-3.563a.786.786,0,1,0-1.215-1c-1.731,2.108-3.348,3.085-4.99,2.98-3.755-.239-7.478-6.17-11.419-12.45a89.622,89.622,0,0,0-7.625-10.934.787.787,0,0,0-1.189,1.03,88.466,88.466,0,0,1,7.483,10.739c4.342,6.918,8.092,12.895,12.651,13.183C663.892,272.879,664.007,272.883,664.12,272.883Z" transform="translate(-589.282 -144.116)" fill="#002951"/><path d="M640.29,274.4a1.969,1.969,0,0,0,1.576-.785l2.412-3.2a1.973,1.973,0,1,0-3.151-2.375l-2.411,3.2a1.972,1.972,0,0,0,1.574,3.16Z" transform="translate(-559.66 -148.3)" fill="#002951"/><path d="M655.615,273.471a5.933,5.933,0,0,0,3.847-1.236c3.563-2.859,3.194-9.9,2.767-18.061a88.4,88.4,0,0,1-.057-13.089.787.787,0,0,0-1.565-.16,89.592,89.592,0,0,0,.051,13.331c.388,7.4.754,14.4-2.18,16.752-1.27,1.019-3.165,1.161-5.8.432a.787.787,0,1,0-.421,1.516A12.648,12.648,0,0,0,655.615,273.471Z" transform="translate(-587.991 -142.53)" fill="#002951"/><path d="M668.588,281.7a1.973,1.973,0,0,0,.606-3.851l-3.814-1.231a1.973,1.973,0,0,0-1.212,3.755l3.814,1.231A1.988,1.988,0,0,0,668.588,281.7Z" transform="translate(-604.801 -150.279)" fill="#002951"/><path d="M652.917,245.887a1.44,1.44,0,0,0,.245-.02,1.458,1.458,0,0,0,1.194-1.68c-1.112-6.59,1.686-10.1,4.674-11.193,3.251-1.187,7.973.066,11.2,5.542a1.457,1.457,0,1,0,2.51-1.48c-4.076-6.917-10.322-8.4-14.711-6.8-5.139,1.876-7.71,7.535-6.549,14.417A1.458,1.458,0,0,0,652.917,245.887Z" transform="translate(-598.063 -140.278)" fill="#002951"/><path d="M691.263,318.949c-4.129,3.6-18.041,15.714-11.3,22.458,5.857,2.931,11.122-1.477,11.1-4.073S697.521,321.433,691.263,318.949Z" transform="translate(-640.302 -159.336)" fill="#8ca4c5"/><path d="M688.141,341.859l-7.518-3.079c-.32-5.8,5.384-11.472,8.661-14.685l5.215,1.163Z" transform="translate(-642.746 -160.434)" fill="#ff809e"/><path d="M626.119,178.638c4.85-.525,34.55-48.659-.656-55.582C592.394,116.552,602.058,181.239,626.119,178.638Z" transform="translate(-530.583 -117.422)" fill="#fca5b6"/><path d="M621.322,161.937a43.27,43.27,0,0,0,2.7-14.713L604.2,149.31C607.251,155.514,612.167,160.167,621.322,161.937Z" transform="translate(-512.174 -122.68)" fill="#ff809e"/><path d="M589.559,144.843s-8.543-20.97,5.174-25.331c4.821-1.532,8.17,3.788,8.17,3.788s4.2-9.507,12.983-6.375c14.353,5.116,16.237,29.232,25.7,29.112-7.338,11.992-24.324-.955-24.324-.955l-1.093,2.946s-9.384-1.023-9.951-12.246a43.917,43.917,0,0,1-11.277,15.347Z" transform="translate(-516.153 -116.077)" fill="#002951"/><path d="M654.411,157.52a5.451,5.451,0,1,0-5.451,5.452A5.451,5.451,0,0,0,654.411,157.52Z" transform="translate(-573.476 -123.714)" fill="#fca5b6"/><path d="M652.3,158.307a2.549,2.549,0,1,0-2.549,2.55A2.549,2.549,0,0,0,652.3,158.307Z" transform="translate(-574.264 -124.501)" fill="#ff809e"/><path d="M637.69,126.669a.788.788,0,0,0,.723-.474c1.55-3.581.772-7.118-2.192-9.958a.787.787,0,0,0-1.088,1.137,6.918,6.918,0,0,1,1.836,8.2.788.788,0,0,0,.721,1.1Z" transform="translate(-551.479 -116.018)" fill="#002951"/><path d="M679.89,311.625a17.944,17.944,0,0,1-9,2.555c-.922-.015-7.126,4.68-8.631,5.651-1.373.886-5.013,9.22-5.013,9.22l2.445,3.911,12.383-11.408.959-3.429s4.164-.628,5.918-1.71S681.883,312.488,679.89,311.625Z" transform="translate(-19.066 912.723) rotate(-111)" fill="#ff809e"/><path d="M64.013,145.535,16.518,155.714l25.433,17.51H64.013Z" fill="#8c90af"/><path d="M16.518,155.685v1.766l27.214,19.666v-5.027Z" transform="translate(0 -0.001)" fill="#6f749d"/><path d="M-12791.67-23813.162v1.271l-90.86,17.648,1.183-4.846Z" transform="translate(12932.541 23974)" fill="#6f749d"/><path d="M667.117,378.792,603.39,346.05l17-89.908,54.882,30.934Z" transform="matrix(0.259, 0.966, -0.966, 0.259, 243.379, -565.556)" fill="#c0c3d8"/><path d="M568.525,306.656l-7.279,7.661a2.366,2.366,0,0,0,3.17,3.5l8.335-6.5a3.155,3.155,0,1,0-3.878-4.977A3.5,3.5,0,0,0,568.525,306.656Z" transform="translate(-67.645 -481.077) rotate(42)" fill="#fca5b6"/><path d="M572.068,311.545l-16.487,13.948a2.361,2.361,0,0,0,2.914,3.712l17.459-12.711a3.148,3.148,0,1,0-3.705-5.09C572.188,311.446,572.124,311.5,572.068,311.545Z" transform="translate(-65.933 -481.008) rotate(42)" fill="#fca5b6"/><path d="M569.2,317.91l-17.738,13.619a2.361,2.361,0,0,0,2.741,3.842l18.651-12.338a3.148,3.148,0,0,0-3.474-5.252C569.323,317.821,569.259,317.868,569.2,317.91Z" transform="translate(-60.338 -477.826) rotate(42)" fill="#fca5b6"/><path d="M560.58,325.055l-10.266,7.03a1.97,1.97,0,0,0,2.013,3.379l11.07-5.68a2.758,2.758,0,1,0-2.518-4.908A2.888,2.888,0,0,0,560.58,325.055Z" transform="translate(-51.695 -472.145) rotate(42)" fill="#fca5b6"/><path d="M667.768,325.239l9.788,3.982a2.366,2.366,0,0,0,2.1-4.227l-9.088-5.391a3.155,3.155,0,1,0-3.219,5.426A3.478,3.478,0,0,0,667.768,325.239Z" transform="translate(-18.196 919.478) rotate(-111)" fill="#fca5b6"/><path d="M658.768,331.789l20.26,7.48a2.361,2.361,0,0,0,1.795-4.365l-19.662-8.935a3.148,3.148,0,1,0-2.605,5.732C658.624,331.732,658.7,331.764,658.768,331.789Z" transform="translate(-21.56 914.601) rotate(-111)" fill="#fca5b6"/><path d="M659.816,339.194l21.306,6.8a2.361,2.361,0,0,0,1.591-4.443l-20.775-8.278a3.148,3.148,0,0,0-2.331,5.85C659.674,339.146,659.749,339.172,659.816,339.194Z" transform="translate(-22.054 917.697) rotate(-111)" fill="#fca5b6"/><path d="M671.473,346l12.2,2.452a1.97,1.97,0,0,0,1.017-3.8L672.9,340.677a2.758,2.758,0,1,0-1.76,5.228A3.056,3.056,0,0,0,671.473,346Z" transform="translate(-19.611 928.52) rotate(-111)" fill="#fca5b6"/><path d="M10.653-.555c3.866,0,2.949,5.405,2.949,9.271S6.839,15,2.973,15,.089,9.175.089,5.309,6.787-.555,10.653-.555Z" transform="translate(102.542 130.999)" fill="#fff" opacity="0.617"/></g></g><g transform="translate(742.012 -28.684)"><g transform="translate(315.023 249.485)"><path d="M358.021,261.1a11.556,11.556,0,0,1-.135,1.757v.007a11.33,11.33,0,0,1-1.98,4.894s-.251.366-.4.541c-.44.554-18.991,18.44-18.989,18.44s-19.136-18.548-19.751-19.536a10.765,10.765,0,0,1-1.217-2.663,10.266,10.266,0,0,1-.4-1.71,11.212,11.212,0,0,1-.128-1.73,11.51,11.51,0,0,1,.432-3.151v-.007a11.531,11.531,0,0,1,3.117-5.2,11.769,11.769,0,0,1,1.3-1.088,11.439,11.439,0,0,1,3.9-1.812,10.762,10.762,0,0,1,1.406-.263,11.582,11.582,0,0,1,1.46-.095,10.936,10.936,0,0,1,2.637.311,8.841,8.841,0,0,1,1.325.391,11.489,11.489,0,0,1,4.029,2.508,4.862,4.862,0,0,1,.453.467,19.87,19.87,0,0,1,1.406,1.819c.013.019,1.71-2.076,1.757-2.117a11.4,11.4,0,0,1,1.515-1.27,11.55,11.55,0,0,1,2.379-1.292,11.066,11.066,0,0,1,1.3-.432,11.6,11.6,0,0,1,2.967-.385,10.924,10.924,0,0,1,1.15.061,9.478,9.478,0,0,1,1.453.236,11.446,11.446,0,0,1,3.881,1.677,11.849,11.849,0,0,1,1.257.98,11.646,11.646,0,0,1,3.211,4.792v.008a8.766,8.766,0,0,1,.311,1.02,11.06,11.06,0,0,1,.277,1.507v.015C357.954,259.847,358.021,260.719,358.021,261.1Z" transform="translate(-315.023 -249.485)" fill="#4842ea"/></g><path d="M510.686,50.205h12.968s.666-2.029,1.348-2.055,1.289,2.055,1.289,2.055h1.425l.879-13.806,1.914,19.544.967-5.738h4.4s1.048-2.221,2.172-2.221,2.076,2.221,2.076,2.221h3.81" transform="translate(-198.967 217.824)" fill="none" stroke="#bdbaff" stroke-linecap="round" stroke-linejoin="round" stroke-width="1"/><path d="M520.686,50.205h2.968s.666-2.029,1.348-2.055,1.289,2.055,1.289,2.055h1.425l.879-13.806,1.914,19.544.967-5.738h4.4s1.048-2.221,2.172-2.221,2.076,2.221,2.076,2.221h3.81" transform="translate(-175.967 217.824)" fill="none" stroke="#bdbaff" stroke-linecap="round" stroke-linejoin="round" stroke-width="1"/></g><g transform="translate(15215.74 23637.959)"><g transform="translate(-14975.302 -23531.959)"><ellipse cx="63.175" cy="7.861" rx="63.175" ry="7.861" transform="translate(17.348 345.469)" fill="#d2dee8"/><g transform="translate(0 0)"><path d="M816.2,229.684c.482-1.452,14.727,1.054,12.915,7.091S814.486,234.855,816.2,229.684Z" transform="translate(-806.869 -185.329)" fill="#8ca4c5"/><path d="M816.278,200.83c0,1.189,3.68,11.66,3.68,14.49s-1.585,8.264-1.585,8.264l9.347,4.755s1.317-10.7.959-16.641c-.253-4.187,8.267-13.981,9-16.415l-4.36,1.13-4.3,3.738-2.438-1.991Z" transform="translate(-806.944 -174.423)" fill="url(#e)"/><path d="M838.677,182.4l.846,6.483,1.116-.146.324,2.484,3.748-.489-.324-2.484,1.116-.146-.846-6.483Z" transform="translate(-814.123 -170.04)" fill="#d2dee8"/><path d="M824.214,192.315l11.944-6.27a1.359,1.359,0,0,1,1.324,2.373l-11.612,6.862a1.7,1.7,0,1,1-1.73-2.924Z" transform="translate(-809.196 -171.41)" fill="#fca5b6"/><path d="M832.778,203.089l-8.965-3.38,1.337-.011-5.98,2.986a2.041,2.041,0,1,1-1.824-3.651,2.014,2.014,0,0,1,.19-.083l6.252-2.364.139-.052a1.556,1.556,0,0,1,1.2.041l8.7,4.007a1.359,1.359,0,0,1-1.049,2.506Z" transform="translate(-806.924 -174.793)" fill="#fca5b6"/><path d="M829.89,205.27l-5.539-2.24,1.088.032-5.351,2.522a1.7,1.7,0,1,1-1.451-3.077,1.719,1.719,0,0,1,.181-.073l5.605-1.892.148-.05a1.188,1.188,0,0,1,.941.082l5.249,2.854a1.021,1.021,0,0,1-.871,1.843Z" transform="translate(-807.387 -176.074)" fill="#fca5b6"/><path d="M992.8,486.936c1.034,1.144-.552,2.729-5.648,4.54s-7.7-8.151-7.7-8.151Z" transform="translate(-859.24 -266.817)" fill="#8ca4c5"/><rect width="4.963" height="22.112" transform="matrix(0.996, -0.085, 0.085, 0.996, 27.901, 37.462)" fill="#d2dee8"/><path d="M876.916,172.443l-3.04,3.177c-3.441,7.079-.614,16.3.662,20.247s-5.062,5.61-4.157,16.311c.895,10.58-11.285,10.783-14.114,8.92,1.243,10.017,12.8,20.765,21.538,21.075s38.2-14.534,38.2-14.534l-20.533-56.587Z" transform="translate(-819.76 -166.65)" fill="#002951"/><path d="M846.067,243.47c-11.778,10.078-21.451,24.123-21.451,24.123l.174-30.629c-8.9,3.053-12.915-7.091-12.915-7.091s-21.74,56.681,1.137,63c17.142,4.734,31.19-15.061,31.19-15.061Z" transform="translate(-802.541 -185.519)" fill="#d2dee8"/><path d="M857.1,259.384c-2.068,4.827-9.114,15.337-12.5,39.855h0a48.074,48.074,0,0,0,13.082-11.962l.81-14.915Z" transform="translate(-816.021 -194.985)" fill="#cdddf0"/><path d="M875.4,240.313c-7.089,5.918-17.1,5.265-17.679,6.506-9.5,20.321-8.789,65.742-18.808,109.558C875.746,356.377,875.4,240.313,875.4,240.313Z" transform="translate(-814.2 -188.867)" fill="#f3f4f9"/><path d="M855.58,296.289c-.764,20.374-9.776,54.695-16.6,78.043l29.353-25.718Z" transform="translate(-814.221 -206.823)" fill="#cdddf0"/><path d="M817.047,512.9c1.778,6.623,49.947,22.388,84.9,8.85S813.941,501.334,817.047,512.9Z" transform="translate(-807.172 -274.421)" fill="#002951"/><path d="M860.01,663.894c1.8-4.182,8.076-16.728,10.6-19.484s8.927-1.619,8.927-1.619l-7.7,17.331-9.677,5.335Z" transform="translate(-820.96 -317.894)" fill="#fca5b6"/><path d="M855.694,664c11.565,2.976,10.558-13.686,19.525-21.1,3.855,1.909,5.224,6.626,4.9,8.21-1.117,2.629-2.089,19.662-2.089,19.662h-1.153s.288-14.008-.828-14.4c-1.069-.379-2.289.8-2.394.905-3.481,5.268-4.583,11.225-9.315,13.427-2.551,1.187-17.868-.216-17.8-2.3S849.714,667.388,855.694,664Z" transform="translate(-816.644 -318.004)" fill="#6d2383"/><path d="M981.435,655.81c-1.98-4.1-7.347-17.061-7.776-20.771s4.628-7.8,4.628-7.8l8.051,17.168-2.312,10.8Z" transform="translate(-857.375 -312.98)" fill="#fca5b6"/><path d="M983.628,655.517c9.828-6.781-3.421-16.941-3.148-28.572,3.968-1.659,8.43.4,9.415,1.682,1.254,2.566,13.487,14.464,13.487,14.464l-.755.87s-10.4-9.4-11.427-8.814c-.987.558-.894,2.253-.885,2.4,1.7,6.081,5.478,10.816,4.041,15.832-.775,2.7-11.874,13.349-13.4,11.926S982.266,662.251,983.628,655.517Z" transform="translate(-859.569 -312.687)" fill="#6d2383"/><path d="M887.126,466.29l-8.367,119.96-8.928,1.619L857.586,467.926Z" transform="translate(-820.183 -261.353)" fill="#fca5b6"/><path d="M924.94,452.935l-3.959,38.079,31.92,80.538-4.649,7.034L898.937,503.22l-4.5-42.261Z" transform="translate(-831.994 -257.069)" fill="#fca5b6"/><path d="M923.687,511.9l4.153,10.479a82.651,82.651,0,0,1-23.338,4.888l-4.073-6.225-1.337-12.555A179.371,179.371,0,0,1,923.687,511.9Z" transform="translate(-833.485 -274.887)" fill="#ff809e"/><path d="M861.5,507.033c7.969-.037,16.644.289,24.886.933l-1.333,19.108a128.343,128.343,0,0,1-21.695-1.829Z" transform="translate(-821.437 -274.421)" fill="#ff809e"/><path d="M981.756,504.1c3.836,1.855-21.794,11.076-39.4,16.13S976.092,501.359,981.756,504.1Z" transform="translate(-846.179 -273.41)" fill="#002951"/><path d="M888.927,298.371l-.179.029c-.823-16.944-4.146-53.669-4.146-53.669l-18.445,1.229c-5.5,8.788-15.721,19.773-17.457,27.6-2.308,10.4,4.9,22.86,3.929,30.774h0l-.022.321c-8.283,12.638-40.9,104.389-35.788,124.113,29.964-5.966,43.119,11.445,72.108,11.445,15.777,0,34.958-15.341,53.594-19.237C928.514,406.971,886.978,316.968,888.927,298.371Z" transform="translate(-806.944 -190.285)" fill="#2a3593"/><path d="M895.1,333.308H869.421a.679.679,0,1,1,0-1.358H895.1a.679.679,0,1,1,0,1.358Z" transform="translate(-823.758 -218.261)" fill="#8da5c6"/><path d="M881.593,244.364l.328-.022c1.107-2.767,1.78-4.588,1.78-4.588s-12.133,11.866-15.135,13.4l1.529,4.3-3.624,2.377a41.423,41.423,0,0,0-2.032,11.018C866.819,263.117,876.353,252.743,881.593,244.364Z" transform="translate(-822.379 -188.688)" fill="#cdddf0"/><path d="M909.219,217.107c-1.7,3.032-2.591,13.236-1.88,21.079-6.177,13.471-24.271,6.487-19.166,0,0,0,3.6-4.678,3.273-9.244S909.219,217.107,909.219,217.107Z" transform="translate(-829.699 -181.424)" fill="#fca5b6"/><path d="M892.9,228.942a11.925,11.925,0,0,1-1.091,5.407h0c6.255.723,13.56-2.39,17.212-10.338a21.617,21.617,0,0,1,1.653-6.905S892.569,224.375,892.9,228.942Z" transform="translate(-831.151 -181.424)" fill="#ff809e"/><path d="M882.784,212.524c4.218,4.985,20.479,4.943,26.085-13.566s-2.03-26.49-15.289-23.914C883.572,176.987,877.381,206.139,882.784,212.524Z" transform="translate(-827.618 -167.78)" fill="#fca5b6"/><path d="M896.72,175.044a8.421,8.421,0,0,0-4.435,2.772c-3.124,6.737-3.8,17.139,14.628,17.581a31.112,31.112,0,0,0,6.1-.275C916.475,179.359,909.023,172.654,896.72,175.044Z" transform="translate(-830.758 -167.78)" fill="#ff809e"/><path d="M904.192,218.062c-.029-.092-2.594-5.682-1.43-10.855-11.428,2.022-18.482-.329-21.094-1.943h0c-1.389,7.266-1.23,14.331,1.117,17.1C886.126,226.318,897.019,227.1,904.192,218.062Z" transform="translate(-827.618 -177.625)" fill="#fff"/><path d="M896.705,171.524s-5.8,7.537-1.74,12.871,14.24,7.977,14.732,9.972c2.011,8.156-3.992,30.809-3.992,45.131,4.246,12.079,14.929,15.986,23.5,14.083,26.656-11.468,5.471-37.169,1.139-47.387-2.723-6.424-2.064-24.381-11.368-32.467-13.869-12.054-31.089-12.3-36.8-.186C882.181,173.541,886.78,167.562,896.705,171.524Z" transform="translate(-828.066 -164.572)" fill="#003a6f"/><path d="M917.881,205.238c2.317-.456,27.423,22.855,21.56,43.607-4.031,14.267-19.453,11.283-22.639,3.7C916.8,252.54,922.634,225.689,917.881,205.238Z" transform="translate(-839.161 -177.614)" fill="#002951"/><path d="M912.761,221.37a.679.679,0,0,1-.495-1.145c1.642-1.74,6.075-6.644,6.856-8.413a.68.68,0,0,1,1.243.549c-1.035,2.344-6.863,8.533-7.11,8.8A.682.682,0,0,1,912.761,221.37Z" transform="translate(-837.649 -179.595)" fill="#fff"/><ellipse cx="4.26" cy="4.259" rx="4.26" ry="4.259" transform="translate(74.962 26.558)" fill="#fca5b6"/><path d="M920.134,209.043a1.9,1.9,0,1,0-1.9,1.9A1.9,1.9,0,0,0,920.134,209.043Z" transform="translate(-839.009 -178.227)" fill="#ff809e"/><path d="M929.029,235.731a.679.679,0,0,1-.678-.654c-.956-25.7-12.955-33.466-21.716-39.134-3.041-1.968-5.667-3.666-7.415-5.8-3.674-4.477-2.917-11.568,1.724-16.144a.68.68,0,1,1,.955.967c-4.146,4.088-4.862,10.376-1.628,14.315,1.613,1.966,4.157,3.612,7.1,5.517,9.012,5.83,21.354,13.815,22.335,40.224a.679.679,0,0,1-.653.7Z" transform="translate(-832.781 -167.534)" fill="#003a6f"/><path d="M907.98,236.141l4.665,7.132s12.518,3.751,13.757,5.5-13.923,56.4-8.1,72.1,37.677,78.536,45.916,86.772c-19.319.849-41.883,15.113-55.919,12.49C883.3,395.143,885.375,275.876,907.98,236.141Z" transform="translate(-830.662 -187.529)" fill="#f3f4f9"/><path d="M908.433,236.141c1.67,1.369,4.665,7.132,4.665,7.132.68,3.169-1.929,16.528-1.929,16.528l-8.1,4.308,3.964,4.7s-14.178,25.564-15.3,39.9C891.289,304.907,894.345,261.952,908.433,236.141Z" transform="translate(-831.114 -187.529)" fill="#cdddf0"/><path d="M926.306,264.728c-2.731,4.356-13.021,25.275-14.331,36.607S922.1,315.272,922.1,315.272Z" transform="translate(-837.581 -196.699)" fill="#cdddf0"/><path d="M931.652,333.9c-9.054,23.371-28.057,14.049-33.431,8.047,0,0,8.043,16.441,18.883,16.909C924.976,359.195,928.318,346.381,931.652,333.9Z" transform="translate(-833.206 -218.887)" fill="#cdddf0"/><path d="M914.18,323.19c.343-2.255.622-3.992,3.4-1.487S914.18,323.19,914.18,323.19Z" transform="translate(-838.321 -214.58)" fill="#fff"/><path d="M874.858,275.713c-.522-1.308-10.888,9.3-7.146,17.009C870.586,298.643,875.934,278.4,874.858,275.713Z" transform="translate(-823.168 -200.187)" fill="#8ca4c5"/><path d="M867.075,261.9s-8.391-18.508-11.376-22.769-5.235-6.625-6.352-9.085c-.759,2.451,1.093,7.15,1.093,7.15s-4.693-2.7-5.052-4.722c-.23-1.3-.995-4.645-.995-4.645s-.933-.943-1.461-.13-.291,6.544.109,7.234,2.5,4.344,2.5,4.344l-.919,13.06s6.992,5.407,8.582,7.444,9.531,14.765,9.8,16.048C868.69,275.343,867.075,261.9,867.075,261.9Z" transform="translate(-815.389 -184.715)" fill="#fca5b6"/><path d="M845.734,243.027l3.1,4.674a1.7,1.7,0,0,1-2.712,2.045l-3.645-4.265a2.042,2.042,0,0,1,3.105-2.652A2.3,2.3,0,0,1,845.734,243.027Z" transform="translate(-815.185 -189.445)" fill="#fca5b6"/><path d="M845.228,250.566l3.1,4.674a1.7,1.7,0,0,1-2.712,2.045l-3.645-4.265a2.042,2.042,0,0,1,3.105-2.652A2.28,2.28,0,0,1,845.228,250.566Z" transform="translate(-815.022 -191.863)" fill="#fca5b6"/><path d="M844.264,257.565l4.4,3.466a1.7,1.7,0,1,1-2.1,2.667l-4.4-3.466a1.7,1.7,0,1,1,2.1-2.667Z" transform="translate(-815.032 -194.284)" fill="#fca5b6"/><path d="M847.041,213.071l-1.523.131-.14,4.286,2.475-.212Z" transform="translate(-816.27 -180.129)" fill="#d2dee8"/><path d="M846.033,207.873a.339.339,0,0,1-.338-.31l-.995-11.6a.34.34,0,1,1,.677-.058l.995,11.6a.339.339,0,0,1-.309.367Z" transform="translate(-816.053 -174.524)" fill="#d2dee8"/><path d="M919.292,254.733c2.123-.183,9.62,5.37,10.752,12.162s-9.269,66.225-24.4,63.169S868.1,286.026,868.1,286.026c5.21-6.339,7.146-17.009,7.146-17.009l25.95,33.274S908.086,255.7,919.292,254.733Z" transform="translate(-823.551 -193.491)" fill="#d2dee8"/><path d="M838.389,195.99l-4.17.566c-.69.1-1.406.157-2.109.238l-2.118.222c-1.418.155-2.821.286-4.22.41l-4.21.372,1.2-.651-2.443,3.38a1.7,1.7,0,0,1-2.754-1.99l.033-.043,2.552-3.3.025-.033a1.611,1.611,0,0,1,1.177-.619l4.185-.233c1.4-.079,2.793-.164,4.169-.27l2.074-.149c.694-.057,1.379-.083,2.079-.165l4.187-.432.021,0a1.358,1.358,0,0,1,.322,2.7Z" transform="translate(-807.254 -173.782)" fill="#fca5b6"/></g></g></g><g transform="translate(183.275 225.727)"><g transform="translate(-7.487)"><ellipse cx="26.306" cy="4.946" rx="26.306" ry="4.946" transform="translate(0 224.573)" fill="#d2dee8"/><path d="M558.029,302.557a12.2,12.2,0,0,0-12.2-12.2h-.246a12.2,12.2,0,0,0-12.2,12.2V484.39l-.793.667a20.447,20.447,0,1,0,26.223,0l-.793-.667v-3.67h19.053v-3.048H558.029v-7.846H570.2v-3.048H558.029v-7.842H570.2v-3.05H558.029v-7.846H570.2v-3.048H558.029v-7.846h19.053V434.1H558.029v-7.844H570.2V423.2H558.029v-7.848H570.2V412.3H558.029V404.46H570.2v-3.046H558.029v-7.848h19.053v-3.048H558.029v-7.844H570.2v-3.05H558.029v-7.846H570.2v-3.048H558.029v-7.842H570.2v-3.05H558.029V349.99h19.053v-3.05H558.029V339.1H570.2v-3.046H558.029V328.2H570.2v-3.05H558.029v-7.845H570.2v-3.05H558.029v-7.844h19.053v-3.048H558.029Z" transform="translate(-518.95 -290.36)" fill="#fff"/></g><g transform="translate(15.936 29.147)"><rect width="7.161" height="176.464" fill="#4842ea"/></g><path d="M539.546,391.127a7.958,7.958,0,1,0,7.961,7.957A7.958,7.958,0,0,0,539.546,391.127Z" transform="translate(-520.031 -188.237)" fill="#4842ea"/></g></g></svg>