<svg xmlns="http://www.w3.org/2000/svg" xmlns:xlink="http://www.w3.org/1999/xlink" width="271.252" height="177.766" viewBox="0 0 271.252 177.766">
  <defs>
    <style>
      .cls-1, .cls-18, .cls-21, .cls-25 {
        fill: none;
      }

      .cls-2 {
        opacity: 0.7;
      }

      .cls-3 {
        fill: #acc1d8;
      }

      .cls-4 {
        fill: #dde7f1;
        opacity: 0.995;
      }

      .cls-22, .cls-5 {
        fill: #808aa8;
      }

      .cls-5 {
        opacity: 0.526;
      }

      .cls-6 {
        fill: #dbdbdb;
      }

      .cls-7 {
        fill: #99a2c7;
      }

      .cls-8 {
        fill: #231f20;
      }

      .cls-9 {
        fill: #f88805;
      }

      .cls-10 {
        fill: #ffb35a;
      }

      .cls-11 {
        fill: #f8b99e;
      }

      .cls-12 {
        fill: #fff;
      }

      .cls-13 {
        fill: #c64842;
      }

      .cls-14 {
        fill: #f46b5d;
      }

      .cls-15 {
        opacity: 0.6;
      }

      .cls-16 {
        fill: #8eabb0;
      }

      .cls-17 {
        clip-path: url(#clip-path);
      }

      .cls-18 {
        stroke: #b0dbe1;
        stroke-width: 2.313px;
      }

      .cls-18, .cls-21, .cls-25 {
        stroke-miterlimit: 10;
      }

      .cls-19 {
        fill: #68949a;
      }

      .cls-20 {
        clip-path: url(#clip-path-2);
      }

      .cls-21 {
        stroke: #8bc0c4;
        stroke-width: 1.75px;
      }

      .cls-22 {
        opacity: 0.63;
      }

      .cls-23 {
        fill: #c1bfa7;
      }

      .cls-24 {
        clip-path: url(#clip-path-3);
      }

      .cls-25 {
        stroke: #d8d5bc;
        stroke-width: 1.747px;
      }
    </style>
    <clipPath id="clip-path">
      <path id="Path_638226" data-name="Path 638226" class="cls-1" d="M735.22-1038.8s-38.726-53.3-38.726-82.481,7.824-38.333,22.1-41.246c16.917-3.453,24.772,9.216,24.772,48.926v74.8Z" transform="translate(-696.494 1163.065)"/>
    </clipPath>
    <clipPath id="clip-path-2">
      <path id="Path_638228" data-name="Path 638228" class="cls-1" d="M790.367-1006.332a196.886,196.886,0,0,1-10.564-61.977c0-21.264,23.266-41.359,29.709-43.481,7.636-2.516,10.579,13.4,10.579,42.338s-20.674,63.121-20.674,63.121Z" transform="translate(-779.803 1112.05)"/>
    </clipPath>
    <clipPath id="clip-path-3">
      <path id="Path_638230" data-name="Path 638230" class="cls-1" d="M827.547-986.7s-7.958,4.72-6.966,12.164,7.192,15.592,11.656,15.592H836.7a14.658,14.658,0,0,0,7.44-11.871c.744-8.676-3.968-9.172-4.96-16.116s5.366-10.187,5.039-16.129-7.534-6.687-9.139-11.4,2.465-18.114,1.163-21.385a5.439,5.439,0,0,0-10.206,0,24.622,24.622,0,0,0-.547,15.985c1.554,4.7,3.307,6.387,2.143,9.283s-7.779,7.365-5.478,11.817S831.211-993.043,827.547-986.7Z" transform="translate(-820.495 1039.405)"/>
    </clipPath>
  </defs>
  <g id="ic_noConnection" class="cls-2" transform="translate(18.506 -1.516)">
    <g id="Group_10851" data-name="Group 10851" transform="translate(20.872 1.516)">
      <path id="Path_638231" data-name="Path 638231" class="cls-3" d="M998.153-1217.148c1.015,16.412,26.9,22.864,42.916,22.131s58.036-22.628,65.484-40.885-24.264-16.287-35.191-15.01-8.953-5.266-17.164-7.534S996.979-1236.138,998.153-1217.148Z" transform="translate(-909.141 1262.954)"/>
      <path id="Path_638232" data-name="Path 638232" class="cls-4" d="M991.777-1155.629c-3.762,29.257,26.728,51.353,47.043,56.724s79.74-15.631,94.683-44.613-25.439-38.7-39.538-41-9.614-12.974-19.219-20.372S996.13-1189.482,991.777-1155.629Z" transform="translate(-904.895 1229.669)"/>
      <g id="Group_10850" data-name="Group 10850" transform="translate(0 0)">
        <path id="Path_638233" data-name="Path 638233" class="cls-5" d="M1250.5-820.758c2.713,5,3.111,7.955-24.352,2.8-12.213-2.292-21.641,5.175-37.508,5.384-11.9.157-11.993-10.457-7-12.975,4.339-2.186,11.6-4.283,35.607-4.6S1248.825-823.85,1250.5-820.758Z" transform="translate(-1023.934 990.311)"/>
        <path id="Path_638240" data-name="Path 638240" class="cls-6" d="M1221.09-1070.517s-3.335-4.194-2.151-11.938,2.01-6.634,2.01-6.634h2.731s-2.045,10.632,0,14.09c1.879,3.175,4.026,5.591,5.323,5.994S1221.09-1070.517,1221.09-1070.517Z" transform="translate(-1049.492 1155.123)"/>
        <g id="Group_10854" data-name="Group 10854" transform="translate(0)">
          <g id="Group_10903" data-name="Group 10903">
            <path id="Path_638234" data-name="Path 638234" class="cls-7" d="M999.136-1148.748h0a7.928,7.928,0,0,1-7.921-7.589l-4.127-103.4c-.193-4.508,4.017-10.855,12.109-10.855s12.181,6.347,11.988,10.855l-4.127,103.4A7.929,7.929,0,0,1,999.136-1148.748Z" transform="translate(-902.109 1270.589)"/>
            <ellipse id="Ellipse_2667" data-name="Ellipse 2667" class="cls-7" cx="10.4" cy="10.4" rx="10.4" ry="10.4" transform="translate(86.627 126.844)"/>
            <path id="Path_638235" data-name="Path 638235" class="cls-7" d="M29.923,7.062c-16.5,6.155-26.3,14.211-26.708,14.551A8.909,8.909,0,1,0,14.6,35.318c.282-.234,25.422-20.657,63.252-17.108L81.581.7A111.929,111.929,0,0,0,29.923,7.062Z" transform="matrix(0.966, -0.259, 0.259, 0.966, 0, 29.521)"/>
            <path id="Path_638236" data-name="Path 638236" class="cls-7" d="M1080.516-1103.628a71.7,71.7,0,0,1,7.847,6.045,8.908,8.908,0,0,0,11.484.287h0a8.9,8.9,0,0,0,.376-13.6,85.44,85.44,0,0,0-38.089-19.692l-.8,18.137A65.535,65.535,0,0,1,1080.516-1103.628Z" transform="translate(-949.361 1181.494)"/>
            <path id="Path_638237" data-name="Path 638237" class="cls-7" d="M866.987-1110.893a8.9,8.9,0,0,0,.376,13.6h0a8.909,8.909,0,0,0,11.484-.287,71.63,71.63,0,0,1,7.847-6.045,65.537,65.537,0,0,1,19.18-8.82l-.8-18.137A85.445,85.445,0,0,0,866.987-1110.893Z" transform="translate(-823.794 1181.494)"/>
            <path id="Path_638239" data-name="Path 638239" class="cls-7" d="M1056.408-1009.288a38.951,38.951,0,0,1,11.932,7.441,8.882,8.882,0,0,0,6.369,2.679,8.882,8.882,0,0,0,6.23-2.54,8.909,8.909,0,0,0,.138-12.6,56.824,56.824,0,0,0-23.725-13.426l-.729,16.557A13.574,13.574,0,0,1,1056.408-1009.288Z" transform="translate(-946.225 1116.043)"/>
            <path id="Path_638241" data-name="Path 638241" class="cls-7" d="M62.957,55.77c-.2-.5-5.13-12.318-16.81-25.738A115.089,115.089,0,0,0,5.253,0L0,17.126A96.082,96.082,0,0,1,32.258,41.217c9.951,11.28,14.186,21.25,14.216,21.322a8.909,8.909,0,0,0,16.483-6.77Z" transform="matrix(0.996, 0.087, -0.087, 0.996, 120.471, 10.501)"/>
            <path id="Path_638299" data-name="Path 638299" class="cls-7" d="M935.494-1027.734a56.826,56.826,0,0,0-23.725,13.426,8.91,8.91,0,0,0,.139,12.6,8.88,8.88,0,0,0,6.229,2.54,8.883,8.883,0,0,0,6.37-2.679,38.933,38.933,0,0,1,11.931-7.44,13.509,13.509,0,0,1-.214-1.883Z" transform="translate(-852.566 1117.034)"/>
          </g>
        </g>
        <g id="Group_10849" data-name="Group 10849" transform="translate(152.505 53.571)">
          <path id="Path_638242" data-name="Path 638242" class="cls-8" d="M1292.118-820.611s-4.576,1.031-5.35,1.934-.386,1.1-.386,1.1h11.086s1.387-.773-.95-3.029A2.962,2.962,0,0,0,1292.118-820.611Z" transform="translate(-1245.014 931.303)"/>
          <path id="Path_638243" data-name="Path 638243" class="cls-9" d="M1258.837-947.3s-3.272,23.085,5.747,32.342,8.052,7.828,8.052,7.828.573.9,3.146.6,2.9-1.013,2.9-1.013-12.7-11.511-12.346-20.3,4.113-17.027,4.606-20.038c.672-4.1.557-7.617-2.493-9.609s-9.709.7-9.709.7Z" transform="translate(-1227.18 1018.243)"/>
          <path id="Path_638244" data-name="Path 638244" class="cls-8" d="M1235.952-811.486s-4.576,1.031-5.35,1.934-.386,1.1-.386,1.1H1241.3s1.387-.773-.95-3.029A2.962,2.962,0,0,0,1235.952-811.486Z" transform="translate(-1209.273 925.495)"/>
          <path id="Path_638245" data-name="Path 638245" class="cls-10" d="M1224.735-954.485s-7.87,12.187-6,25.194,7.265,24.608,9.258,25.546,5.508,0,5.508,0a25.342,25.342,0,0,1-5.742-13.007c-1.172-8.2-2.344-17.695,5.742-27.186s5.273-14.531,5.273-14.531Z" transform="translate(-1201.848 1018.394)"/>
          <path id="Path_638246" data-name="Path 638246" class="cls-11" d="M1179.5-1110.473l1.053-5.76h-2.237s-1.188-6.429-2.376-6.989-3.215,4.333-3.145,7.059,2.725,7.268,2.725,7.268Z" transform="translate(-1172.792 1123.266)"/>
          <path id="Path_638247" data-name="Path 638247" class="cls-11" d="M1249.387-1071.449s-5.252,2.334-5.179,5.981a5.442,5.442,0,0,0,2.589,4.887l-.473,2.67,1.969,1.269,1.9-2.48,3.137-4.522v-6.929S1251.349-1072.587,1249.387-1071.449Z" transform="translate(-1218.238 1090.513)"/>
          <path id="Path_638248" data-name="Path 638248" class="cls-9" d="M1255.542-1079.988c-1.639,1.469-.337,5.552,3.8,9.34.61.559-1.522,3.186-1.951,4.142s.531,4.849,6.782,3.436,4.5,2.235,4.54,4.381c.062,3,1.545,5.656,6.145,7.083s7.875-.613,7.716-6.481-.35-9.547-4.475-12.561-7.586-2.228-9.966-3.788-.232-3.705-4.135-6.211A6.55,6.55,0,0,0,1255.542-1079.988Z" transform="translate(-1225.014 1096.94)"/>
          <path id="Path_638249" data-name="Path 638249" class="cls-12" d="M1178.322-1087.843s3.729-4.458,5.337-.272c1.255,3.266,1.334,13.136,9.34,15.042s16.583,3.255,20.586,10.117,6.671,15.248,6.481,22.682c0,0,.572,2.668-23.636,3.812,0,0,1.525-13.342-.953-19.06s-10.488-12.209-13.343-16.392C1180.246-1074.68,1179.656-1077.932,1178.322-1087.843Z" transform="translate(-1176.311 1102.038)"/>
        </g>
        <path id="Path_638250" data-name="Path 638250" class="cls-13" d="M1241.822-946.43l-1.1-6.135a4.227,4.227,0,0,1-2.665-2.019,3.752,3.752,0,0,1,1.41-4.654l.614,3.274,1.117.481.8-.944-.58-3.206a3.473,3.473,0,0,1,2.862,2.873,3.414,3.414,0,0,1-1.609,3.749l1.017,5.18S1242.012-945.37,1241.822-946.43Z" transform="translate(-1063.942 1069.661)"/>
        <path id="Path_638251" data-name="Path 638251" class="cls-14" d="M1246.514-953.645l5.757-8.3s-1.731-2.782-.751-5.366a6.081,6.081,0,0,1,6.941-3.73l-3.039,4.461.732,1.83,2-.169,3-4.343a5.631,5.631,0,0,1,0,6.572,5.534,5.534,0,0,1-6.136,2.463l-4.756,7.11S1245.519-952.211,1246.514-953.645Z" transform="translate(-1068.167 1075.326)"/>
        <path id="Path_638252" data-name="Path 638252" class="cls-9" d="M1239.644-938.889s3.945,2.335,11.565-.978l-.382,1.916s-4.442,2.781-11.183.932Z" transform="translate(-1064.051 1060.292)"/>
      </g>
    </g>
    <g id="Group_10913" data-name="Group 10913" transform="translate(-18.506 51.52)">
      <g id="Group_10842" data-name="Group 10842">
        <g id="Group_10841" data-name="Group 10841" class="cls-15">
          <path id="Path_638225" data-name="Path 638225" class="cls-16" d="M735.22-1038.8s-38.726-53.3-38.726-82.481,7.824-38.333,22.1-41.246c16.917-3.453,24.772,9.216,24.772,48.926v74.8Z" transform="translate(-696.494 1163.065)"/>
          <g id="Group_10836" data-name="Group 10836">
            <g id="Group_10835" data-name="Group 10835" class="cls-17">
              <g id="Group_10834" data-name="Group 10834" transform="translate(-12.728 -51.655)">
                <line id="Line_2613" data-name="Line 2613" class="cls-18" x2="39.583" y2="175.592" transform="translate(20.814)"/>
                <line id="Line_2614" data-name="Line 2614" class="cls-18" x1="26.011" y1="13.44" transform="translate(4.942 31.534)"/>
                <line id="Line_2615" data-name="Line 2615" class="cls-18" x1="25.2" y1="13.021" transform="translate(31.222 144.935)"/>
                <line id="Line_2616" data-name="Line 2616" class="cls-18" x1="16.705" y1="8.633" transform="translate(10.083 17.864)"/>
                <line id="Line_2617" data-name="Line 2617" class="cls-18" x1="17.406" y1="8.995" transform="translate(42.153 162.879)"/>
                <line id="Line_2618" data-name="Line 2618" class="cls-18" x1="32.478" y1="16.782" transform="translate(2.575 46.381)"/>
                <line id="Line_2619" data-name="Line 2619" class="cls-18" x1="42.586" y1="22.003" transform="translate(0.885 78.501)"/>
                <line id="Line_2620" data-name="Line 2620" class="cls-18" x1="38.729" y1="20.011" transform="translate(9.303 100.731)"/>
                <line id="Line_2621" data-name="Line 2621" class="cls-18" x1="34.7" y1="17.93" transform="translate(18.1 123.959)"/>
                <line id="Line_2622" data-name="Line 2622" class="cls-18" x1="39.266" y1="20.288" transform="translate(0 61.564)"/>
                <line id="Line_2623" data-name="Line 2623" class="cls-18" y1="14.671" x2="6.53" transform="translate(57.681 148.427)"/>
                <line id="Line_2624" data-name="Line 2624" class="cls-18" y1="21.23" x2="8.107" transform="translate(54.265 126.688)"/>
                <line id="Line_2625" data-name="Line 2625" class="cls-18" y1="30.322" x2="11.632" transform="translate(50.005 98.754)"/>
                <line id="Line_2626" data-name="Line 2626" class="cls-18" y1="33.568" x2="12.891" transform="translate(44.943 73.411)"/>
                <line id="Line_2627" data-name="Line 2627" class="cls-18" y1="23.681" x2="9.057" transform="translate(34.311 35.21)"/>
                <line id="Line_2628" data-name="Line 2628" class="cls-18" y1="16.088" x2="6.113" transform="translate(28.645 18.569)"/>
                <line id="Line_2629" data-name="Line 2629" class="cls-18" y1="7.135" x2="2.641" transform="translate(23.745 5.753)"/>
                <line id="Line_2630" data-name="Line 2630" class="cls-18" y1="29.455" x2="11.296" transform="translate(40.291 56.893)"/>
              </g>
            </g>
          </g>
          <g id="Group_10840" data-name="Group 10840" transform="translate(30.294 18.55)">
            <path id="Path_638227" data-name="Path 638227" class="cls-19" d="M790.367-1006.332a196.886,196.886,0,0,1-10.564-61.977c0-21.264,23.266-41.359,29.709-43.481,7.636-2.516,10.579,13.4,10.579,42.338s-20.674,63.121-20.674,63.121Z" transform="translate(-779.803 1112.05)"/>
            <g id="Group_10839" data-name="Group 10839">
              <g id="Group_10838" data-name="Group 10838" class="cls-20">
                <g id="Group_10837" data-name="Group 10837" transform="translate(-1.287 -20.347)">
                  <line id="Line_2631" data-name="Line 2631" class="cls-21" x1="20.091" y2="127.819" transform="translate(16.979)"/>
                  <line id="Line_2632" data-name="Line 2632" class="cls-21" x1="15.618" y1="15.62" transform="translate(16.307 17.118)"/>
                  <line id="Line_2633" data-name="Line 2633" class="cls-21" x1="15.131" y1="15.133" transform="translate(3.867 99.848)"/>
                  <line id="Line_2634" data-name="Line 2634" class="cls-21" x1="10.03" y1="10.032" transform="translate(24.009 9.255)"/>
                  <line id="Line_2635" data-name="Line 2635" class="cls-21" x1="10.451" y1="10.454" transform="translate(6.954 114.659)"/>
                  <line id="Line_2636" data-name="Line 2636" class="cls-21" x1="19.501" y1="19.504" transform="translate(10.342 26.475)"/>
                  <line id="Line_2637" data-name="Line 2637" class="cls-21" x1="25.571" y1="25.573" transform="translate(0 47.587)"/>
                  <line id="Line_2638" data-name="Line 2638" class="cls-21" x1="23.255" y1="23.257" transform="translate(0 64.635)"/>
                  <line id="Line_2639" data-name="Line 2639" class="cls-21" x1="20.836" y1="20.838" transform="translate(0 82.447)"/>
                  <line id="Line_2640" data-name="Line 2640" class="cls-21" x1="23.577" y1="23.579" transform="translate(4.127 36.004)"/>
                  <line id="Line_2641" data-name="Line 2641" class="cls-21" y1="8.181" x2="9.023" transform="translate(18.484 110.569)"/>
                  <line id="Line_2642" data-name="Line 2642" class="cls-21" y1="12.18" x2="12.054" transform="translate(20.225 95.521)"/>
                  <line id="Line_2643" data-name="Line 2643" class="cls-21" y1="17.382" x2="17.256" transform="translate(22.371 76.6)"/>
                  <line id="Line_2644" data-name="Line 2644" class="cls-21" y1="19.239" x2="19.113" transform="translate(24.84 58.637)"/>
                  <line id="Line_2645" data-name="Line 2645" class="cls-21" y1="13.582" x2="13.456" transform="translate(30.497 29.343)"/>
                  <line id="Line_2646" data-name="Line 2646" class="cls-21" y1="9.238" x2="9.111" transform="translate(33.118 15.995)"/>
                  <line id="Line_2647" data-name="Line 2647" class="cls-21" y1="4.115" x2="3.988" transform="translate(35.614 5.274)"/>
                  <line id="Line_2648" data-name="Line 2648" class="cls-21" y1="16.886" x2="16.76" transform="translate(27.199 45.972)"/>
                </g>
              </g>
            </g>
          </g>
        </g>
        <ellipse id="Ellipse_2666" data-name="Ellipse 2666" class="cls-22" cx="30.965" cy="1.973" rx="30.965" ry="1.973" transform="translate(13.819 123.815)"/>
      </g>
      <g id="Group_10847" data-name="Group 10847" transform="translate(45.091 44.966)">
        <g id="Group_10846" data-name="Group 10846">
          <path id="Path_638229" data-name="Path 638229" class="cls-23" d="M827.547-986.7s-7.958,4.72-6.966,12.164,7.192,15.592,11.656,15.592H836.7a14.658,14.658,0,0,0,7.44-11.871c.744-8.676-3.968-9.172-4.96-16.116s5.366-10.187,5.039-16.129-7.534-6.687-9.139-11.4,2.465-18.114,1.163-21.385a5.439,5.439,0,0,0-10.206,0,24.622,24.622,0,0,0-.547,15.985c1.554,4.7,3.307,6.387,2.143,9.283s-7.779,7.365-5.478,11.817S831.211-993.043,827.547-986.7Z" transform="translate(-820.495 1039.405)"/>
          <g id="Group_10845" data-name="Group 10845">
            <g id="Group_10844" data-name="Group 10844" class="cls-24">
              <g id="Group_10843" data-name="Group 10843" transform="translate(-11.405 -20.443)">
                <line id="Line_2649" data-name="Line 2649" class="cls-25" x2="0.594" y2="103.605" transform="translate(23.164)"/>
                <line id="Line_2650" data-name="Line 2650" class="cls-25" x1="14.356" y1="10.332" transform="translate(8.961 16.204)"/>
                <line id="Line_2651" data-name="Line 2651" class="cls-25" x1="13.908" y1="10.01" transform="translate(9.791 83.189)"/>
                <line id="Line_2652" data-name="Line 2652" class="cls-25" x1="9.22" y1="6.636" transform="translate(14.034 8.998)"/>
                <line id="Line_2653" data-name="Line 2653" class="cls-25" x1="14.337" y1="9.999" transform="translate(9.409 91.413)"/>
                <line id="Line_2654" data-name="Line 2654" class="cls-25" x1="17.926" y1="12.901" transform="translate(5.452 24.367)"/>
                <line id="Line_2655" data-name="Line 2655" class="cls-25" x1="23.504" y1="16.915" transform="translate(0 42.386)"/>
                <line id="Line_2656" data-name="Line 2656" class="cls-25" x1="21.376" y1="15.384" transform="translate(2.197 55.859)"/>
                <line id="Line_2657" data-name="Line 2657" class="cls-25" x1="19.152" y1="13.783" transform="translate(4.492 69.936)"/>
                <line id="Line_2658" data-name="Line 2658" class="cls-25" x1="21.672" y1="15.597" transform="translate(1.769 32.699)"/>
                <line id="Line_2659" data-name="Line 2659" class="cls-25" y1="11.518" x2="9.966" transform="translate(23.779 84.726)"/>
                <line id="Line_2660" data-name="Line 2660" class="cls-25" y1="11.179" x2="7.957" transform="translate(23.731 76.109)"/>
                <line id="Line_2661" data-name="Line 2661" class="cls-25" y1="15.961" x2="11.398" transform="translate(23.659 60.208)"/>
                <line id="Line_2662" data-name="Line 2662" class="cls-25" y1="17.668" x2="12.626" transform="translate(23.534 45.454)"/>
                <line id="Line_2663" data-name="Line 2663" class="cls-25" y1="12.468" x2="8.884" transform="translate(23.501 22.303)"/>
                <line id="Line_2664" data-name="Line 2664" class="cls-25" y1="8.475" x2="6.01" transform="translate(23.293 11.976)"/>
                <line id="Line_2665" data-name="Line 2665" class="cls-25" y1="3.766" x2="2.622" transform="translate(23.224 3.841)"/>
                <line id="Line_2666" data-name="Line 2666" class="cls-25" y1="15.505" x2="11.069" transform="translate(23.463 35.445)"/>
              </g>
            </g>
          </g>
        </g>
      </g>
    </g>
  </g>
</svg>
