<svg xmlns="http://www.w3.org/2000/svg" xmlns:xlink="http://www.w3.org/1999/xlink" width="367.584" height="86.313" viewBox="0 0 367.584 86.313"><defs><clipPath id="a"><path d="M14.543,78.557A14.529,14.529,0,0,1,0,64.116V27.262A14.379,14.379,0,0,1,6.79,15.042a13.632,13.632,0,0,1,1.85-.723l.018-.016c.221-.192.47-.383.69-.548l.05-.019-.052.019a14.433,14.433,0,0,1,4.523-2.329L49.149.629a14.494,14.494,0,0,1,18.038,9.59l10.8,35.265a14.3,14.3,0,0,1,.537,5.862h0a14.481,14.481,0,0,1-10.1,12.168l-2.2.671v.125h0A14.5,14.5,0,0,1,53.695,78.42a16.265,16.265,0,0,1-2.014.137ZM56.638,67.214,33.3,74.31a14.5,14.5,0,0,1-3.83.625,14.473,14.473,0,0,0,3.866-.626l23.314-7.1,4.192-1.272ZM13.449,12.833q.527-.038,1.065-.038h-.041Q13.956,12.8,13.449,12.833Z" transform="translate(-0.002 0.002)" fill="#1a2269"/></clipPath></defs><g transform="translate(21428 23519.059)"><g transform="translate(-21389 -23512)"><g transform="translate(18128 24720.941)"><rect width="80.313" height="86.313" transform="translate(-18167 -24728)" fill="none"/><path d="M93.454,105.111l-23.154,7.1a14.475,14.475,0,0,1-18.03-9.59L41.447,67.353A14.472,14.472,0,0,1,45.831,52.2a13.478,13.478,0,0,0-1.891.74A14.4,14.4,0,0,0,37.2,65.161v36.854a14.477,14.477,0,0,0,14.44,14.44H88.522a15.989,15.989,0,0,0,2-.137,14.46,14.46,0,0,0,12.44-14.111Z" transform="translate(-18203.965 -24762.061)" fill="#e5b001"/><path d="M139.812,45.484l-10.8-35.265a14.486,14.486,0,0,0-18.03-9.59l-35.265,10.8A14.442,14.442,0,0,0,71.2,13.754a14.429,14.429,0,0,1,5.124-.959h36.881a14.477,14.477,0,0,1,14.44,14.44V64.309l2.6-.795A14.471,14.471,0,0,0,139.812,45.484Z" transform="translate(-18228.648 -24724.162)" fill="#4d9b35"/><path d="M98.1,46.7H61.216a13.85,13.85,0,0,0-5.124.959c-.219.164-.466.356-.685.548A14.472,14.472,0,0,0,51.023,63.36l10.8,35.265a14.486,14.486,0,0,0,18.03,9.59l23.154-7.1,9.508-2.9V61.168A14.46,14.46,0,0,0,98.1,46.7Z" transform="translate(-18213.541 -24758.066)" fill="#1a2268"/><g transform="translate(-18166.764 -24724.164)" clip-path="url(#a)"><path d="M-18185.148-24632.809h19l7.873-22.965,6.936,37.846,7.561-28.676,5.078,21.764,6.061-38.637,6.961,30.668h28.6" transform="translate(18181.418 24684.156)" fill="none" stroke="#fff" stroke-linecap="round" stroke-linejoin="round" stroke-width="4"/></g></g><g transform="translate(50 1.941)"><path d="M155.9,82.025c0,5.087,3.258,6.651,7.693,6.782,3.262.131,6.523-1.173,6.523-3.914,0-3.652-6-4.3-11.352-5.867-5.464-1.56-10.3-3.9-10.3-10.806,0-8.087,7.7-11.479,14.351-11.479,7.434,0,15.39,3.262,15,12.77h-8.877c.131-4.173-2.872-5.477-6.782-5.477-2.071,0-4.956,1.035-4.956,3.52-.262,3.524,6.651,3.8,12.39,5.481,6,1.826,9.395,5.218,9.395,10.565,0,7.565-5.612,12.263-15.531,12.263-10.565,0-16.7-5.218-16.3-13.957H155.9Z" transform="translate(-147.138 -56.74)" fill="#1a2268"/><rect width="8.349" height="27.525" transform="translate(33.807 11.072)" fill="#1a2268"/><rect width="8.349" height="37.047" transform="translate(44.506 1.419)" fill="#1a2268"/><path d="M321.581,86.55c9.391,0,14.5,6.133,14.5,14.61,0,8.218-5.087,14.22-14.61,14.22-8.48,0-13.957-6-13.957-14.22,0-8.48,5.087-14.61,14.088-14.61m.128,22.434c4.3,0,6-3.389,6-7.828,0-3.652-1.3-8.087-5.867-8.087-4.173,0-6,3.262-6,7.824.131,3.655,1.3,8.09,5.867,8.09" transform="translate(-252.16 -76.261)" fill="#1a2268"/><path d="M396.415,96.445c.39-4.563,2.071-6.651,4.566-8.087a19.092,19.092,0,0,1,8.753-1.826c2.74,0,12,.131,12,7.938v13.177c0,2.347,0,5.218,1.432,6.9h-8.756a14.73,14.73,0,0,1-.521-1.957c-1.567,1.567-4.832,2.609-9,2.609-5.477-.128-9-2.868-9-8.477,0-8.742,8.349-8.09,15-9.263,1.826-.39,2.609-.652,2.609-2.347,0-2.35-2.35-2.872-4.176-2.74-3.52.131-4.042,1.567-4.3,4.045h-8.611Zm11.479,13.046c4.3,0,5.608-2.347,5.35-7.175-.521.521-5.481,1.035-5.481,1.035-2.216.393-3.8,1.3-3.8,3.262,0,2.35,1.957,2.872,3.914,2.872" transform="translate(-310.037 -76.244)" fill="#1a2268"/><path d="M480.19,87.34h7.824v2.609h.131c1.957-2.35,4.435-3.389,7.959-3.389,1.432,0,6,.521,7.434,3.914,2.219-2.727,4.3-3.914,8.339-3.914,8.086,0,9.916,5.867,9.785,9.522V114.72h-8.338V97.773c0-3.386-1.567-4.432-3.8-4.432-3.655,0-4.176,2.868-4.3,5.477v15.914h-8.335v-16.7c0-3.524-1.173-4.7-3.652-4.7-3.262,0-4.435,2.478-4.566,4.832v16.435h-8.349V87.34Z" transform="translate(-365.242 -76.268)" fill="#1a2268"/><path d="M252.558,64.014a4.3,4.3,0,1,1-4.3-4.3h0a4.342,4.342,0,0,1,4.3,4.3" transform="translate(-210.537 -58.685)" fill="#1a2268"/><g transform="translate(167.82 0.224)"><path d="M633.38,57.39H660.2v5.636H639.9v9.76h18.789v5.322H639.9v10.9H660.57v5.636H633.38Z" transform="translate(-633.38 -57.39)" fill="#4d9b35"/><path d="M728.333,57.39h9.2l10.282,29.171h.1L757.929,57.39h9.081V94.665H760.8V65.884h-.107L750.357,94.637h-5.377L734.646,65.884h-.1V94.637H728.33Z" transform="translate(-695.559 -57.39)" fill="#4d9b35"/><path d="M863.06,57.39h17.8q6.154,0,9.236,2.661a9.258,9.258,0,0,1,3.079,7.41,10.781,10.781,0,0,1-.794,4.411,9.6,9.6,0,0,1-1.826,2.82,7.248,7.248,0,0,1-2.071,1.539c-.69.311-1.174.521-1.488.625v.1a6.877,6.877,0,0,1,1.8.521,5.352,5.352,0,0,1,1.8,1.332,7.27,7.27,0,0,1,1.381,2.375,10.473,10.473,0,0,1,.549,3.652,33.018,33.018,0,0,0,.494,5.978,7.885,7.885,0,0,0,1.539,3.834h-6.968a6.085,6.085,0,0,1-.859-2.661c-.09-.973-.131-1.912-.131-2.82a26.662,26.662,0,0,0-.314-4.407,7.675,7.675,0,0,0-1.146-3.079,4.88,4.88,0,0,0-2.271-1.8,10.009,10.009,0,0,0-3.679-.573H869.6V94.651h-6.523ZM869.6,74.35h10.7a6.789,6.789,0,0,0,4.749-1.488,5.767,5.767,0,0,0,1.619-4.463,6.9,6.9,0,0,0-.521-2.9,4.249,4.249,0,0,0-1.436-1.746,5.246,5.246,0,0,0-2.088-.835,13.948,13.948,0,0,0-2.416-.211H869.6Z" transform="translate(-783.789 -57.39)" fill="#4d9b35"/></g></g></g><path d="M8.842-5.546H3.779v3.428H9.721V0H1.143V-12.8H9.7v2.136H3.779v3.05H8.842ZM14.66-2.118h5.6V0H12.024V-12.8H14.66ZM30.226-5.546H25.163v3.428H31.1V0H22.527V-12.8h8.561v2.136H25.163v3.05h5.063ZM43.454-4.263a5.235,5.235,0,0,1-.439,1.793,4.168,4.168,0,0,1-1.02,1.4,4.667,4.667,0,0,1-1.578.914A6.291,6.291,0,0,1,38.3.176a5.489,5.489,0,0,1-2.21-.426,4.519,4.519,0,0,1-1.661-1.226,5.57,5.57,0,0,1-1.046-1.938,8.345,8.345,0,0,1-.365-2.553v-.844A8.117,8.117,0,0,1,33.4-9.369a5.65,5.65,0,0,1,1.068-1.942,4.634,4.634,0,0,1,1.674-1.23,5.426,5.426,0,0,1,2.2-.431,6.1,6.1,0,0,1,2.114.338,4.542,4.542,0,0,1,1.56.94,4.273,4.273,0,0,1,1,1.433,5.994,5.994,0,0,1,.457,1.806H40.834a3.989,3.989,0,0,0-.2-1.011,1.983,1.983,0,0,0-.444-.738,1.835,1.835,0,0,0-.747-.453,3.5,3.5,0,0,0-1.107-.154,2.237,2.237,0,0,0-1.991.971,5.469,5.469,0,0,0-.655,3.01v.861a9.223,9.223,0,0,0,.145,1.74,3.673,3.673,0,0,0,.457,1.248,2.009,2.009,0,0,0,.809.751,2.639,2.639,0,0,0,1.2.25,3.65,3.65,0,0,0,1.077-.141,1.908,1.908,0,0,0,.756-.426,1.92,1.92,0,0,0,.47-.716,3.517,3.517,0,0,0,.211-1Zm11.865-6.4H51.4V0H48.762V-10.661H44.9V-12.8H55.319Zm7,5.977h-2.1V0H57.578V-12.8h4.755a7.25,7.25,0,0,1,1.986.25,4.156,4.156,0,0,1,1.485.738,3.236,3.236,0,0,1,.932,1.208,4.025,4.025,0,0,1,.325,1.67A4.627,4.627,0,0,1,66.9-7.668a3.356,3.356,0,0,1-.457.993,3.348,3.348,0,0,1-.721.76,4.719,4.719,0,0,1-.949.563L67.545-.123V0h-2.83Zm-2.1-2.136h2.127a2.764,2.764,0,0,0,.91-.136,1.747,1.747,0,0,0,.65-.387,1.618,1.618,0,0,0,.391-.6,2.177,2.177,0,0,0,.132-.778,1.933,1.933,0,0,0-.514-1.424,2.137,2.137,0,0,0-1.578-.519H60.215Zm20.118.712a8.161,8.161,0,0,1-.4,2.632A5.7,5.7,0,0,1,78.826-1.5,4.844,4.844,0,0,1,77.107-.259,5.48,5.48,0,0,1,74.9.176,5.48,5.48,0,0,1,72.7-.259,4.929,4.929,0,0,1,70.968-1.5a5.728,5.728,0,0,1-1.129-1.973,8,8,0,0,1-.4-2.632v-.562a8.088,8.088,0,0,1,.4-2.628,5.8,5.8,0,0,1,1.121-1.986,4.838,4.838,0,0,1,1.723-1.252,5.48,5.48,0,0,1,2.206-.435,5.48,5.48,0,0,1,2.206.435,4.838,4.838,0,0,1,1.723,1.252A5.8,5.8,0,0,1,79.933-9.3a8.088,8.088,0,0,1,.4,2.628Zm-2.672-.58a5.385,5.385,0,0,0-.721-3.059,2.349,2.349,0,0,0-2.057-1.046,2.349,2.349,0,0,0-2.057,1.046,5.385,5.385,0,0,0-.721,3.059v.58A7.46,7.46,0,0,0,72.3-4.337a3.958,3.958,0,0,0,.545,1.292,2.368,2.368,0,0,0,.875.791,2.547,2.547,0,0,0,1.187.268,2.321,2.321,0,0,0,2.048-1.055,5.483,5.483,0,0,0,.712-3.067ZM93.411,0H90.774L85.642-8.42V0H83V-12.8h2.637l5.142,8.438V-12.8h2.628Zm5.862,0H96.637V-12.8h2.637Zm13.245-4.263a5.235,5.235,0,0,1-.439,1.793,4.168,4.168,0,0,1-1.02,1.4,4.667,4.667,0,0,1-1.578.914,6.291,6.291,0,0,1-2.114.33,5.489,5.489,0,0,1-2.21-.426A4.519,4.519,0,0,1,103.5-1.477a5.57,5.57,0,0,1-1.046-1.938,8.345,8.345,0,0,1-.365-2.553v-.844a8.117,8.117,0,0,1,.378-2.558,5.65,5.65,0,0,1,1.068-1.942,4.634,4.634,0,0,1,1.674-1.23,5.426,5.426,0,0,1,2.2-.431,6.1,6.1,0,0,1,2.114.338,4.542,4.542,0,0,1,1.56.94,4.273,4.273,0,0,1,1,1.433,5.994,5.994,0,0,1,.457,1.806H109.9a3.989,3.989,0,0,0-.2-1.011,1.983,1.983,0,0,0-.444-.738,1.835,1.835,0,0,0-.747-.453,3.5,3.5,0,0,0-1.107-.154,2.237,2.237,0,0,0-1.991.971,5.469,5.469,0,0,0-.655,3.01v.861a9.223,9.223,0,0,0,.145,1.74,3.673,3.673,0,0,0,.457,1.248,2.009,2.009,0,0,0,.809.751,2.639,2.639,0,0,0,1.2.25,3.65,3.65,0,0,0,1.077-.141,1.908,1.908,0,0,0,.756-.426,1.92,1.92,0,0,0,.47-.716,3.517,3.517,0,0,0,.211-1ZM123.69-12.8l3.287,9.281,3.27-9.281h3.463V0h-2.646V-3.5l.264-6.038L127.874,0h-1.811l-3.445-9.527.264,6.029V0h-2.637V-12.8Zm20.777,7.251h-5.062v3.428h5.941V0h-8.578V-12.8h8.561v2.136h-5.924v3.05h5.063ZM147.649,0V-12.8h3.938a6.157,6.157,0,0,1,2.369.444A5.33,5.33,0,0,1,155.8-11.1,5.7,5.7,0,0,1,157-9.176a6.931,6.931,0,0,1,.431,2.5v.58a6.959,6.959,0,0,1-.426,2.492,5.589,5.589,0,0,1-1.2,1.925,5.36,5.36,0,0,1-1.859,1.244A6.268,6.268,0,0,1,151.56,0Zm2.637-10.661v8.543h1.274a2.856,2.856,0,0,0,2.382-1.033A4.655,4.655,0,0,0,154.76-6.1v-.6a4.64,4.64,0,0,0-.809-2.958,2.854,2.854,0,0,0-2.364-1.006ZM162.907,0h-2.637V-12.8h2.637Zm13.245-4.263a5.235,5.235,0,0,1-.439,1.793,4.168,4.168,0,0,1-1.02,1.4,4.667,4.667,0,0,1-1.578.914A6.291,6.291,0,0,1,171,.176a5.489,5.489,0,0,1-2.21-.426,4.519,4.519,0,0,1-1.661-1.226,5.57,5.57,0,0,1-1.046-1.938,8.345,8.345,0,0,1-.365-2.553v-.844a8.117,8.117,0,0,1,.378-2.558,5.65,5.65,0,0,1,1.068-1.942,4.634,4.634,0,0,1,1.674-1.23,5.426,5.426,0,0,1,2.2-.431,6.1,6.1,0,0,1,2.114.338,4.542,4.542,0,0,1,1.56.94,4.273,4.273,0,0,1,1,1.433,5.994,5.994,0,0,1,.457,1.806h-2.637a3.989,3.989,0,0,0-.2-1.011,1.983,1.983,0,0,0-.444-.738,1.835,1.835,0,0,0-.747-.453,3.5,3.5,0,0,0-1.107-.154,2.237,2.237,0,0,0-1.991.971,5.469,5.469,0,0,0-.655,3.01v.861a9.223,9.223,0,0,0,.145,1.74,3.673,3.673,0,0,0,.457,1.248,2.009,2.009,0,0,0,.809.751,2.639,2.639,0,0,0,1.2.25,3.65,3.65,0,0,0,1.077-.141,1.908,1.908,0,0,0,.756-.426,1.92,1.92,0,0,0,.47-.716,3.517,3.517,0,0,0,.211-1Zm9.712,1.626h-4.623L180.363,0h-2.8l4.764-12.8h2.443L189.556,0h-2.8Zm-3.911-2.136h3.2l-1.608-4.79Zm12.191,2.654h5.6V0h-8.235V-12.8h2.637Zm17.842-2.566h-2.1V0h-2.637V-12.8H212a7.25,7.25,0,0,1,1.986.25,4.156,4.156,0,0,1,1.485.738,3.236,3.236,0,0,1,.932,1.208,4.025,4.025,0,0,1,.325,1.67,4.627,4.627,0,0,1-.158,1.261,3.356,3.356,0,0,1-.457.993,3.348,3.348,0,0,1-.721.76,4.719,4.719,0,0,1-.949.563l2.769,5.229V0h-2.83Zm-2.1-2.136h2.127a2.764,2.764,0,0,0,.91-.136,1.747,1.747,0,0,0,.65-.387,1.618,1.618,0,0,0,.391-.6,2.177,2.177,0,0,0,.132-.778,1.933,1.933,0,0,0-.514-1.424A2.137,2.137,0,0,0,212-10.661h-2.118Zm17.306,1.274h-5.062v3.428h5.941V0h-8.578V-12.8h8.561v2.136h-5.924v3.05h5.063Zm13.228,1.283a5.235,5.235,0,0,1-.439,1.793,4.168,4.168,0,0,1-1.02,1.4,4.667,4.667,0,0,1-1.578.914,6.291,6.291,0,0,1-2.114.33,5.489,5.489,0,0,1-2.21-.426A4.519,4.519,0,0,1,231.4-1.477a5.57,5.57,0,0,1-1.046-1.938,8.345,8.345,0,0,1-.365-2.553v-.844a8.117,8.117,0,0,1,.378-2.558,5.65,5.65,0,0,1,1.068-1.942,4.634,4.634,0,0,1,1.674-1.23,5.426,5.426,0,0,1,2.2-.431,6.1,6.1,0,0,1,2.114.338,4.542,4.542,0,0,1,1.56.94,4.273,4.273,0,0,1,1,1.433,5.994,5.994,0,0,1,.457,1.806H237.8a3.989,3.989,0,0,0-.2-1.011,1.983,1.983,0,0,0-.444-.738,1.835,1.835,0,0,0-.747-.453,3.5,3.5,0,0,0-1.107-.154,2.237,2.237,0,0,0-1.991.971,5.469,5.469,0,0,0-.655,3.01v.861a9.223,9.223,0,0,0,.145,1.74,3.673,3.673,0,0,0,.457,1.248,2.009,2.009,0,0,0,.809.751,2.639,2.639,0,0,0,1.2.25,3.65,3.65,0,0,0,1.077-.141,1.908,1.908,0,0,0,.756-.426,1.92,1.92,0,0,0,.47-.716,3.517,3.517,0,0,0,.211-1Zm13-1.846a8.161,8.161,0,0,1-.4,2.632A5.7,5.7,0,0,1,251.911-1.5a4.844,4.844,0,0,1-1.718,1.244,5.48,5.48,0,0,1-2.206.435,5.48,5.48,0,0,1-2.206-.435A4.929,4.929,0,0,1,244.053-1.5a5.728,5.728,0,0,1-1.129-1.973,8,8,0,0,1-.4-2.632v-.562a8.088,8.088,0,0,1,.4-2.628,5.8,5.8,0,0,1,1.121-1.986,4.838,4.838,0,0,1,1.723-1.252,5.48,5.48,0,0,1,2.206-.435,5.48,5.48,0,0,1,2.206.435,4.838,4.838,0,0,1,1.723,1.252A5.8,5.8,0,0,1,253.018-9.3a8.088,8.088,0,0,1,.4,2.628Zm-2.672-.58a5.385,5.385,0,0,0-.721-3.059,2.349,2.349,0,0,0-2.057-1.046,2.349,2.349,0,0,0-2.057,1.046,5.385,5.385,0,0,0-.721,3.059v.58a7.46,7.46,0,0,0,.189,1.771,3.958,3.958,0,0,0,.545,1.292,2.368,2.368,0,0,0,.875.791,2.547,2.547,0,0,0,1.187.268,2.321,2.321,0,0,0,2.048-1.055,5.483,5.483,0,0,0,.712-3.067Zm10.081,2h-2.1V0H256.09V-12.8h4.755a7.25,7.25,0,0,1,1.986.25,4.156,4.156,0,0,1,1.485.738,3.236,3.236,0,0,1,.932,1.208,4.025,4.025,0,0,1,.325,1.67,4.627,4.627,0,0,1-.158,1.261,3.356,3.356,0,0,1-.457.993,3.348,3.348,0,0,1-.721.76,4.719,4.719,0,0,1-.949.563l2.769,5.229V0h-2.83Zm-2.1-2.136h2.127a2.764,2.764,0,0,0,.91-.136,1.747,1.747,0,0,0,.65-.387,1.618,1.618,0,0,0,.391-.6,2.177,2.177,0,0,0,.132-.778,1.933,1.933,0,0,0-.514-1.424,2.137,2.137,0,0,0-1.578-.519h-2.118ZM268.333,0V-12.8h3.938a6.157,6.157,0,0,1,2.369.444,5.33,5.33,0,0,1,1.846,1.248,5.7,5.7,0,0,1,1.2,1.929,6.931,6.931,0,0,1,.431,2.5v.58a6.959,6.959,0,0,1-.426,2.492,5.589,5.589,0,0,1-1.2,1.925,5.36,5.36,0,0,1-1.859,1.244A6.268,6.268,0,0,1,272.245,0Zm2.637-10.661v8.543h1.274a2.856,2.856,0,0,0,2.382-1.033,4.655,4.655,0,0,0,.817-2.949v-.6a4.64,4.64,0,0,0-.809-2.958,2.854,2.854,0,0,0-2.364-1.006Z" transform="translate(-21338.66 -23442.959)" fill="#171717"/></g></svg>