<svg xmlns="http://www.w3.org/2000/svg" width="40" height="32" viewBox="0 0 40 32">
    <defs>
        <style>
            .cls-1{fill:none}.cls-2,.cls-5,.cls-7{fill:#e21100}.cls-3,.cls-4{fill:#fff}.cls-3{stroke:#fff;stroke-width:.5px}.cls-5{stroke:#e21100;stroke-width:.2px}.cls-6,.cls-7{stroke:none}
        </style>
    </defs>
    <g id="ic_Allergy" transform="translate(-272 -323)">
        <path id="Rectangle_2179" d="M0 0h40v32H0z" class="cls-1" data-name="Rectangle 2179" transform="translate(272 323)"/>
        <g id="round-table_chart-24px" transform="translate(280 326)">
            <rect id="Rectangle_12941" width="32" height="20" class="cls-2" data-name="Rectangle 12941" rx="10" transform="translate(-4 3)"/>
            <g id="Bounding_Boxes">
                <path id="Path_3217" d="M0 0h24v24H0z" class="cls-1" data-name="Path 3217"/>
            </g>
            <path id="Path_640179" d="M13.618.5A3.709 3.709 0 0 0 8.432.4L.887 7.929A3.9 3.9 0 0 0 .6 13.48a3.841 3.841 0 0 0 5.568-.28l7.544-7.526A3.687 3.687 0 0 0 13.618.5zM5.98 12.351a3.525 3.525 0 0 1-2.641 1.317 3.152 3.152 0 0 1-2.169-.847 2.976 2.976 0 0 1-.849-2.164 3.509 3.509 0 0 1 1.32-2.634l1.887-1.881 5.092-5.08.189-.188a2.781 2.781 0 0 1 2.357-.753.431.431 0 0 1 .377.47.431.431 0 0 1-.472.376 2.048 2.048 0 0 0-1.7.47l-.094.094L5.32 5.577 9 9.246z" class="cls-3" data-name="Path 640179" transform="translate(2.824 5.762)"/>
            <g id="Group_12963" data-name="Group 12963" transform="translate(8.453 10.192)">
                <g id="Polygon_1" class="cls-4" data-name="Polygon 1">
                    <path d="M13.806 13.826H1.741c-.544 0-1.03-.281-1.3-.753a1.484 1.484 0 0 1 .004-1.503L6.478 1.23A1.486 1.486 0 0 1 7.774.485c.539 0 1.023.278 1.295.744l6.033 10.341c.274.47.276 1.032.005 1.503-.271.472-.757.753-1.3.753z" class="cls-6"/>
                    <path d="M7.774.985a.99.99 0 0 0-.864.496L.877 11.822a1 1 0 0 0 .864 1.504h12.065a1 1 0 0 0 .864-1.504L8.637 1.481a.99.99 0 0 0-.863-.496m0-1c.719 0 1.365.37 1.727.992l6.033 10.341a1.98 1.98 0 0 1 .006 2.004 1.98 1.98 0 0 1-1.734 1.004H1.741a1.98 1.98 0 0 1-1.734-1.004 1.98 1.98 0 0 1 .006-2.004L6.046.977a1.98 1.98 0 0 1 1.728-.992z" class="cls-7"/>
                </g>
                <path id="Path_640126" d="M1.332-1.049H-.305L-.6-6.911h2.153zM-.6 1.5a.725.725 0 0 1 .081-.338.8.8 0 0 1 .232-.269A1.179 1.179 0 0 1 .067.714 1.484 1.484 0 0 1 .523.648a1.484 1.484 0 0 1 .456.066 1.179 1.179 0 0 1 .354.179.8.8 0 0 1 .231.27.746.746 0 0 1 0 .676.8.8 0 0 1-.231.27 1.179 1.179 0 0 1-.354.179 1.484 1.484 0 0 1-.456.066 1.484 1.484 0 0 1-.456-.066 1.179 1.179 0 0 1-.354-.179.8.8 0 0 1-.231-.27A.725.725 0 0 1-.6 1.5z" class="cls-5" data-name="Path 640126" transform="translate(7.328 10.159)"/>
            </g>
        </g>
    </g>
</svg>
