<svg xmlns="http://www.w3.org/2000/svg" width="32" height="32" viewBox="0 0 32 32"><g transform="translate(6 7)"><path d="M.816,0H19.184A.816.816,0,0,1,20,.816V4a0,0,0,0,1,0,0H0A0,0,0,0,1,0,4V.816A.816.816,0,0,1,.816,0Z" transform="translate(0 1.417)" fill="#76767c"/><g transform="translate(-13 -14.5)" fill="none"><path d="M33,17.5H13V30.833A1.562,1.562,0,0,0,14.429,32.5H31.571A1.562,1.562,0,0,0,33,30.833V17.5Z" stroke="none"/><path d="M 15.00000190734863 19.50000381469727 L 15.00000190734863 30.50000381469727 L 31.00000190734863 30.50000381469727 L 31.00000190734863 19.50000381469727 L 15.00000190734863 19.50000381469727 M 13 17.50000381469727 L 33 17.50000381469727 L 33 30.83334350585938 C 33 31.75333404541016 32.36000061035156 32.50000381469727 31.57143211364746 32.50000381469727 L 14.4285717010498 32.50000381469727 C 13.6400032043457 32.50000381469727 13 31.75333404541016 13 30.83334350585938 L 13 17.50000381469727 Z" stroke="none" fill="#76767c"/></g><rect width="2.833" height="2.833" transform="translate(4.25 7.117)" fill="#76767c"/><rect width="2.833" height="2.833" transform="translate(4.25 11.367)" fill="#76767c"/><rect width="2.833" height="2.833" transform="translate(8.5 7.117)" fill="#76767c"/><rect width="2.833" height="2.833" transform="translate(8.5 11.367)" fill="#76767c"/><rect width="2.833" height="2.833" transform="translate(12.75 7.117)" fill="#76767c"/><path d="M1,0H2A1,1,0,0,1,3,1v.5a0,0,0,0,1,0,0H0a0,0,0,0,1,0,0V1A1,1,0,0,1,1,0Z" transform="translate(2 0)" fill="#76767c"/><path d="M1,0H2A1,1,0,0,1,3,1v.5a0,0,0,0,1,0,0H0a0,0,0,0,1,0,0V1A1,1,0,0,1,1,0Z" transform="translate(15 0)" fill="#76767c"/></g><rect width="32" height="32" fill="none"/></svg>