<svg id="ic_CVvaccine_padding" xmlns="http://www.w3.org/2000/svg" width="40" height="32" viewBox="0 0 40 32">
  <rect id="Rectangle_2179" data-name="Rectangle 2179" width="40" height="32" fill="none"/>
  <g id="ic_COVID" transform="translate(8 4)">
    <rect id="Rectangle_12941" data-name="Rectangle 12941" width="32" height="20" rx="10" transform="translate(-4 2)" fill="#19b5a3"/>
    <path id="Path_640682" data-name="Path 640682" d="M-9.522-12.457A2.341,2.341,0,0,0-10.2-10.54l.208,1.863-1.946,1.946a.235.235,0,0,0,0,.331l.331.331a.235.235,0,0,0,.331,0l1.943-1.943,1.863.208a2.333,2.333,0,0,0,1.916-.674l5.33-5.33-3.976-3.976ZM2.934-18.612.613-20.933a.235.235,0,0,0-.331,0l-.331.331a.235.235,0,0,0,0,.331l.829.829L-.547-18.114l-1.658-1.658-.5-.5a.235.235,0,0,0-.331,0l-.993.993a.235.235,0,0,0,0,.331l.5.5L.446-14.467l.5.5a.235.235,0,0,0,.331,0l.993-1a.235.235,0,0,0,0-.331L.115-17.449l1.327-1.327.829.829a.235.235,0,0,0,.331,0l.331-.331A.239.239,0,0,0,2.934-18.612Z" transform="translate(16.001 25.388)" fill="#fff"/>
  </g>
  <g id="ic_COVID-2" data-name="ic_COVID" transform="translate(13.912 14.563)">
    <rect id="Rectangle_12941-2" data-name="Rectangle 12941" width="16" height="11" rx="2" transform="translate(6.088 0.438)" fill="#ea5f55"/>
    <path id="Path_640683" data-name="Path 640683" d="M-4.618-2.478A2.767,2.767,0,0,1-3.91-4.512a2.108,2.108,0,0,1,1.565-.622A2.117,2.117,0,0,1-.485-4.3a1.805,1.805,0,0,1,.349.94H-1.189a1.422,1.422,0,0,0-.263-.547A1.07,1.07,0,0,0-2.3-4.235a1.055,1.055,0,0,0-.906.463,2.226,2.226,0,0,0-.332,1.311,1.954,1.954,0,0,0,.35,1.27,1.107,1.107,0,0,0,.89.422,1.018,1.018,0,0,0,.844-.362,1.574,1.574,0,0,0,.267-.584H-.147a2.261,2.261,0,0,1-.7,1.34A2.047,2.047,0,0,1-2.287.14,2.173,2.173,0,0,1-4-.557,2.791,2.791,0,0,1-4.618-2.478Zm8.364-2.56H4.84L3.121,0H2.126L.424-5.038H1.548L2.642-1.213Z" transform="translate(14.088 8.438)" fill="#fff"/>
  </g>
</svg>
