<svg xmlns="http://www.w3.org/2000/svg" width="20.25" height="18.003" viewBox="0 0 20.25 18.003"><path d="M-6.107-3.625a.276.276,0,0,0-.081.2V.562H-18.563V-11.812h8.49a.279.279,0,0,0,.2-.081l1.125-1.125a.283.283,0,0,0-.2-.482h-9.615a1.688,1.688,0,0,0-1.687,1.687V.562A1.688,1.688,0,0,0-18.563,2.25H-6.188A1.688,1.688,0,0,0-4.5.562V-4.549a.283.283,0,0,0-.482-.2ZM-.6-10.719a2.059,2.059,0,0,0,0-2.911l-1.519-1.519a2.052,2.052,0,0,0-2.907,0l-9.232,9.232-.352,3.178a1.452,1.452,0,0,0,1.6,1.6l3.178-.352ZM-4.075-9.633-10.61-3.1l-2.3.257.257-2.3,6.532-6.536Zm2.278-2.8a.375.375,0,0,1,0,.524l-1.086,1.086-2.043-2.043,1.086-1.086a.367.367,0,0,1,.52,0Z" transform="translate(20.25 15.753)" fill="#4d9b35"/></svg>