<svg id="ic_History" xmlns="http://www.w3.org/2000/svg" width="24" height="24" viewBox="0 0 24 24">
  <defs>
    <style>
      .cls-1 {
        fill: #4d9b35;
      }

      .cls-2 {
        fill: #fff;
      }
    </style>
  </defs>
  <ellipse id="Ellipse_944" data-name="Ellipse 944" class="cls-1" cx="12" cy="12" rx="12" ry="12" transform="translate(24 0) rotate(90)"/>
  <g id="Rounded" transform="translate(0.91 1.699)">
    <g id="Group_5628" data-name="Group 5628" transform="translate(1.708 2.997)">
      <path id="Path_34851" data-name="Path 34851" class="cls-2" d="M11.528,3A7.659,7.659,0,0,0,3.656,10.65H2.135a.421.421,0,0,0-.3.723l2.372,2.38a.421.421,0,0,0,.6,0l2.372-2.38a.425.425,0,0,0-.306-.723H5.357A5.949,5.949,0,0,1,11.392,4.7a6.026,6.026,0,0,1,5.866,5.866A5.954,5.954,0,0,1,11.307,16.6a5.861,5.861,0,0,1-3.638-1.258.845.845,0,0,0-1.122.068h0a.849.849,0,0,0,.068,1.267A7.53,7.53,0,0,0,11.307,18.3a7.659,7.659,0,0,0,7.651-7.872A7.741,7.741,0,0,0,11.528,3Z" transform="translate(-1.708 -2.997)"/>
      <path id="Path_34852" data-name="Path 34852" class="cls-2" d="M12.638,8h0A.642.642,0,0,0,12,8.638v3.128a.86.86,0,0,0,.417.731l2.652,1.573a.639.639,0,0,0,.655-1.1l-2.448-1.454V8.629A.641.641,0,0,0,12.638,8Z" transform="translate(-3.251 -3.747)"/>
    </g>
  </g>
</svg>
