<svg xmlns="http://www.w3.org/2000/svg" width="40" height="32" viewBox="0 0 40 32">
    <defs>
        <style>
            .cls-1,.cls-4,.cls-5{fill:none}.cls-2{fill:#fd0}.cls-3{fill:#171717}.cls-4,.cls-5{stroke:#171717;stroke-linecap:round;stroke-width:1.5px}.cls-4{stroke-linejoin:round}
        </style>
    </defs>
    <g id="ic_Jatuh" transform="translate(-272 -323)">
        <path id="Rectangle_2179" d="M0 0h40v32H0z" class="cls-1" data-name="Rectangle 2179" transform="translate(272 323)"/>
        <g id="round-table_chart-24px" transform="translate(280 326)">
            <rect id="Rectangle_12941" width="32" height="20" class="cls-2" data-name="Rectangle 12941" rx="10" transform="translate(-4 3)"/>
            <g id="Bounding_Boxes">
                <path id="Path_3217" d="M0 0h24v24H0z" class="cls-1" data-name="Path 3217"/>
            </g>
            <g id="Group_12969" data-name="Group 12969" transform="translate(23.588 -.299)">
                <circle id="Ellipse_1920" cx="1.995" cy="1.995" r="1.995" class="cls-3" data-name="Ellipse 1920" transform="translate(-19.865 8.203)"/>
                <path id="Path_637969" d="M1.721 5.055L0 1.394 2.534 0" class="cls-4" data-name="Path 637969" transform="translate(-19.286 13.604)"/>
                <path id="Path_637970" d="M1.519 6.017L0 2.784 2.613 0" class="cls-4" data-name="Path 637970" transform="rotate(-155 -4.669 7.846)"/>
                <path id="Path_637971" d="M0 5.9l1.682-4.589L6.646 0" class="cls-4" data-name="Path 637971" transform="rotate(-5 134.077 135.713)"/>
                <path id="Path_637972" d="M0 3.049L10.44 0" class="cls-5" data-name="Path 637972" transform="rotate(-14 58.1 55.43)"/>
                <rect id="Rectangle_12337" width="4.255" height="9.576" class="cls-3" data-name="Rectangle 12337" rx="1" transform="rotate(-45 7.304 28.319)"/>
            </g>
        </g>
    </g>
</svg>
