<svg id="ic_Lab_NotActive" xmlns="http://www.w3.org/2000/svg" width="24" height="24" viewBox="0 0 24 24">
  <defs>
    <style>
      .cls-1 {
        fill: #d0d3ea;
      }

      .cls-2 {
        fill: #fff;
      }
    </style>
  </defs>
  <ellipse id="Ellipse_1482" data-name="Ellipse 1482" class="cls-1" cx="12" cy="12" rx="12" ry="12" transform="translate(0 0)"/>
  <path id="Union_126" data-name="Union 126" class="cls-2" d="M11.351,15.507H.649a.647.647,0,0,1-.563-.97L4.7,6.454H7.29l4.623,8.083a.646.646,0,0,1-.56.97ZM2.157,13.664c-.175.246.046.55.4.55H9.519c.356,0,.582-.323.408-.55l-2-3.691H4.049ZM4.7,6.454V1.493A.75.75,0,0,1,4.807,0h2.38a.75.75,0,0,1,.1,1.493V6.454Z" transform="translate(6 3)"/>
</svg>
