<svg id="Layer_1" data-name="Layer 1" xmlns="http://www.w3.org/2000/svg" xmlns:xlink="http://www.w3.org/1999/xlink" viewBox="0 0 409 220.77"><defs><style>.cls-1{fill:none;}.cls-2{clip-path:url(#clip-path);}.cls-3{fill:#0f4c8d;}.cls-4{fill:#1c2674;}.cls-5{fill:#fff;}.cls-6{fill:#49a942;}.cls-7{fill:#ffcf01;}</style><clipPath id="clip-path"><rect class="cls-1" x="-781.55" y="-200.17" width="1190.55" height="841.89"/></clipPath></defs><title>SH-logo</title><g class="cls-2"><path class="cls-3" d="M198,83.19V96.88s-6.28-3.76-7-7.68c0,0,1.51-3.53,7-6"/><path class="cls-3" d="M210.24,81.6v8.75s4,.4,4.93,4.24c5.2-1.23,7.88-11-4.93-13"/><rect class="cls-4" x="40.58" y="88.89" width="163.43" height="44.96"/><path class="cls-5" d="M205,134.85H39.58V87.9H205Zm-163.43-2H203v-43H41.57Z"/><rect class="cls-6" x="204.99" y="88.89" width="163.43" height="44.96"/><path class="cls-5" d="M369.42,134.85H204V87.9H369.42Zm-163.43-2H367.43v-43H206Z"/><path class="cls-5" d="M210.24,96.13V92.8c3.18.08,3.56,3.33,3.56,3.33Zm16.07,1.31a8.94,8.94,0,0,0-5.2-1.32h-5.3s6.61-1.42,5.64-8.29-10.4-8.44-11.26-8.48V77.21a8,8,0,0,1,2.17-4.75s-6.09-6.31-12.2-1.3c0,0-2.54,1.79-2.34,7l-.06,2.47s-6,3.16-9.5,8.18-3.71,7.74-3.71,7.74a9.7,9.7,0,0,1-5-1.16s-5.14,11.64,3.5,12.49l4.58.06,10.53,6v8.45a5.87,5.87,0,0,1-4.22-.85c-2.28-1.3-2.23-3-2.92-5.17,0,0-8.37.64-8.34,8.56a9.07,9.07,0,0,0,7.48,9.14,32.94,32.94,0,0,0,8.1,1v8.92s0,3.83-2.21,4.81c0,0,.94,2.25,6.38,2.71,0,0,7.22,1.38,7.75-6.76V132.26a14.23,14.23,0,0,0,6.3-6.67,11.25,11.25,0,0,0,3.36-7,12.47,12.47,0,0,0-5.14-10.71h8.7A6.5,6.5,0,0,1,227.9,110c.94-1.21,4.12-9.18-1.59-12.59"/><path class="cls-7" d="M180.72,97.55s.94.83,3.64.8a8.45,8.45,0,0,0,2.26,8s-6.07,1.28-6.83-3.62a11.3,11.3,0,0,1,.93-5.14"/><path class="cls-4" d="M198,83.19V96.88s-6.28-3.76-7-7.68c0,0,1.51-3.53,7-6"/><path class="cls-4" d="M210.24,81.6v8.75s4,.4,4.93,4.24c5.2-1.23,7.88-11-4.93-13"/><path class="cls-4" d="M210.11,120.41v9.45a10.94,10.94,0,0,0,4.37-5s-.25-2.55-4.37-4.47"/><path class="cls-4" d="M198.16,124.13v8.77s-13.17,1.4-13.45-8.12c-.13-4.61,4.13-6.13,5-6.33.44,3.49,2.51,5.45,8.4,5.68"/><path class="cls-4" d="M189.56,90.59s-8,9.59.13,16.14l21.13,11.49s3.57,1.49,4.59,4.83c0,0,7.14-7.69-4.48-15.79l-11.61-7.21s-8.39-3.92-9.76-9.46"/><path class="cls-7" d="M200.32,114.8l8,4.65v24.8s-.28,8-9.16,4.19c0,0,.93-1,1.12-4Z"/><path class="cls-7" d="M209.75,73c-1.3-.81-10.47-5.72-10,7.19V98l13.18,8.06H223.1s3.16.09,4.32,1.47c0,0,3.85-8.45-5.94-9.31H208.3l0-19.88A9,9,0,0,1,209.75,73"/><path class="cls-5" d="M52.44,114.49c0,4.31,2.77,5.56,6.46,5.66,2.79.08,5.43-1,5.48-3.26,0-3.09-5-3.58-9.57-4.9s-8.68-3.28-8.68-9.07c0-6.77,6.42-9.62,12-9.62C64.42,93.3,71,96,70.78,104.08H63.37c.13-3.47-2.43-4.62-5.67-4.62-1.78,0-4.11.84-4.11,2.91-.2,3,5.63,3.23,10.35,4.65,5,1.51,7.9,4.38,7.9,8.89,0,6.31-4.7,10.3-13,10.3-8.84,0-14-4.35-13.71-11.72Z"/><rect class="cls-5" x="73.37" y="102.5" width="6.99" height="23.06"/><rect class="cls-5" x="82.37" y="94.43" width="6.98" height="31.12"/><path class="cls-5" d="M103.44,120.67c3.61,0,5-2.87,5-6.54,0-3.08-1-6.73-4.9-6.73-3.5,0-5,2.73-5,6.61,0,2.93,1,6.66,4.86,6.66m-.1-18.78c7.94,0,12.14,5.16,12.14,12.24,0,6.92-4.23,12-12.3,12-7.14,0-11.67-5-11.67-12,0-7.08,4.28-12.24,11.83-12.24"/><path class="cls-5" d="M127.17,121.16c3.58,0,4.68-1.91,4.51-6-.39.45-4.56.91-4.56.91-1.84.31-3.22,1-3.22,2.74,0,1.94,1.59,2.39,3.27,2.4m-9.64-10.93c.29-3.87,1.75-5.54,3.79-6.74a15.46,15.46,0,0,1,7.33-1.59c2.3,0,10,.1,10,6.72v11.09c0,2,0,4.42,1.17,5.84H132.5a11.84,11.84,0,0,1-.44-1.63c-1.31,1.35-4.08,2.23-7.55,2.2-4.6-.06-7.57-2.42-7.57-7.12,0-7.31,7-6.74,12.58-7.8,1.5-.28,2.18-.57,2.18-2,0-1.94-1.94-2.38-3.49-2.32-3,.14-3.42,1.31-3.63,3.35Z"/><path class="cls-5" d="M141.45,102.5h6.61v2.22h.09a8,8,0,0,1,6.65-2.83c1.25,0,5.06.48,6.29,3.26a7.92,7.92,0,0,1,7-3.26c6.8,0,8.28,4.87,8.19,8v15.6h-7V111.29c0-2.83-1.32-3.71-3.2-3.69-3.07,0-3.5,2.38-3.66,4.59v13.35h-7v-14c0-2.92-1-3.94-3.08-3.94-2.69,0-3.71,2.07-3.82,4v13.84h-7Z"/><path class="cls-5" d="M80.34,97.72a3.64,3.64,0,1,1-3.63-3.64,3.64,3.64,0,0,1,3.63,3.64"/><polygon class="cls-5" points="232.19 96.05 235.36 96.05 235.36 107.58 246.12 107.58 246.12 96.05 249.27 96.05 249.27 124.48 246.12 124.48 246.12 111.05 235.36 111.05 235.36 124.48 232.19 124.48 232.19 96.05"/><path class="cls-5" d="M254,113.84c0,4.14,2.24,8.27,6.76,8.27s6.77-4.13,6.77-8.27-2.25-8.27-6.77-8.27S254,109.7,254,113.84m16.33,0c0,5.8-3.38,10.69-9.61,10.69s-9.6-4.89-9.6-10.69,3.38-10.7,9.6-10.7,9.61,4.9,9.61,10.7"/><path class="cls-5" d="M283.6,109.94c0-2.9-2-4.37-4.76-4.37-2.32,0-4.24,1.16-4.24,3.12,0,2.21,2.43,2.91,4.11,3.34l3.44.78c2.72.74,4.75,2.48,4.75,5.44,0,4.42-3.75,6.23-7.53,6.23-5.05,0-7.86-2.38-8.07-7.29H274c-.09,2.74,2,4.89,5.32,4.89,2.18,0,4.9-.86,4.9-3.53,0-2.26-2-2.92-3.58-3.37l-3.64-.89c-3.19-.89-5.05-2.19-5.05-5.51,0-4.21,4.12-5.66,7.28-5.66,4,0,6.93,2.3,7.07,6.82Z"/><path class="cls-5" d="M360.63,109.94c0-2.9-2-4.37-4.78-4.37-2.32,0-4.23,1.16-4.23,3.12,0,2.21,2.41,2.91,4.13,3.34l3.43.78c2.71.74,4.74,2.48,4.74,5.44,0,4.42-3.76,6.23-7.53,6.23-5.06,0-7.88-2.38-8.06-7.29H351c-.09,2.74,2,4.89,5.32,4.89,2.17,0,4.89-.86,4.89-3.53,0-2.26-2-2.92-3.59-3.37l-3.63-.89c-3.2-.89-5.06-2.19-5.06-5.51,0-4.21,4.13-5.66,7.3-5.66,4,0,6.93,2.3,7.06,6.82Z"/><path class="cls-5" d="M297.78,105.84c-4.83,0-6.29,3.82-6.29,8.18,0,4,1.63,8.18,6.29,8.18,4.18,0,5.87-4.21,5.87-8.18s-1.69-8.18-5.87-8.18M288.85,104h2.42v3.19h.08c1.13-2.48,3.47-3.73,6.62-3.73,5.38,0,8.31,4.75,8.31,10.56s-2.74,10.55-8.41,10.55c-3.64,0-5.84-2.06-6.31-3.61h-.09v10.35h-2.62Z"/><path class="cls-5" d="M319.67,103.74h4v2.39h-4v13.49c0,.44-.07,2,1.38,2.07a17.67,17.67,0,0,0,2.58,0v2.46h-3.42c-3.42-.32-3.41-2.76-3.41-4.27V106.13h-3.45v-2.39h3.45v-6h2.87Z"/><path class="cls-5" d="M337.83,113.42h-.07a3.91,3.91,0,0,1-1.89.6c-3.8.72-8.46.72-8.46,4.41a3.75,3.75,0,0,0,4,3.68c3.42,0,6.25-2.17,6.41-5.92Zm-12.33-3.25c.09-4.76,3.21-7,7.86-7,3.34,0,7.12,1.1,7.12,6.45v10.57c0,.68.28,1.43,1.22,1.33a3.18,3.18,0,0,0,.9-.22v2.5A8.18,8.18,0,0,1,341,124c-2.47.07-3-1.53-3-3.07h-.06c-1.63,2.57-3.55,3.59-6.95,3.59s-6.34-1.76-6.31-6.19c.07-5.07,4.52-5.66,9.88-6.29,2-.24,3.27-.35,3.27-2.5,0-3.25-2.15-3.9-4.81-3.9-.78,0-4.79-.09-4.85,4.57Z"/><rect class="cls-5" x="344.4" y="96.12" width="2.81" height="27.82"/><rect class="cls-5" x="308.35" y="103.71" width="2.77" height="20.22"/><path class="cls-5" d="M311.81,100.35a1.94,1.94,0,0,1-3.87,0,1.94,1.94,0,1,1,3.87,0"/></g></svg>